<?xml version="1.0" encoding="utf-8" standalone="no"?>
<!DOCTYPE svg PUBLIC "-//W3C//DTD SVG 1.1//EN"
  "http://www.w3.org/Graphics/SVG/1.1/DTD/svg11.dtd">
<!-- Created with matplotlib (http://matplotlib.org/) -->
<svg height="204pt" version="1.1" viewBox="0 0 170 204" width="170pt" xmlns="http://www.w3.org/2000/svg" xmlns:xlink="http://www.w3.org/1999/xlink">
 <defs>
  <style type="text/css">
*{stroke-linecap:butt;stroke-linejoin:round;}
  </style>
 </defs>
 <g id="figure_1">
  <g id="patch_1">
   <path d="
M0 204.095
L170.079 204.095
L170.079 0
L0 0
z
" style="fill:#ffffff;"/>
  </g>
  <g id="axes_1">
   <g id="patch_2">
    <path d="
M25.5118 183.685
L144.567 183.685
L144.567 12.2457
L25.5118 12.2457
z
" style="fill:#ffffff;"/>
   </g>
   <g id="patch_3">
    <path clip-path="url(#p5af806adf6)" d="
M138.469 184.213
L141.199 184.213
L141.199 178.014
L138.469 178.014
L138.469 184.213
z
" style="fill:none;stroke:#808080;"/>
   </g>
   <g id="line2d_1">
    <path clip-path="url(#p5af806adf6)" d="
M28.4156 172.786
L51.6459 121.3
L80.6837 34.8044
L89.4226 -1" style="fill:none;stroke:#238b45;stroke-linecap:square;"/>
    <defs>
     <path d="
M0 2
C0.530406 2 1.03916 1.78927 1.41421 1.41421
C1.78927 1.03916 2 0.530406 2 0
C2 -0.530406 1.78927 -1.03916 1.41421 -1.41421
C1.03916 -1.78927 0.530406 -2 0 -2
C-0.530406 -2 -1.03916 -1.78927 -1.41421 -1.41421
C-1.78927 -1.03916 -2 -0.530406 -2 0
C-2 0.530406 -1.78927 1.03916 -1.41421 1.41421
C-1.03916 1.78927 -0.530406 2 0 2
z
" id="m49b4907c93" style="stroke:#238b45;stroke-width:0.5;"/>
    </defs>
    <g clip-path="url(#p5af806adf6)">
     <use style="fill:#238b45;stroke:#238b45;stroke-width:0.5;" x="28.4156097366" xlink:href="#m49b4907c93" y="172.785845602"/>
     <use style="fill:#238b45;stroke:#238b45;stroke-width:0.5;" x="51.6458892293" xlink:href="#m49b4907c93" y="121.300354789"/>
     <use style="fill:#238b45;stroke:#238b45;stroke-width:0.5;" x="80.6837385951" xlink:href="#m49b4907c93" y="34.8044316327"/>
     <use style="fill:#238b45;stroke:#238b45;stroke-width:0.5;" x="138.759437327" xlink:href="#m49b4907c93" y="-203.140189637"/>
    </g>
   </g>
   <g id="line2d_2">
    <path clip-path="url(#p5af806adf6)" d="
M28.4156 177.375
L51.6459 110.989
L80.6837 123.751
L138.759 25.1962" style="fill:none;stroke:#ff7f00;stroke-linecap:square;"/>
    <defs>
     <path d="
M0 2
C0.530406 2 1.03916 1.78927 1.41421 1.41421
C1.78927 1.03916 2 0.530406 2 0
C2 -0.530406 1.78927 -1.03916 1.41421 -1.41421
C1.03916 -1.78927 0.530406 -2 0 -2
C-0.530406 -2 -1.03916 -1.78927 -1.41421 -1.41421
C-1.78927 -1.03916 -2 -0.530406 -2 0
C-2 0.530406 -1.78927 1.03916 -1.41421 1.41421
C-1.03916 1.78927 -0.530406 2 0 2
z
" id="mac148a8bc8" style="stroke:#ff7f00;stroke-width:0.5;"/>
    </defs>
    <g clip-path="url(#p5af806adf6)">
     <use style="fill:#ff7f00;stroke:#ff7f00;stroke-width:0.5;" x="28.4156097366" xlink:href="#mac148a8bc8" y="177.374927683"/>
     <use style="fill:#ff7f00;stroke:#ff7f00;stroke-width:0.5;" x="51.6458892293" xlink:href="#mac148a8bc8" y="110.98884314"/>
     <use style="fill:#ff7f00;stroke:#ff7f00;stroke-width:0.5;" x="80.6837385951" xlink:href="#mac148a8bc8" y="123.750525263"/>
     <use style="fill:#ff7f00;stroke:#ff7f00;stroke-width:0.5;" x="138.759437327" xlink:href="#mac148a8bc8" y="25.1962354942"/>
    </g>
   </g>
   <g id="line2d_3">
    <path clip-path="url(#p5af806adf6)" d="
M28.4156 183.581
L51.6459 182.903
L80.6837 181.227
L138.759 178.317" style="fill:none;stroke:#984ea3;stroke-linecap:square;"/>
    <defs>
     <path d="
M0 2
C0.530406 2 1.03916 1.78927 1.41421 1.41421
C1.78927 1.03916 2 0.530406 2 0
C2 -0.530406 1.78927 -1.03916 1.41421 -1.41421
C1.03916 -1.78927 0.530406 -2 0 -2
C-0.530406 -2 -1.03916 -1.78927 -1.41421 -1.41421
C-1.78927 -1.03916 -2 -0.530406 -2 0
C-2 0.530406 -1.78927 1.03916 -1.41421 1.41421
C-1.03916 1.78927 -0.530406 2 0 2
z
" id="m6fcbe3cf07" style="stroke:#984ea3;stroke-width:0.5;"/>
    </defs>
    <g clip-path="url(#p5af806adf6)">
     <use style="fill:#984ea3;stroke:#984ea3;stroke-width:0.5;" x="28.4156097366" xlink:href="#m6fcbe3cf07" y="183.581020289"/>
     <use style="fill:#984ea3;stroke:#984ea3;stroke-width:0.5;" x="51.6458892293" xlink:href="#m6fcbe3cf07" y="182.902559931"/>
     <use style="fill:#984ea3;stroke:#984ea3;stroke-width:0.5;" x="80.6837385951" xlink:href="#m6fcbe3cf07" y="181.226575614"/>
     <use style="fill:#984ea3;stroke:#984ea3;stroke-width:0.5;" x="138.759437327" xlink:href="#m6fcbe3cf07" y="178.316770965"/>
    </g>
   </g>
   <g id="line2d_4">
    <path clip-path="url(#p5af806adf6)" d="
M28.4156 182.822
L51.6459 182.234
L80.6837 181.483
L138.759 179.694" style="fill:none;stroke:#000000;stroke-linecap:square;"/>
    <defs>
     <path d="
M0 2
C0.530406 2 1.03916 1.78927 1.41421 1.41421
C1.78927 1.03916 2 0.530406 2 0
C2 -0.530406 1.78927 -1.03916 1.41421 -1.41421
C1.03916 -1.78927 0.530406 -2 0 -2
C-0.530406 -2 -1.03916 -1.78927 -1.41421 -1.41421
C-1.78927 -1.03916 -2 -0.530406 -2 0
C-2 0.530406 -1.78927 1.03916 -1.41421 1.41421
C-1.03916 1.78927 -0.530406 2 0 2
z
" id="m76eb5f4da3" style="stroke:#000000;stroke-width:0.5;"/>
    </defs>
    <g clip-path="url(#p5af806adf6)">
     <use style="stroke:#000000;stroke-width:0.5;" x="28.4156097366" xlink:href="#m76eb5f4da3" y="182.822244179"/>
     <use style="stroke:#000000;stroke-width:0.5;" x="51.6458892293" xlink:href="#m76eb5f4da3" y="182.233811194"/>
     <use style="stroke:#000000;stroke-width:0.5;" x="80.6837385951" xlink:href="#m76eb5f4da3" y="181.483381112"/>
     <use style="stroke:#000000;stroke-width:0.5;" x="138.759437327" xlink:href="#m76eb5f4da3" y="179.694080612"/>
    </g>
   </g>
   <g id="line2d_5">
    <path clip-path="url(#p5af806adf6)" d="
M28.4156 183.399
L51.6459 183.326
L80.6837 183.256
L138.759 183.107" style="fill:none;stroke:#e41a1c;stroke-linecap:square;"/>
    <defs>
     <path d="
M0 2
C0.530406 2 1.03916 1.78927 1.41421 1.41421
C1.78927 1.03916 2 0.530406 2 0
C2 -0.530406 1.78927 -1.03916 1.41421 -1.41421
C1.03916 -1.78927 0.530406 -2 0 -2
C-0.530406 -2 -1.03916 -1.78927 -1.41421 -1.41421
C-1.78927 -1.03916 -2 -0.530406 -2 0
C-2 0.530406 -1.78927 1.03916 -1.41421 1.41421
C-1.03916 1.78927 -0.530406 2 0 2
z
" id="m313d082634" style="stroke:#e41a1c;stroke-width:0.5;"/>
    </defs>
    <g clip-path="url(#p5af806adf6)">
     <use style="fill:#e41a1c;stroke:#e41a1c;stroke-width:0.5;" x="28.4156097366" xlink:href="#m313d082634" y="183.398930881"/>
     <use style="fill:#e41a1c;stroke:#e41a1c;stroke-width:0.5;" x="51.6458892293" xlink:href="#m313d082634" y="183.325853235"/>
     <use style="fill:#e41a1c;stroke:#e41a1c;stroke-width:0.5;" x="80.6837385951" xlink:href="#m313d082634" y="183.256160577"/>
     <use style="fill:#e41a1c;stroke:#e41a1c;stroke-width:0.5;" x="138.759437327" xlink:href="#m313d082634" y="183.107143916"/>
    </g>
   </g>
   <g id="line2d_6">
    <path clip-path="url(#p5af806adf6)" d="
M28.4156 183.467
L51.6459 183.409
L80.6837 183.35
L138.759 183.228" style="fill:none;stroke:#08519c;stroke-linecap:square;"/>
    <defs>
     <path d="
M0 2
C0.530406 2 1.03916 1.78927 1.41421 1.41421
C1.78927 1.03916 2 0.530406 2 0
C2 -0.530406 1.78927 -1.03916 1.41421 -1.41421
C1.03916 -1.78927 0.530406 -2 0 -2
C-0.530406 -2 -1.03916 -1.78927 -1.41421 -1.41421
C-1.78927 -1.03916 -2 -0.530406 -2 0
C-2 0.530406 -1.78927 1.03916 -1.41421 1.41421
C-1.03916 1.78927 -0.530406 2 0 2
z
" id="m5c4ea31fe1" style="stroke:#08519c;stroke-width:0.5;"/>
    </defs>
    <g clip-path="url(#p5af806adf6)">
     <use style="fill:#08519c;stroke:#08519c;stroke-width:0.5;" x="28.4156097366" xlink:href="#m5c4ea31fe1" y="183.467387072"/>
     <use style="fill:#08519c;stroke:#08519c;stroke-width:0.5;" x="51.6458892293" xlink:href="#m5c4ea31fe1" y="183.40921385"/>
     <use style="fill:#08519c;stroke:#08519c;stroke-width:0.5;" x="80.6837385951" xlink:href="#m5c4ea31fe1" y="183.349540061"/>
     <use style="fill:#08519c;stroke:#08519c;stroke-width:0.5;" x="138.759437327" xlink:href="#m5c4ea31fe1" y="183.22823752"/>
    </g>
   </g>
   <g id="matplotlib.axis_1">
    <g id="xtick_1">
     <g id="line2d_7">
      <defs>
       <path d="
M0 0
L0 4" id="m741efc42ff" style="stroke:#000000;stroke-width:0.5;"/>
      </defs>
      <g>
       <use style="stroke:#000000;stroke-width:0.5;" x="28.4156097366" xlink:href="#m741efc42ff" y="183.68513856"/>
      </g>
     </g>
     <g id="text_1">
      <!-- 100 -->
      <defs>
       <path d="
M29.0938 67.7969
L11.0938 58.7031
L11.0938 57.2969
C12.2969 57.7969 13.4062 58.2031 13.7969 58.4062
C15.5938 59.1094 17.2969 59.5 18.2969 59.5
C20.4062 59.5 21.2969 58 21.2969 54.7656
L21.2969 9.25
C21.2969 5.92188 20.5 3.625 18.9062 2.70312
C17.4062 1.8125 16 1.5 11.7969 1.5
L11.7969 0
L39.4062 0
L39.4062 1.5
C31.5 1.5 29.9062 2.5 29.9062 7.34375
L29.9062 67.6094
z
" id="Nimbus_Roman_No9_L_Regular-49"/>
       <path d="
M25.4062 68
C19.9062 68 15.7031 66.3125 12 62.8125
C6.20312 57.2031 2.40625 45.7031 2.40625 34
C2.40625 23.1094 5.70312 11.4062 10.4062 5.8125
C14.0938 1.40625 19.2031 -1 25 -1
C30.0938 -1 34.4062 0.703125 38 4.20312
C43.7969 9.70312 47.5938 21.3125 47.5938 33.4062
C47.5938 53.9062 38.5 68 25.4062 68
M25.0938 65.4062
C33.5 65.4062 38 54.1094 38 33.2031
C38 12.3125 33.5938 1.60938 25 1.60938
C16.4062 1.60938 12 12.3125 12 33.1094
C12 54.3125 16.5 65.4062 25.0938 65.4062" id="Nimbus_Roman_No9_L_Regular-48"/>
      </defs>
      <g transform="translate(23.9324216918 195.737872935)scale(0.06 -0.06)">
       <use transform="scale(0.996264009963)" xlink:href="#Nimbus_Roman_No9_L_Regular-49"/>
       <use transform="translate(49.8132004981 0.0)scale(0.996264009963)" xlink:href="#Nimbus_Roman_No9_L_Regular-48"/>
       <use transform="translate(99.6264009963 0.0)scale(0.996264009963)" xlink:href="#Nimbus_Roman_No9_L_Regular-48"/>
      </g>
      <!-- neurons -->
      <defs>
       <path d="
M0.703125 39
C2.09375 39.2969 3 39.4062 4.20312 39.4062
C6.70312 39.4062 7.59375 37.7969 7.59375 33.4062
L7.59375 8.40625
C7.59375 3.40625 6.90625 2.70312 0.5 1.5
L0.5 0
L24.5 0
L24.5 1.59375
C17.7031 1.59375 16 3.10938 16 8.82812
L16 31.4531
C16 34.6719 20.2969 39.7031 23 39.7031
C23.5938 39.7031 24.5 39.2031 25.5938 38.2031
C27.2031 36.7969 28.2969 36.2031 29.5938 36.2031
C32 36.2031 33.5 37.9062 33.5 40.7031
C33.5 44 31.4062 46 28 46
C23.7969 46 20.9062 43.7031 16 36.6094
L16 45.7969
L15.5 46
C10.2031 43.7969 6.59375 42.5156 0.703125 40.6094
z
" id="Nimbus_Roman_No9_L_Regular-114"/>
       <path d="
M31.5 31.4062
L31.0938 45
L30 45
L29.7969 44.8125
C28.9062 44.1719 28.7969 44.0781 28.4062 44.0781
C27.7969 44.0781 26.7969 44.2812 25.7031 44.7812
C23.5 45.5938 21.2969 46 18.7031 46
C10.7969 46 5.09375 40.875 5.09375 33.6562
C5.09375 28.0625 8.29688 24.0469 16.7969 19.2344
L22.5938 15.9375
C26.0938 13.9375 27.7969 11.5156 27.7969 8.42188
C27.7969 4 24.5938 1.20312 19.5 1.20312
C16.0938 1.20312 13 2.48438 11.0938 4.65625
C9 7.10938 8.09375 9.375 6.79688 15
L5.20312 15
L5.20312 -0.609375
L6.5 -0.609375
C7.20312 0.515625 7.59375 0.75 8.79688 0.75
C9.70312 0.75 11.0938 0.546875 13.4062 -0.03125
C16.2031 -0.609375 18.9062 -1 20.7031 -1
C28.4062 -1 34.7969 4.8125 34.7969 11.8281
C34.7969 16.8281 32.4062 20.1406 26.4062 23.75
L15.5938 30.1562
C12.7969 31.7656 11.2969 34.2812 11.2969 36.9844
C11.2969 41 14.4062 43.7969 19 43.7969
C24.7031 43.7969 27.7031 40.3594 30 31.4062
z
" id="Nimbus_Roman_No9_L_Regular-115"/>
       <path d="
M40.7969 16.4531
C36 8.8125 31.7031 5.90625 25.2969 5.90625
C19.5938 5.90625 15.2969 8.8125 12.4062 14.5312
C10.5938 18.3438 9.90625 21.6562 9.70312 27.7969
L40.5 27.7969
C39.7031 34.2656 38.7031 37.1406 36.2031 40.3281
C33.2031 43.9219 28.5938 46 23.4062 46
C18.4062 46 13.7031 44.2031 9.90625 40.7969
C5.20312 36.7031 2.5 29.5938 2.5 21.4062
C2.5 7.59375 9.70312 -1 21.2031 -1
C30.7031 -1 38.2031 4.92188 42.4062 15.75
z

M9.90625 31
C11 38.7344 14.4062 42.4062 20.5 42.4062
C26.5938 42.4062 29 39.6094 30.2969 31
z
" id="Nimbus_Roman_No9_L_Regular-101"/>
       <path d="
M47.9062 5
L47.4062 5
C42.7969 5 41.7031 6.09375 41.7031 10.7031
L41.7031 45
L25.9062 45
L25.9062 43.0938
C32.0938 43.0938 33.2969 42.0938 33.2969 37.1094
L33.2969 13.6719
C33.2969 10.8906 32.7969 9.48438 31.4062 8.39062
C28.7031 6.20312 25.5938 5 22.5938 5
C18.7031 5 15.5 8.39062 15.5 12.5781
L15.5 45
L0.90625 45
L0.90625 43.4062
C5.70312 43.4062 7.09375 41.9062 7.09375 37.2969
L7.09375 12.0312
C7.09375 4.10938 11.9062 -1 19.2031 -1
C22.9062 -1 26.7969 0.59375 29.5 3.29688
L33.7969 7.59375
L33.7969 -0.703125
L34.2031 -0.90625
C39.2031 1.09375 42.7969 2.20312 47.9062 3.59375
z
" id="Nimbus_Roman_No9_L_Regular-117"/>
       <path d="
M1.59375 40.2969
C2.20312 40.5938 3.20312 40.7031 4.29688 40.7031
C7.09375 40.7031 8 39.2031 8 34.2969
L8 9.5
C8 3.79688 6.90625 2.40625 1.79688 2
L1.79688 0.5
L23 0.5
L23 2
C17.9062 2.40625 16.4062 3.59375 16.4062 7.20312
L16.4062 35.2969
C21.2031 39.7969 23.4062 41 26.7031 41
C31.5938 41 34 37.9062 34 31.2969
L34 10.4062
C34 4.09375 32.7031 2.40625 27.7031 2
L27.7031 0.5
L48.5 0.5
L48.5 2
C43.5938 2.5 42.4062 3.70312 42.4062 8.59375
L42.4062 31.5
C42.4062 40.9062 38 46.5 30.5938 46.5
C26 46.5 22.9062 44.7969 16.0938 38.4062
L16.0938 46.2969
L15.4062 46.5
C10.5 44.7031 7.09375 43.5938 1.59375 42
z
" id="Nimbus_Roman_No9_L_Regular-110"/>
       <path d="
M25 46
C12 46 2.90625 36.4062 2.90625 22.5938
C2.90625 9.09375 12.2031 -1 24.7969 -1
C37.4062 -1 47 9.59375 47 23.4062
C47 36.5 37.7969 46 25 46
M23.7031 43.2031
C32.0938 43.2031 38 33.5938 38 19.9062
C38 8.59375 33.5 1.79688 26 1.79688
C22.0938 1.79688 18.4062 4.20312 16.2969 8.20312
C13.5 13.4062 11.9062 20.4062 11.9062 27.5
C11.9062 37 16.5938 43.2031 23.7031 43.2031" id="Nimbus_Roman_No9_L_Regular-111"/>
      </defs>
      <g transform="translate(18.9531614835 201.895251515)scale(0.06 -0.06)">
       <use transform="scale(0.996264009963)" xlink:href="#Nimbus_Roman_No9_L_Regular-110"/>
       <use transform="translate(49.8132004981 0.0)scale(0.996264009963)" xlink:href="#Nimbus_Roman_No9_L_Regular-101"/>
       <use transform="translate(94.0467691956 0.0)scale(0.996264009963)" xlink:href="#Nimbus_Roman_No9_L_Regular-117"/>
       <use transform="translate(143.859969694 0.0)scale(0.996264009963)" xlink:href="#Nimbus_Roman_No9_L_Regular-114"/>
       <use transform="translate(177.035199423 0.0)scale(0.996264009963)" xlink:href="#Nimbus_Roman_No9_L_Regular-111"/>
       <use transform="translate(226.848399921 0.0)scale(0.996264009963)" xlink:href="#Nimbus_Roman_No9_L_Regular-110"/>
       <use transform="translate(276.661600419 0.0)scale(0.996264009963)" xlink:href="#Nimbus_Roman_No9_L_Regular-115"/>
      </g>
     </g>
    </g>
    <g id="xtick_2">
     <g id="line2d_8">
      <g>
       <use style="stroke:#000000;stroke-width:0.5;" x="51.6458892293" xlink:href="#m741efc42ff" y="183.68513856"/>
      </g>
     </g>
     <g id="text_2">
      <!-- 500 -->
      <defs>
       <path d="
M18.0938 59
L37.7031 59
C39.2969 59 39.7031 59.2031 40 59.9062
L43.7969 68.7969
L42.9062 69.5
C41.4062 67.4062 40.4062 66.9062 38.2969 66.9062
L17.4062 66.9062
L6.5 43.1094
C6.40625 42.9062 6.40625 42.8125 6.40625 42.6094
C6.40625 42.1094 6.79688 41.8125 7.59375 41.8125
C10.7969 41.8125 14.7969 41.1094 18.9062 39.7969
C30.4062 36.0781 35.7031 29.8438 35.7031 19.9062
C35.7031 10.25 29.5938 2.70312 21.7969 2.70312
C19.7969 2.70312 18.0938 3.40625 15.0938 5.625
C11.9062 7.9375 9.59375 8.9375 7.5 8.9375
C4.59375 8.9375 3.20312 7.73438 3.20312 5.21875
C3.20312 1.40625 7.90625 -1 15.4062 -1
C23.7969 -1 31 1.71875 36 6.84375
C40.5938 11.375 42.7031 17.0938 42.7031 24.7344
C42.7031 31.9688 40.7969 36.5938 35.7969 41.6094
C31.4062 46.0469 25.7031 48.3438 13.9062 50.4531
z
" id="Nimbus_Roman_No9_L_Regular-53"/>
      </defs>
      <g transform="translate(47.1627011844 195.737872935)scale(0.06 -0.06)">
       <use transform="scale(0.996264009963)" xlink:href="#Nimbus_Roman_No9_L_Regular-53"/>
       <use transform="translate(49.8132004981 0.0)scale(0.996264009963)" xlink:href="#Nimbus_Roman_No9_L_Regular-48"/>
       <use transform="translate(99.6264009963 0.0)scale(0.996264009963)" xlink:href="#Nimbus_Roman_No9_L_Regular-48"/>
      </g>
      <!-- neurons -->
      <g transform="translate(42.1834409761 201.895251515)scale(0.06 -0.06)">
       <use transform="scale(0.996264009963)" xlink:href="#Nimbus_Roman_No9_L_Regular-110"/>
       <use transform="translate(49.8132004981 0.0)scale(0.996264009963)" xlink:href="#Nimbus_Roman_No9_L_Regular-101"/>
       <use transform="translate(94.0467691956 0.0)scale(0.996264009963)" xlink:href="#Nimbus_Roman_No9_L_Regular-117"/>
       <use transform="translate(143.859969694 0.0)scale(0.996264009963)" xlink:href="#Nimbus_Roman_No9_L_Regular-114"/>
       <use transform="translate(177.035199423 0.0)scale(0.996264009963)" xlink:href="#Nimbus_Roman_No9_L_Regular-111"/>
       <use transform="translate(226.848399921 0.0)scale(0.996264009963)" xlink:href="#Nimbus_Roman_No9_L_Regular-110"/>
       <use transform="translate(276.661600419 0.0)scale(0.996264009963)" xlink:href="#Nimbus_Roman_No9_L_Regular-115"/>
      </g>
     </g>
    </g>
    <g id="xtick_3">
     <g id="line2d_9">
      <g>
       <use style="stroke:#000000;stroke-width:0.5;" x="80.6837385951" xlink:href="#m741efc42ff" y="183.68513856"/>
      </g>
     </g>
     <g id="text_3">
      <!-- 1000 -->
      <g transform="translate(74.7061545353 195.737872935)scale(0.06 -0.06)">
       <use transform="scale(0.996264009963)" xlink:href="#Nimbus_Roman_No9_L_Regular-49"/>
       <use transform="translate(49.8132004981 0.0)scale(0.996264009963)" xlink:href="#Nimbus_Roman_No9_L_Regular-48"/>
       <use transform="translate(99.6264009963 0.0)scale(0.996264009963)" xlink:href="#Nimbus_Roman_No9_L_Regular-48"/>
       <use transform="translate(149.439601494 0.0)scale(0.996264009963)" xlink:href="#Nimbus_Roman_No9_L_Regular-48"/>
      </g>
      <!-- neurons -->
      <g transform="translate(71.221290342 201.895251515)scale(0.06 -0.06)">
       <use transform="scale(0.996264009963)" xlink:href="#Nimbus_Roman_No9_L_Regular-110"/>
       <use transform="translate(49.8132004981 0.0)scale(0.996264009963)" xlink:href="#Nimbus_Roman_No9_L_Regular-101"/>
       <use transform="translate(94.0467691956 0.0)scale(0.996264009963)" xlink:href="#Nimbus_Roman_No9_L_Regular-117"/>
       <use transform="translate(143.859969694 0.0)scale(0.996264009963)" xlink:href="#Nimbus_Roman_No9_L_Regular-114"/>
       <use transform="translate(177.035199423 0.0)scale(0.996264009963)" xlink:href="#Nimbus_Roman_No9_L_Regular-111"/>
       <use transform="translate(226.848399921 0.0)scale(0.996264009963)" xlink:href="#Nimbus_Roman_No9_L_Regular-110"/>
       <use transform="translate(276.661600419 0.0)scale(0.996264009963)" xlink:href="#Nimbus_Roman_No9_L_Regular-115"/>
      </g>
     </g>
    </g>
    <g id="xtick_4">
     <g id="line2d_10">
      <g>
       <use style="stroke:#000000;stroke-width:0.5;" x="138.759437327" xlink:href="#m741efc42ff" y="183.68513856"/>
      </g>
     </g>
     <g id="text_4">
      <!-- 2000 -->
      <defs>
       <path d="
M47.5 13.6719
L46.2031 14.1719
C42.5 8.5 41.2031 7.59375 36.7031 7.59375
L12.7969 7.59375
L29.5938 25.1406
C38.5 34.4062 42.4062 41.9844 42.4062 49.7656
C42.4062 59.7344 34.2969 67.3906 23.9062 67.3906
C18.4062 67.3906 13.2031 65.2031 9.5 61.2188
C6.29688 57.8125 4.79688 54.625 3.09375 47.5469
L5.20312 47.0469
C9.20312 56.8125 12.7969 60 19.7031 60
C28.0938 60 33.7969 54.3125 33.7969 45.9375
C33.7969 38.1719 29.2031 28.9062 20.7969 20.0312
L3 1.20312
L3 0
L42 0
z
" id="Nimbus_Roman_No9_L_Regular-50"/>
      </defs>
      <g transform="translate(132.781853267 195.737872935)scale(0.06 -0.06)">
       <use transform="scale(0.996264009963)" xlink:href="#Nimbus_Roman_No9_L_Regular-50"/>
       <use transform="translate(49.8132004981 0.0)scale(0.996264009963)" xlink:href="#Nimbus_Roman_No9_L_Regular-48"/>
       <use transform="translate(99.6264009963 0.0)scale(0.996264009963)" xlink:href="#Nimbus_Roman_No9_L_Regular-48"/>
       <use transform="translate(149.439601494 0.0)scale(0.996264009963)" xlink:href="#Nimbus_Roman_No9_L_Regular-48"/>
      </g>
      <!-- neurons -->
      <g transform="translate(129.296989074 201.895251515)scale(0.06 -0.06)">
       <use transform="scale(0.996264009963)" xlink:href="#Nimbus_Roman_No9_L_Regular-110"/>
       <use transform="translate(49.8132004981 0.0)scale(0.996264009963)" xlink:href="#Nimbus_Roman_No9_L_Regular-101"/>
       <use transform="translate(94.0467691956 0.0)scale(0.996264009963)" xlink:href="#Nimbus_Roman_No9_L_Regular-117"/>
       <use transform="translate(143.859969694 0.0)scale(0.996264009963)" xlink:href="#Nimbus_Roman_No9_L_Regular-114"/>
       <use transform="translate(177.035199423 0.0)scale(0.996264009963)" xlink:href="#Nimbus_Roman_No9_L_Regular-111"/>
       <use transform="translate(226.848399921 0.0)scale(0.996264009963)" xlink:href="#Nimbus_Roman_No9_L_Regular-110"/>
       <use transform="translate(276.661600419 0.0)scale(0.996264009963)" xlink:href="#Nimbus_Roman_No9_L_Regular-115"/>
      </g>
     </g>
    </g>
   </g>
   <g id="matplotlib.axis_2">
    <g id="ytick_1">
     <g id="line2d_11">
      <defs>
       <path d="
M0 0
L4 0" id="m728421d6d4" style="stroke:#000000;stroke-width:0.5;"/>
      </defs>
      <g>
       <use style="stroke:#000000;stroke-width:0.5;" x="25.5118248" xlink:href="#m728421d6d4" y="183.68513856"/>
      </g>
     </g>
     <g id="text_5">
      <!-- $0$ -->
      <g transform="translate(18.5230327701 185.064457082)scale(0.06 -0.06)">
       <use transform="scale(0.996264009963)" xlink:href="#Nimbus_Roman_No9_L_Regular-48"/>
      </g>
     </g>
    </g>
    <g id="ytick_2">
     <g id="line2d_12">
      <g>
       <use style="stroke:#000000;stroke-width:0.5;" x="25.5118248" xlink:href="#m728421d6d4" y="157.309836613"/>
      </g>
     </g>
     <g id="text_6">
      <!-- $100$ -->
      <g transform="translate(12.5454487103 158.689155135)scale(0.06 -0.06)">
       <use transform="scale(0.996264009963)" xlink:href="#Nimbus_Roman_No9_L_Regular-49"/>
       <use transform="translate(49.8132004981 0.0)scale(0.996264009963)" xlink:href="#Nimbus_Roman_No9_L_Regular-48"/>
       <use transform="translate(99.6264009963 0.0)scale(0.996264009963)" xlink:href="#Nimbus_Roman_No9_L_Regular-48"/>
      </g>
     </g>
    </g>
    <g id="ytick_3">
     <g id="line2d_13">
      <g>
       <use style="stroke:#000000;stroke-width:0.5;" x="25.5118248" xlink:href="#m728421d6d4" y="130.934534666"/>
      </g>
     </g>
     <g id="text_7">
      <!-- $200$ -->
      <g transform="translate(12.5454487103 132.313853188)scale(0.06 -0.06)">
       <use transform="scale(0.996264009963)" xlink:href="#Nimbus_Roman_No9_L_Regular-50"/>
       <use transform="translate(49.8132004981 0.0)scale(0.996264009963)" xlink:href="#Nimbus_Roman_No9_L_Regular-48"/>
       <use transform="translate(99.6264009963 0.0)scale(0.996264009963)" xlink:href="#Nimbus_Roman_No9_L_Regular-48"/>
      </g>
     </g>
    </g>
    <g id="ytick_4">
     <g id="line2d_14">
      <g>
       <use style="stroke:#000000;stroke-width:0.5;" x="25.5118248" xlink:href="#m728421d6d4" y="104.559232719"/>
      </g>
     </g>
     <g id="text_8">
      <!-- $300$ -->
      <defs>
       <path d="
M15.2969 33.4062
C21.2031 33.4062 23.5 33.2031 25.9062 32.3125
C32.0938 30.1094 36 24.4062 36 17.5
C36 9.10938 30.2969 2.60938 22.9062 2.60938
C20.2031 2.60938 18.2031 3.3125 14.5 5.70312
C11.5 7.5 9.79688 8.20312 8.09375 8.20312
C5.79688 8.20312 4.29688 6.8125 4.29688 4.70312
C4.29688 1.20312 8.59375 -1 15.5938 -1
C23.2969 -1 31.2031 1.60938 35.9062 5.70312
C40.5938 9.8125 43.2031 15.6094 43.2031 22.3125
C43.2031 27.4062 41.5938 32.1094 38.7031 35.2031
C36.7031 37.4062 34.7969 38.6094 30.4062 40.5
C37.2969 45.2031 39.7969 48.9062 39.7969 54.3125
C39.7969 62.4062 33.4062 68 24.2031 68
C19.2031 68 14.7969 66.3125 11.2031 63.1094
C8.20312 60.4062 6.70312 57.7969 4.5 51.7969
L6 51.4062
C10.0938 58.7031 14.5938 62 20.9062 62
C27.4062 62 31.9062 57.6094 31.9062 51.3125
C31.9062 47.7031 30.4062 44.1094 27.9062 41.6094
C24.9062 38.6094 22.0938 37.1094 15.2969 34.7031
z
" id="Nimbus_Roman_No9_L_Regular-51"/>
      </defs>
      <g transform="translate(12.5454487103 105.938551241)scale(0.06 -0.06)">
       <use transform="scale(0.996264009963)" xlink:href="#Nimbus_Roman_No9_L_Regular-51"/>
       <use transform="translate(49.8132004981 0.0)scale(0.996264009963)" xlink:href="#Nimbus_Roman_No9_L_Regular-48"/>
       <use transform="translate(99.6264009963 0.0)scale(0.996264009963)" xlink:href="#Nimbus_Roman_No9_L_Regular-48"/>
      </g>
     </g>
    </g>
    <g id="ytick_5">
     <g id="line2d_15">
      <g>
       <use style="stroke:#000000;stroke-width:0.5;" x="25.5118248" xlink:href="#m728421d6d4" y="78.1839307717"/>
      </g>
     </g>
     <g id="text_9">
      <!-- $400$ -->
      <defs>
       <path d="
M47.2031 23
L37 23
L37 67.5938
L32.5938 67.5938
L1.20312 23
L1.20312 16.6094
L29.2969 16.6094
L29.2969 0
L37 0
L37 16.6094
L47.2031 16.6094
z

M29.2031 23
L5.20312 23
L29.2031 57.375
z
" id="Nimbus_Roman_No9_L_Regular-52"/>
      </defs>
      <g transform="translate(12.5454487103 79.563249294)scale(0.06 -0.06)">
       <use transform="scale(0.996264009963)" xlink:href="#Nimbus_Roman_No9_L_Regular-52"/>
       <use transform="translate(49.8132004981 0.0)scale(0.996264009963)" xlink:href="#Nimbus_Roman_No9_L_Regular-48"/>
       <use transform="translate(99.6264009963 0.0)scale(0.996264009963)" xlink:href="#Nimbus_Roman_No9_L_Regular-48"/>
      </g>
     </g>
    </g>
    <g id="ytick_6">
     <g id="line2d_16">
      <g>
       <use style="stroke:#000000;stroke-width:0.5;" x="25.5118248" xlink:href="#m728421d6d4" y="51.8086288246"/>
      </g>
     </g>
     <g id="text_10">
      <!-- $500$ -->
      <g transform="translate(12.5454487103 53.187947347)scale(0.06 -0.06)">
       <use transform="scale(0.996264009963)" xlink:href="#Nimbus_Roman_No9_L_Regular-53"/>
       <use transform="translate(49.8132004981 0.0)scale(0.996264009963)" xlink:href="#Nimbus_Roman_No9_L_Regular-48"/>
       <use transform="translate(99.6264009963 0.0)scale(0.996264009963)" xlink:href="#Nimbus_Roman_No9_L_Regular-48"/>
      </g>
     </g>
    </g>
    <g id="ytick_7">
     <g id="line2d_17">
      <g>
       <use style="stroke:#000000;stroke-width:0.5;" x="25.5118248" xlink:href="#m728421d6d4" y="25.4333268775"/>
      </g>
     </g>
     <g id="text_11">
      <!-- $600$ -->
      <defs>
       <path d="
M44.5938 68.6094
C33.2031 67.6094 27.4062 65.7188 20.0938 60.625
C9.29688 52.9531 3.40625 41.5781 3.40625 28.2344
C3.40625 19.5469 6.09375 10.7812 10.4062 5.79688
C14.2031 1.40625 19.5938 -1 25.7969 -1
C38.2031 -1 46.7969 8.45312 46.7969 22.2031
C46.7969 34.9375 39.5 43 28 43
C23.5938 43 21.5 42.2969 15.2031 38.5
C17.9062 53.6094 29.0938 64.4062 44.7969 67
z

M24.2031 38.4062
C32.7969 38.4062 37.7969 31.25 37.7969 18.8125
C37.7969 7.875 33.9062 1.8125 26.9062 1.8125
C18.0938 1.8125 12.7031 11.1562 12.7031 26.5625
C12.7031 31.6406 13.5 34.4219 15.5 35.9219
C17.5938 37.5 20.7031 38.4062 24.2031 38.4062" id="Nimbus_Roman_No9_L_Regular-54"/>
      </defs>
      <g transform="translate(12.5454487103 26.8126453999)scale(0.06 -0.06)">
       <use transform="scale(0.996264009963)" xlink:href="#Nimbus_Roman_No9_L_Regular-54"/>
       <use transform="translate(49.8132004981 0.0)scale(0.996264009963)" xlink:href="#Nimbus_Roman_No9_L_Regular-48"/>
       <use transform="translate(99.6264009963 0.0)scale(0.996264009963)" xlink:href="#Nimbus_Roman_No9_L_Regular-48"/>
      </g>
     </g>
    </g>
    <g id="text_12">
     <!-- Simulation time (s) -->
     <defs>
      <path d="
M1.90625 39.7969
C3.20312 40.0938 4 40.2031 5.09375 40.2031
C7.70312 40.2031 8.59375 38.5938 8.59375 33.7812
L8.59375 8.42188
C8.59375 3 7.20312 1.5 1.59375 1.5
L1.59375 0
L23.7969 0
L23.7969 1.5
C18.5 1.5 17 2.59375 17 6.53125
L17 34.875
C17 35.0625 17.7969 36.0625 18.5 36.7812
C21 39.0781 25.2969 40.7969 28.7969 40.7969
C33.2031 40.7969 35.4062 37.2656 35.4062 30.1875
L35.4062 8.25
C35.4062 2.60938 34.2969 1.5 28.5938 1.5
L28.5938 0
L51 0
L51 1.5
C45.2969 1.5 43.7969 3.20312 43.7969 9.42188
L43.7969 34.7031
C46.7969 39 50.0938 40.7969 54.7031 40.7969
C60.4062 40.7969 62.2031 38.0938 62.2031 29.7969
L62.2031 8.70312
C62.2031 3 61.4062 2.20312 55.5938 1.5
L55.5938 0
L77.5 0
L77.5 1.5
L74.9062 1.79688
C71.9062 1.79688 70.5938 3.59375 70.5938 7.5
L70.5938 28.1562
C70.5938 39.9844 66.7031 46 59 46
C53.2031 46 48.0938 43.4062 42.7031 37.6094
C40.9062 43.2969 37.5 46 32.0938 46
C27.7031 46 24.9062 44.5938 16.5938 38.2969
L16.5938 45.7969
L15.9062 46
C10.7969 44.0938 7.40625 43 1.90625 41.5
z
" id="Nimbus_Roman_No9_L_Regular-109"/>
      <path d="
M1.90625 62.5
L2.5 62.5
C3.59375 62.5 4.79688 62.5 5.59375 62.5
C8.79688 62.5 9.79688 61.0938 9.79688 56.4062
L9.79688 8.70312
C9.79688 3.29688 8.40625 2 2.09375 1.5
L2.09375 0
L25.7031 0
L25.7031 1.70312
C19.4062 1.70312 18.2031 2.70312 18.2031 8.25
L18.2031 68.2969
L17.7969 68.5
C12.5938 66.7969 8.79688 65.7969 1.90625 64.1094
z
" id="Nimbus_Roman_No9_L_Regular-108"/>
      <path d="
M25.5 45
L15.4062 45
L15.4062 56.6719
C15.4062 57.6875 15.2969 58 14.7031 58
C14 57.0938 13.4062 56.1719 12.7031 55.1719
C8.90625 49.6406 4.59375 44.8125 3 44.4219
C1.90625 43.7188 1.29688 43 1.29688 42.5
C1.29688 42.2031 1.40625 42 1.70312 41.7969
L7 41.7969
L7 11.7031
C7 3.29688 10 -1 15.9062 -1
C20.7969 -1 24.5938 1.40625 27.9062 6.60938
L26.5938 7.70312
C24.5 5.20312 22.7969 4.20312 20.5938 4.20312
C16.9062 4.20312 15.4062 6.90625 15.4062 13.2031
L15.4062 41.7969
L25.5 41.7969
z
" id="Nimbus_Roman_No9_L_Regular-116"/>
      <path d="
M17.5 45.7656
L2 40.2969
L2 38.8125
L2.79688 38.9062
C4 39.0938 5.29688 39.2031 6.20312 39.2031
C8.59375 39.2031 9.5 37.5938 9.5 33.2031
L9.5 10
C9.5 2.79688 8.5 1.70312 1.59375 1.70312
L1.59375 0
L25.2969 0
L25.2969 1.5
C18.7031 2 17.9062 2.98438 17.9062 10.1562
L17.9062 45.4688
z

M12.7969 68
C10.0938 68 7.79688 65.7031 7.79688 62.9062
C7.79688 60.1094 10 57.7969 12.7969 57.7969
C15.7031 57.7969 18 60 18 62.9062
C18 65.7031 15.7031 68 12.7969 68" id="Nimbus_Roman_No9_L_Regular-105"/>
      <path d="
M44.7031 68
L42.5938 68
C42.2031 65.7031 41.0938 64.6094 39.4062 64.6094
C38.4062 64.6094 36.7031 65 35 65.8125
C31.2969 67.2031 27.5938 68 24.4062 68
C20.0938 68 15.7031 66.3125 12.4062 63.4062
C8.90625 60.2969 7.09375 56.0938 7.09375 50.875
C7.09375 42.8594 11.5 37.2656 22.7031 31.3438
C29.9062 27.5469 35.0938 23.4219 37.5938 19.625
C38.5 18.3281 39 16.2188 39 13.8125
C39 7.09375 34 2.5 26.7031 2.5
C17.7969 2.5 11.5 8.01562 6.5 20.25
L4.20312 20.25
L7.20312 -1
L9.40625 -1
C9.5 0.890625 10.7031 2.29688 12.2031 2.29688
C13.2969 2.29688 15 1.90625 16.9062 1.23438
C20.7031 -0.21875 24.7031 -1 28.7031 -1
C40.2031 -1 49.0938 6.90625 49.0938 17.2031
C49.0938 25.4062 43.5938 31.9062 30.4062 39
C19.9062 44.8125 15.7031 49.2031 15.7031 54.6094
C15.7031 60.1094 19.9062 63.9062 26.0938 63.9062
C30.5938 63.9062 34.7969 62 38.2969 58.4062
C41.4062 55.2031 42.7969 52.6094 44.4062 46.7031
L46.9062 46.7031
z
" id="Nimbus_Roman_No9_L_Regular-83"/>
      <path d="
M3.79688 -17.7031
C11.2031 -12.9062 14.2031 -10.2969 17.9062 -5.70312
C25 3 28.5 13 28.5 24.7031
C28.5 37.5 24.7969 47.2031 16 57.4062
C11.9062 62.2031 9.29688 64.4062 4.09375 67.5938
L2.90625 66
C10.9062 59.7031 13.5938 56.2031 16.4062 48.7031
C18.7969 42 19.9062 34.4062 19.9062 24.4062
C19.9062 14 18.5938 5.70312 15.9062 -0.40625
C13.0938 -6.70312 10.0938 -10.2969 2.90625 -16.0938
z
" id="Nimbus_Roman_No9_L_Regular-41"/>
      <path d="
M44.2031 6.60938
C42.5 5.20312 41.2969 4.70312 39.7969 4.70312
C37.5 4.70312 36.7969 6.09375 36.7969 10.5
L36.7969 30
C36.7969 35.2031 36.2969 38.0938 34.7969 40.5
C32.5938 44.0938 28.2969 46 22.4062 46
C13 46 5.59375 41.0938 5.59375 34.7969
C5.59375 32.5 7.59375 30.5 9.90625 30.5
C12.2969 30.5 14.4062 32.5 14.4062 34.7031
C14.4062 35.0938 14.2969 35.5938 14.2031 36.2969
C14 37.2031 13.9062 38 13.9062 38.7031
C13.9062 41.4062 17.0938 43.5938 21.0938 43.5938
C26 43.5938 28.7031 40.7031 28.7031 35.2969
L28.7031 29.2031
C13.2969 23 11.5938 22.2031 7.29688 18.4062
C5.09375 16.4062 3.70312 13 3.70312 9.70312
C3.70312 3.40625 8.09375 -1 14.2031 -1
C18.5938 -1 22.7031 1.09375 28.7969 6.29688
C29.2969 1.09375 31.0938 -1 35.2031 -1
C38.5938 -1 40.7031 0.203125 44.2031 4
z

M28.7031 12.2344
C28.7031 9.125 28.2031 8.21875 26.0938 7.01562
C23.7031 5.60938 20.9062 4.70312 18.7969 4.70312
C15.2969 4.70312 12.5 8.125 12.5 12.4375
L12.5 12.8438
C12.5 18.7656 16.5938 22.3906 28.7031 26.7969
z
" id="Nimbus_Roman_No9_L_Regular-97"/>
      <path d="
M29.5 67.5938
C22.0938 62.7969 19.0938 60.2031 15.4062 55.5938
C8.29688 46.9062 4.79688 36.9062 4.79688 25.2031
C4.79688 12.5 8.5 2.70312 17.2969 -7.5
C21.4062 -12.2969 24 -14.5 29.2031 -17.7031
L30.4062 -16.0938
C22.4062 -9.79688 19.5938 -6.29688 16.9062 1.20312
C14.5 7.90625 13.4062 15.5 13.4062 25.5
C13.4062 36 14.7031 44.2031 17.4062 50.4062
C20.2031 56.5938 23.2031 60.2031 30.4062 66
z
" id="Nimbus_Roman_No9_L_Regular-40"/>
     </defs>
     <g transform="translate(6.25135138001 121.047474358)rotate(-90.0)scale(0.06 -0.06)">
      <use transform="scale(0.996264009963)" xlink:href="#Nimbus_Roman_No9_L_Regular-83"/>
      <use transform="translate(55.3916769633 0.0)scale(0.996264009963)" xlink:href="#Nimbus_Roman_No9_L_Regular-105"/>
      <use transform="translate(83.0868465666 0.0)scale(0.996264009963)" xlink:href="#Nimbus_Roman_No9_L_Regular-109"/>
      <use transform="translate(160.595216668 0.0)scale(0.996264009963)" xlink:href="#Nimbus_Roman_No9_L_Regular-117"/>
      <use transform="translate(210.408417166 0.0)scale(0.996264009963)" xlink:href="#Nimbus_Roman_No9_L_Regular-108"/>
      <use transform="translate(238.103586769 0.0)scale(0.996264009963)" xlink:href="#Nimbus_Roman_No9_L_Regular-97"/>
      <use transform="translate(282.337155467 0.0)scale(0.996264009963)" xlink:href="#Nimbus_Roman_No9_L_Regular-116"/>
      <use transform="translate(310.03232507 0.0)scale(0.996264009963)" xlink:href="#Nimbus_Roman_No9_L_Regular-105"/>
      <use transform="translate(337.727494673 0.0)scale(0.996264009963)" xlink:href="#Nimbus_Roman_No9_L_Regular-111"/>
      <use transform="translate(387.540695171 0.0)scale(0.996264009963)" xlink:href="#Nimbus_Roman_No9_L_Regular-110"/>
      <use transform="translate(462.260495919 0.0)scale(0.996264009963)" xlink:href="#Nimbus_Roman_No9_L_Regular-116"/>
      <use transform="translate(489.955665522 0.0)scale(0.996264009963)" xlink:href="#Nimbus_Roman_No9_L_Regular-105"/>
      <use transform="translate(517.650835125 0.0)scale(0.996264009963)" xlink:href="#Nimbus_Roman_No9_L_Regular-109"/>
      <use transform="translate(595.159205226 0.0)scale(0.996264009963)" xlink:href="#Nimbus_Roman_No9_L_Regular-101"/>
      <use transform="translate(664.299374173 0.0)scale(0.996264009963)" xlink:href="#Nimbus_Roman_No9_L_Regular-40"/>
      <use transform="translate(697.474603902 0.0)scale(0.996264009963)" xlink:href="#Nimbus_Roman_No9_L_Regular-115"/>
      <use transform="translate(736.228310097 0.0)scale(0.996264009963)" xlink:href="#Nimbus_Roman_No9_L_Regular-41"/>
     </g>
    </g>
   </g>
   <g id="patch_4">
    <path d="
M25.5118 183.685
L144.567 183.685" style="fill:none;stroke:#000000;"/>
   </g>
   <g id="patch_5">
    <path d="
M25.5118 183.685
L25.5118 12.2457" style="fill:none;stroke:#000000;"/>
   </g>
   <g id="text_13">
    <!-- Brian -->
    <defs>
     <path d="
M1.70312 66
L1.70312 63.7969
C10.0938 63.7969 11.2969 62.7031 11.2969 55.2656
L11.2969 10.7344
C11.2969 3.29688 10 2 1.70312 2
L1.70312 0
L35.0938 0
C42.9062 0 50 2.125 53.7031 5.5625
C57.2969 8.8125 59.2969 13.3594 59.2969 18.2031
C59.2969 22.6719 57.5 26.7188 54.4062 29.6406
C51.4062 32.375 48.7031 33.5938 42.2031 35.2031
C47.4062 36.4688 49.5 37.4531 51.9062 39.5312
C54.4062 41.6875 55.9062 45.2969 55.9062 49.3281
C55.9062 60.3125 47 66 29.7031 66
z

M21.5 33
C31.2031 33 35.7969 32.5 39.4062 30.9688
C45.0938 28.5469 47.7969 24.5 47.7969 18.1094
C47.7969 12.6406 45.7031 8.67188 41.7031 6.34375
C38.5 4.53125 34.4062 3.71875 27.7969 3.71875
C22.9062 3.71875 21.5 4.625 21.5 7.875
z

M21.5 37
L21.5 59.375
C21.5 61.4062 22.2031 62.2969 23.7031 62.2969
L28.0938 62.2969
C39.5938 62.2969 45.7031 57.6094 45.7031 48.9219
C45.7031 41.2969 40.4062 37 31 37
z
" id="Nimbus_Roman_No9_L_Regular-66"/>
    </defs>
    <g style="fill:#238b45;" transform="translate(84.168280519 36.4596245007)scale(0.072 -0.072)">
     <use transform="scale(0.996264009963)" xlink:href="#Nimbus_Roman_No9_L_Regular-66"/>
     <use transform="translate(66.4500311333 0.0)scale(0.996264009963)" xlink:href="#Nimbus_Roman_No9_L_Regular-114"/>
     <use transform="translate(99.6252608626 0.0)scale(0.996264009963)" xlink:href="#Nimbus_Roman_No9_L_Regular-105"/>
     <use transform="translate(127.320430466 0.0)scale(0.996264009963)" xlink:href="#Nimbus_Roman_No9_L_Regular-97"/>
     <use transform="translate(171.553999163 0.0)scale(0.996264009963)" xlink:href="#Nimbus_Roman_No9_L_Regular-110"/>
    </g>
   </g>
   <g id="text_14">
    <!-- NEST -->
    <defs>
     <path d="
M59.7031 16.8438
L56.9062 16.8438
C51.9062 6.07812 47.5938 3.70312 33.2969 3.70312
L30.5938 3.70312
C25.7031 3.70312 21.5 4.20312 20.7969 4.92188
C20.2969 5.21875 20.0938 6.3125 20.0938 8.03125
L20.0938 32.9062
L35.5 32.9062
C43.7031 32.9062 45.2031 31.5625 46.5 23
L48.7969 23
L48.7969 46.2031
L46.5 46.2031
C45.7969 42.2344 45.4062 40.7812 44.2969 39.4219
C43 37.7656 40.2031 37 35.5 37
L20.0938 37
L20.0938 58.8438
C20.0938 61.6094 20.7031 62.2031 23.4062 62.2031
L36.9062 62.2031
C48.2031 62.2031 50.4062 60.7188 52.0938 51.7812
L54.5938 51.7812
L54.2969 66
L1.20312 66
L1.20312 64.0938
C8.59375 63.5 9.90625 62.0938 9.90625 55.0781
L9.90625 10.6094
C9.90625 3.59375 8.5 2.09375 1.20312 2.09375
L1.20312 0
L55.2031 0
z
" id="Nimbus_Roman_No9_L_Regular-69"/>
     <path d="
M61.2031 -1
L61.2031 51.3594
C61.2031 57.3281 62.2031 61.0156 64.0938 62.3125
C65.5 63.2969 66.9062 63.7031 70.7031 64.0938
L70.7031 66
L47.2031 66
L47.2031 64.0938
C51 63.7969 52.4062 63.3906 53.9062 62.5
C55.9062 61.1094 56.7969 57.5156 56.7969 51.3438
L56.7969 17.75
L18.2969 66
L1.20312 66
L1.20312 64.0938
C5.5 64.0938 6.90625 63.2969 10.9062 58.6094
L10.9062 14.6562
C10.9062 4.39062 9.5 2.48438 1.20312 1.89062
L1.20312 0
L24.7031 0
L24.7031 2.09375
C17 2.09375 15.2969 4.39062 15.2969 14.5
L15.2969 53.7344
L59.5 -1
z
" id="Nimbus_Roman_No9_L_Regular-78"/>
     <path d="
M25.4062 62
L25.4062 11.7344
C25.4062 3.1875 24.2969 2.09375 16 2.09375
L16 0
L45.2031 0
L45.2031 2.09375
C37 2.09375 35.5938 3.39062 35.5938 10.7344
L35.5938 62
L41 62
C52.4062 62 54.5938 60.2031 56.9062 49.2031
L59.2969 49.2031
L58.7031 66.2031
L2.29688 66.2031
L1.70312 49.2031
L4.09375 49.2031
C6.5 60.0938 8.79688 62 20 62
z
" id="Nimbus_Roman_No9_L_Regular-84"/>
    </defs>
    <g style="fill:#ff7f00;" transform="translate(142.243979251 26.8514283623)scale(0.072 -0.072)">
     <use transform="scale(0.996264009963)" xlink:href="#Nimbus_Roman_No9_L_Regular-78"/>
     <use transform="translate(71.9299848469 0.0)scale(0.996264009963)" xlink:href="#Nimbus_Roman_No9_L_Regular-69"/>
     <use transform="translate(132.801615524 0.0)scale(0.996264009963)" xlink:href="#Nimbus_Roman_No9_L_Regular-83"/>
     <use transform="translate(188.193292487 0.0)scale(0.996264009963)" xlink:href="#Nimbus_Roman_No9_L_Regular-84"/>
    </g>
   </g>
   <g id="text_15">
    <!-- Lorenz attractor benchmarks -->
    <defs>
     <path d="
M41.7969 13.5
L40 13.9062
C39 8.90625 38.4062 7.29688 37.0938 5.59375
C35.7031 3.90625 32.2969 3 27.2031 3
L13.4062 3
L40.2969 43.5
L40.2969 45
L5.59375 45
L5.29688 33.2031
L7.09375 33.2031
C8 40.5 9.5 42 15.5 42
L29.2969 42
L2.70312 1.5
L2.70312 0
L40.4062 0
z
" id="Nimbus_Roman_No9_L_Regular-122"/>
     <path d="
M0.703125 62.2969
C2 62.4062 2.90625 62.5 3.90625 62.5
C7.20312 62.5 8.20312 61.2031 8.20312 56.4062
L8.20312 8.20312
C8.20312 3 7.90625 2.70312 0.703125 1.5
L0.703125 0
L24.0938 0
L24.0938 1.59375
L22.0938 1.59375
C18.0938 1.59375 16.5938 3.01562 16.5938 6.54688
L16.5938 25.0938
L30.5938 6.48438
L30.9062 6.07812
C31.0938 5.78125 31.2969 5.48438 31.5938 5.17188
C32.4062 4.17188 32.7031 3.57812 32.7031 3.09375
C32.7031 2.1875 31.7969 1.59375 30.5938 1.59375
L28.7031 1.59375
L28.7031 0
L50.5 0
L50.5 1.59375
C46.0938 1.59375 43 3.51562 38.7969 8.64062
L23.5 28.2031
L26.4062 30.9062
C33.5 37.5 39.7031 42.0938 42.5938 42.9062
C44.0938 43.2969 45.5 43.5 47.2031 43.5
L48 43.5
L48 45
L27.5938 45
L27.5938 43.5
C31.5 43.5 32.5938 43.0938 32.5938 41.7031
C32.5938 40.9062 31.7031 39.5 30.2969 38.2969
L16.5938 26.0938
L16.5938 68.0938
L16.2031 68.2969
C12.4062 67.0938 9.5 66.2969 3.70312 64.7031
L0.703125 63.9062
z
" id="Nimbus_Roman_No9_L_Regular-107"/>
     <path d="
M15.7031 34.7188
C19.9062 39.3125 22.9062 41 26.7969 41
C31.7969 41 34.2969 37.4219 34.2969 30.4375
L34.2969 10.6875
C34.2969 3.90625 33.2969 2.59375 27.5 2
L27.5 0.5
L48.7031 0.5
L48.7031 2
C43.2969 3 42.7031 3.79688 42.7031 10.6875
L42.7031 30.5312
C42.7031 41.0156 38.5 46.4062 30.4062 46.4062
C24.5 46.4062 20.2969 44 15.7031 38
L15.7031 68.5938
L15.2031 68.8906
C11.7969 67.6875 9.29688 66.8906 3.70312 65.2969
L1 64.5
L1 62.9062
C1.40625 63 1.70312 63 2.20312 63
C6.5 63 7.29688 62.1875 7.29688 57.875
L7.29688 10.7188
C7.29688 3.70312 6.70312 2.79688 0.90625 2
L0.90625 0.5
L22.5 0.5
L22.5 2
C16.7031 2.59375 15.7031 3.79688 15.7031 10.6875
z
" id="Nimbus_Roman_No9_L_Regular-104"/>
     <path d="
M57.2969 17.4062
C55.5938 13.5938 54.2031 11.2969 52.7031 9.59375
C49.2031 5.70312 43.7031 3.90625 35.4062 3.90625
L28.7031 3.90625
C21.4062 3.90625 20.0938 4.5 20.0938 8.01562
L20.0938 55.4688
C20.0938 62.6094 21.5 64 29.4062 64
L29.4062 66.2031
L1.20312 66.2031
L1.20312 64.2969
C8.59375 63.7031 9.90625 62.2812 9.90625 55.25
L9.90625 10.6406
C9.90625 3.59375 8.5 2.09375 1.20312 2.09375
L1.20312 0
L55 0
L59.7969 17.4062
z
" id="Nimbus_Roman_No9_L_Regular-76"/>
     <path d="
M39.7969 15.6094
C35 8.59375 31.4062 6.20312 25.7031 6.20312
C16.5938 6.20312 10.2031 14.2031 10.2031 25.7031
C10.2031 36 15.7031 43.0938 23.7969 43.0938
C27.4062 43.0938 28.7031 42 29.7031 38.2969
L30.2969 36.0938
C31.0938 33.2969 32.9062 31.5 35 31.5
C37.5938 31.5 39.7969 33.4062 39.7969 35.7031
C39.7969 41.2969 32.7969 46 24.4062 46
C19.5 46 14.4062 44 10.2969 40.4062
C5.29688 36 2.5 29.2031 2.5 21.2969
C2.5 8.29688 10.4062 -1 21.5 -1
C26 -1 30 0.59375 33.5938 3.70312
C36.2969 6.09375 38.2031 8.79688 41.2031 14.7031
z
" id="Nimbus_Roman_No9_L_Regular-99"/>
     <path d="
M15.2969 68.1875
L14.7969 68.3906
C10.5938 66.8906 7.90625 66.0938 3.20312 64.7969
L0.296875 64
L0.296875 62.4062
C0.90625 62.5 1.29688 62.5 2 62.5
C6 62.5 6.90625 61.5938 6.90625 57.3906
L6.90625 5.42188
C6.90625 2.29688 15.4062 -1 23.4062 -1
C36.5938 -1 46.7969 10 46.7969 24.2969
C46.7969 36.5938 39.2031 46 29.2031 46
C23.0938 46 17.2969 42.4062 15.2969 37.5
z

M15.2969 32.2031
C15.2969 36.0938 20 39.7031 25.2031 39.7031
C33 39.7031 38 31.9062 38 19.7031
C38 8.59375 33.2031 2.20312 25 2.20312
C19.7969 2.20312 15.2969 4.5 15.2969 7
z
" id="Nimbus_Roman_No9_L_Regular-98"/>
    </defs>
    <g transform="translate(43.8089518105 7.245675904)scale(0.072 -0.072)">
     <use transform="scale(0.996264009963)" xlink:href="#Nimbus_Roman_No9_L_Regular-76"/>
     <use transform="translate(60.871630677 0.0)scale(0.996264009963)" xlink:href="#Nimbus_Roman_No9_L_Regular-111"/>
     <use transform="translate(110.684831175 0.0)scale(0.996264009963)" xlink:href="#Nimbus_Roman_No9_L_Regular-114"/>
     <use transform="translate(143.860060904 0.0)scale(0.996264009963)" xlink:href="#Nimbus_Roman_No9_L_Regular-101"/>
     <use transform="translate(188.093629602 0.0)scale(0.996264009963)" xlink:href="#Nimbus_Roman_No9_L_Regular-110"/>
     <use transform="translate(237.9068301 0.0)scale(0.996264009963)" xlink:href="#Nimbus_Roman_No9_L_Regular-122"/>
     <use transform="translate(307.046999047 0.0)scale(0.996264009963)" xlink:href="#Nimbus_Roman_No9_L_Regular-97"/>
     <use transform="translate(351.280567744 0.0)scale(0.996264009963)" xlink:href="#Nimbus_Roman_No9_L_Regular-116"/>
     <use transform="translate(378.975737347 0.0)scale(0.996264009963)" xlink:href="#Nimbus_Roman_No9_L_Regular-116"/>
     <use transform="translate(406.67090695 0.0)scale(0.996264009963)" xlink:href="#Nimbus_Roman_No9_L_Regular-114"/>
     <use transform="translate(439.84613668 0.0)scale(0.996264009963)" xlink:href="#Nimbus_Roman_No9_L_Regular-97"/>
     <use transform="translate(484.079705377 0.0)scale(0.996264009963)" xlink:href="#Nimbus_Roman_No9_L_Regular-99"/>
     <use transform="translate(528.313274075 0.0)scale(0.996264009963)" xlink:href="#Nimbus_Roman_No9_L_Regular-116"/>
     <use transform="translate(556.008443678 0.0)scale(0.996264009963)" xlink:href="#Nimbus_Roman_No9_L_Regular-111"/>
     <use transform="translate(605.821644176 0.0)scale(0.996264009963)" xlink:href="#Nimbus_Roman_No9_L_Regular-114"/>
     <use transform="translate(663.903474155 0.0)scale(0.996264009963)" xlink:href="#Nimbus_Roman_No9_L_Regular-98"/>
     <use transform="translate(713.716674653 0.0)scale(0.996264009963)" xlink:href="#Nimbus_Roman_No9_L_Regular-101"/>
     <use transform="translate(757.95024335 0.0)scale(0.996264009963)" xlink:href="#Nimbus_Roman_No9_L_Regular-110"/>
     <use transform="translate(807.763443848 0.0)scale(0.996264009963)" xlink:href="#Nimbus_Roman_No9_L_Regular-99"/>
     <use transform="translate(851.997012546 0.0)scale(0.996264009963)" xlink:href="#Nimbus_Roman_No9_L_Regular-104"/>
     <use transform="translate(901.810213044 0.0)scale(0.996264009963)" xlink:href="#Nimbus_Roman_No9_L_Regular-109"/>
     <use transform="translate(979.318583145 0.0)scale(0.996264009963)" xlink:href="#Nimbus_Roman_No9_L_Regular-97"/>
     <use transform="translate(1023.55215184 0.0)scale(0.996264009963)" xlink:href="#Nimbus_Roman_No9_L_Regular-114"/>
     <use transform="translate(1056.72738157 0.0)scale(0.996264009963)" xlink:href="#Nimbus_Roman_No9_L_Regular-107"/>
     <use transform="translate(1106.54058207 0.0)scale(0.996264009963)" xlink:href="#Nimbus_Roman_No9_L_Regular-115"/>
    </g>
   </g>
  </g>
  <g id="axes_2">
   <g id="patch_6">
    <path d="
M110.808 166.574
L158.575 166.574
L158.575 58.1055
L110.808 58.1055
z
" style="fill:#ffffff;"/>
   </g>
   <g id="patch_7">
    <path d="
M110.808 166.574
L138.469 184.213" style="fill:none;stroke:#808080;"/>
   </g>
   <g id="patch_8">
    <path d="
M158.575 166.574
L141.199 184.213" style="fill:none;stroke:#808080;"/>
   </g>
   <g id="line2d_18">
    <path clip-path="url(#p7f0f6dd769)" d="
M-1815.13 -33.395" style="fill:none;stroke:#238b45;stroke-linecap:square;"/>
    <g clip-path="url(#p7f0f6dd769)">
     <use style="fill:#238b45;stroke:#238b45;stroke-width:0.5;" x="-1815.127731" xlink:href="#m49b4907c93" y="-33.3950116298"/>
     <use style="fill:#238b45;stroke:#238b45;stroke-width:0.5;" x="-1408.59783988" xlink:href="#m49b4907c93" y="-934.391100844"/>
     <use style="fill:#238b45;stroke:#238b45;stroke-width:0.5;" x="-900.435475973" xlink:href="#m49b4907c93" y="-2448.06975608"/>
     <use style="fill:#238b45;stroke:#238b45;stroke-width:0.5;" x="115.889251832" xlink:href="#m49b4907c93" y="-6612.1006283"/>
    </g>
   </g>
   <g id="line2d_19">
    <path clip-path="url(#p7f0f6dd769)" d="
M-1815.13 46.9139" style="fill:none;stroke:#ff7f00;stroke-linecap:square;"/>
    <g clip-path="url(#p7f0f6dd769)">
     <use style="fill:#ff7f00;stroke:#ff7f00;stroke-width:0.5;" x="-1815.127731" xlink:href="#mac148a8bc8" y="46.9139247946"/>
     <use style="fill:#ff7f00;stroke:#ff7f00;stroke-width:0.5;" x="-1408.59783988" xlink:href="#mac148a8bc8" y="-1114.8425547"/>
     <use style="fill:#ff7f00;stroke:#ff7f00;stroke-width:0.5;" x="-900.435475973" xlink:href="#mac148a8bc8" y="-891.513117559"/>
     <use style="fill:#ff7f00;stroke:#ff7f00;stroke-width:0.5;" x="115.889251832" xlink:href="#mac148a8bc8" y="-2616.21318851"/>
    </g>
   </g>
   <g id="line2d_20">
    <path clip-path="url(#p7f0f6dd769)" d="
M-1815.13 155.521
M-1 69.2528
L115.889 63.3962" style="fill:none;stroke:#984ea3;stroke-linecap:square;"/>
    <g clip-path="url(#p7f0f6dd769)">
     <use style="fill:#984ea3;stroke:#984ea3;stroke-width:0.5;" x="-1815.127731" xlink:href="#m6fcbe3cf07" y="155.520545398"/>
     <use style="fill:#984ea3;stroke:#984ea3;stroke-width:0.5;" x="-1408.59783988" xlink:href="#m6fcbe3cf07" y="143.647489143"/>
     <use style="fill:#984ea3;stroke:#984ea3;stroke-width:0.5;" x="-900.435475973" xlink:href="#m6fcbe3cf07" y="114.317763581"/>
     <use style="fill:#984ea3;stroke:#984ea3;stroke-width:0.5;" x="115.889251832" xlink:href="#m6fcbe3cf07" y="63.3961822232"/>
    </g>
   </g>
   <g id="line2d_21">
    <path clip-path="url(#p7f0f6dd769)" d="
M-1815.13 142.242
M-1 91.1004
L115.889 87.4991" style="fill:none;stroke:#000000;stroke-linecap:square;"/>
    <g clip-path="url(#p7f0f6dd769)">
     <use style="stroke:#000000;stroke-width:0.5;" x="-1815.127731" xlink:href="#m76eb5f4da3" y="142.241963483"/>
     <use style="stroke:#000000;stroke-width:0.5;" x="-1408.59783988" xlink:href="#m76eb5f4da3" y="131.944386247"/>
     <use style="stroke:#000000;stroke-width:0.5;" x="-900.435475973" xlink:href="#m76eb5f4da3" y="118.811859809"/>
     <use style="stroke:#000000;stroke-width:0.5;" x="115.889251832" xlink:href="#m76eb5f4da3" y="87.4991010472"/>
    </g>
   </g>
   <g id="line2d_22">
    <path clip-path="url(#p7f0f6dd769)" d="
M-1815.13 152.334
M-1 147.528
L115.889 147.228" style="fill:none;stroke:#e41a1c;stroke-linecap:square;"/>
    <g clip-path="url(#p7f0f6dd769)">
     <use style="fill:#e41a1c;stroke:#e41a1c;stroke-width:0.5;" x="-1815.127731" xlink:href="#m313d082634" y="152.333980768"/>
     <use style="fill:#e41a1c;stroke:#e41a1c;stroke-width:0.5;" x="-1408.59783988" xlink:href="#m313d082634" y="151.055121962"/>
     <use style="fill:#e41a1c;stroke:#e41a1c;stroke-width:0.5;" x="-900.435475973" xlink:href="#m313d082634" y="149.835500438"/>
     <use style="fill:#e41a1c;stroke:#e41a1c;stroke-width:0.5;" x="115.889251832" xlink:href="#m313d082634" y="147.227708882"/>
    </g>
   </g>
   <g id="line2d_23">
    <path clip-path="url(#p7f0f6dd769)" d="
M-1815.13 153.532
M-1 149.591
L115.889 149.347" style="fill:none;stroke:#08519c;stroke-linecap:square;"/>
    <g clip-path="url(#p7f0f6dd769)">
     <use style="fill:#08519c;stroke:#08519c;stroke-width:0.5;" x="-1815.127731" xlink:href="#m5c4ea31fe1" y="153.531964101"/>
     <use style="fill:#08519c;stroke:#08519c;stroke-width:0.5;" x="-1408.59783988" xlink:href="#m5c4ea31fe1" y="152.513932717"/>
     <use style="fill:#08519c;stroke:#08519c;stroke-width:0.5;" x="-900.435475973" xlink:href="#m5c4ea31fe1" y="151.469641416"/>
     <use style="fill:#08519c;stroke:#08519c;stroke-width:0.5;" x="115.889251832" xlink:href="#m5c4ea31fe1" y="149.346846949"/>
    </g>
   </g>
   <g id="matplotlib.axis_3"/>
   <g id="matplotlib.axis_4">
    <g id="ytick_8">
     <g id="line2d_24">
      <defs>
       <path d="
M0 0
L-4 0" id="mcb0005524f" style="stroke:#000000;stroke-width:0.5;"/>
      </defs>
      <g>
       <use style="stroke:#000000;stroke-width:0.5;" x="158.5748904" xlink:href="#mcb0005524f" y="157.342615144"/>
      </g>
     </g>
     <g id="text_16">
      <!-- $0$ -->
      <g transform="translate(162.5748904 158.721933666)scale(0.06 -0.06)">
       <use transform="scale(0.996264009963)" xlink:href="#Nimbus_Roman_No9_L_Regular-48"/>
      </g>
     </g>
    </g>
    <g id="ytick_9">
     <g id="line2d_25">
      <g>
       <use style="stroke:#000000;stroke-width:0.5;" x="158.5748904" xlink:href="#mcb0005524f" y="134.26422594"/>
      </g>
     </g>
     <g id="text_17">
      <!-- $5$ -->
      <g transform="translate(162.5748904 135.643544463)scale(0.06 -0.06)">
       <use transform="scale(0.996264009963)" xlink:href="#Nimbus_Roman_No9_L_Regular-53"/>
      </g>
     </g>
    </g>
    <g id="ytick_10">
     <g id="line2d_26">
      <g>
       <use style="stroke:#000000;stroke-width:0.5;" x="158.5748904" xlink:href="#mcb0005524f" y="111.185836736"/>
      </g>
     </g>
     <g id="text_18">
      <!-- $10$ -->
      <g transform="translate(162.5748904 112.565155259)scale(0.06 -0.06)">
       <use transform="scale(0.996264009963)" xlink:href="#Nimbus_Roman_No9_L_Regular-49"/>
       <use transform="translate(49.8132004981 0.0)scale(0.996264009963)" xlink:href="#Nimbus_Roman_No9_L_Regular-48"/>
      </g>
     </g>
    </g>
    <g id="ytick_11">
     <g id="line2d_27">
      <g>
       <use style="stroke:#000000;stroke-width:0.5;" x="158.5748904" xlink:href="#mcb0005524f" y="88.1074475328"/>
      </g>
     </g>
     <g id="text_19">
      <!-- $15$ -->
      <g transform="translate(162.5748904 89.4867660551)scale(0.06 -0.06)">
       <use transform="scale(0.996264009963)" xlink:href="#Nimbus_Roman_No9_L_Regular-49"/>
       <use transform="translate(49.8132004981 0.0)scale(0.996264009963)" xlink:href="#Nimbus_Roman_No9_L_Regular-53"/>
      </g>
     </g>
    </g>
    <g id="ytick_12">
     <g id="line2d_28">
      <g>
       <use style="stroke:#000000;stroke-width:0.5;" x="158.5748904" xlink:href="#mcb0005524f" y="65.0290583291"/>
      </g>
     </g>
     <g id="text_20">
      <!-- $20$ -->
      <g transform="translate(162.5748904 66.4083768514)scale(0.06 -0.06)">
       <use transform="scale(0.996264009963)" xlink:href="#Nimbus_Roman_No9_L_Regular-50"/>
       <use transform="translate(49.8132004981 0.0)scale(0.996264009963)" xlink:href="#Nimbus_Roman_No9_L_Regular-48"/>
      </g>
     </g>
    </g>
   </g>
   <g id="patch_9">
    <path d="
M110.808 58.1055
L158.575 58.1055" style="fill:none;stroke:#000000;"/>
   </g>
   <g id="patch_10">
    <path d="
M158.575 166.574
L158.575 58.1055" style="fill:none;stroke:#000000;"/>
   </g>
   <g id="patch_11">
    <path d="
M110.808 166.574
L158.575 166.574" style="fill:none;stroke:#000000;"/>
   </g>
   <g id="patch_12">
    <path d="
M110.808 166.574
L110.808 58.1055" style="fill:none;stroke:#000000;"/>
   </g>
   <g id="text_21">
    <!-- NEURON -->
    <defs>
     <path d="
M65.9062 1.89062
C62.0938 2.1875 60.0938 3.20312 57.2031 6.625
L36.5938 32.2031
C43.2969 33.4844 46.2969 34.6719 49.5938 37.3125
C52.7969 39.8906 54.7031 44.0312 54.7031 48.6406
C54.7031 52.8906 53.4062 56.5312 50.7969 59.3906
C47 63.4219 38.7031 66 29.2969 66
L1.70312 66
L1.70312 64.0938
C9.20312 63.2969 10.2031 62.2031 10.2031 55.125
L10.2031 11.9531
C10.2031 3.6875 9.20312 2.48438 1.70312 1.89062
L1.70312 0
L29.4062 0
L29.4062 2.09375
C21.7031 2.09375 20.4062 3.42188 20.4062 10.8125
L20.4062 31
L26 31
L49.7969 0
L65.9062 0
z

M20.4062 58.7812
C20.4062 61.5156 21.5 62.2969 25.5 62.2969
C38 62.2969 43.7969 58.0625 43.7969 48.7969
C43.7969 43.8594 41.7031 39.7188 38.0938 37.8594
C33.5 35.2812 30 34.7031 20.4062 34.7031
z
" id="Nimbus_Roman_No9_L_Regular-82"/>
     <path d="
M61.0938 51.8281
C61.0938 62.0156 62.2969 63.6094 70.5 64.6094
L70.5 66.5
L47.2969 66.5
L47.2969 64.6094
C55.0938 64.0156 56.7031 61.8125 56.7031 51.8281
L56.7031 24.875
C56.7031 18.0938 56 14.2969 54.4062 11.2969
C51.7031 6.5 45.2969 3.40625 37.7969 3.40625
C30.7031 3.40625 25.7969 5.8125 23.0938 10.4844
C21.2969 13.6875 20.5938 17.3906 20.5938 23.6719
L20.5938 55.625
C20.5938 62.8125 21.7031 63.9062 29.7031 64.6094
L29.7031 66.5
L1.40625 66.5
L1.40625 64.6094
C9.29688 64.0156 10.4062 62.9062 10.4062 55.625
L10.4062 24.4688
C10.4062 7.1875 18.5 -1 35.5 -1
C46.4062 -1 53.9062 2.5 57.7969 9.29688
C60.2031 13.4844 61.0938 18.0781 61.0938 25.7812
z
" id="Nimbus_Roman_No9_L_Regular-85"/>
     <path d="
M36.0938 68
C17 68 3.40625 53.6094 3.40625 33.5
C3.40625 24.1094 6.59375 15 12 9.20312
C17.7969 2.90625 26.7031 -1 35.5 -1
C55.2031 -1 68.7969 13 68.7969 33.1094
C68.7969 43 65.9062 51.5 60.4062 57.5
C54.0938 64.4062 45.7031 68 36.0938 68
M36.0938 64.4062
C40.7031 64.4062 45.2969 62.6094 48.9062 59.4062
C54.2969 54.5 57.4062 45.1094 57.4062 33.2031
C57.4062 27.3125 56.0938 20.4062 54.0938 15.2031
C53.2031 12.7031 51.5 10.2031 49.2031 7.90625
C45.7031 4.40625 41.2031 2.60938 35.9062 2.60938
C31.2969 2.60938 26.7969 4.40625 23.2969 7.5
C18.0938 12.1094 14.7969 22.2031 14.7969 33.3125
C14.7969 43.5 17.5938 53.2031 21.7969 57.9062
C25.7031 62.2031 30.5938 64.4062 36.0938 64.4062" id="Nimbus_Roman_No9_L_Regular-79"/>
    </defs>
    <g style="fill:#984ea3;" transform="translate(119.954550743 65.0513750913)scale(0.072 -0.072)">
     <use transform="scale(0.996264009963)" xlink:href="#Nimbus_Roman_No9_L_Regular-78"/>
     <use transform="translate(71.9299848469 0.0)scale(0.996264009963)" xlink:href="#Nimbus_Roman_No9_L_Regular-69"/>
     <use transform="translate(132.801615524 0.0)scale(0.996264009963)" xlink:href="#Nimbus_Roman_No9_L_Regular-85"/>
     <use transform="translate(204.731600371 0.0)scale(0.996264009963)" xlink:href="#Nimbus_Roman_No9_L_Regular-82"/>
     <use transform="translate(267.197517975 0.0)scale(0.996264009963)" xlink:href="#Nimbus_Roman_No9_L_Regular-79"/>
     <use transform="translate(339.127502821 0.0)scale(0.996264009963)" xlink:href="#Nimbus_Roman_No9_L_Regular-78"/>
    </g>
   </g>
   <g id="text_22">
    <!-- Nengo 1.4 -->
    <defs>
     <path d="
M47 39
L47 42.9062
L39.2969 42.9062
C37.2969 42.9062 35.7969 43.1719 33.7969 43.7812
L31.5938 44.4844
C28.9062 45.3594 26.2031 45.7969 23.5938 45.7969
C14.2969 45.7969 6.90625 38.5469 6.90625 29.3906
C6.90625 23.0469 9.59375 19.2031 16.2031 15.8906
C14.2969 14.1406 12.5 12.4844 11.9062 11.9844
C8.59375 9.17188 7.29688 7.21875 7.29688 5.26562
C7.29688 3.21875 8.5 2.04688 12.5938 0.09375
C5.5 -5.14062 2.79688 -8.48438 2.79688 -12.2031
C2.79688 -17.5625 10.5938 -22 20.0938 -22
C27.5938 -22 35.4062 -19.3438 40.5938 -15.0312
C44.4062 -11.8594 46.0938 -8.5625 46.0938 -4.67188
C46.0938 1.6875 41.4062 6 34 6
L21.0938 6
C15.7969 6 13.2969 6.92188 13.2969 8.54688
C13.2969 10.5938 16.5938 14.1719 19.2969 15
C20.2031 14.8906 20.9062 14.7969 21.2031 14.7969
C23.0938 14.5938 24.4062 14.5 25 14.5
C28.7031 14.5 32.7031 16.0312 35.7969 18.7969
C39.0938 21.6719 40.5938 25.2656 40.5938 30.3906
C40.5938 33.3594 40.0938 35.7188 38.7031 39
z

M14.7031 -0.203125
C18 -0.90625 26 -1.5 30.9062 -1.5
C40 -1.5 43.2969 -2.8125 43.2969 -6.46875
C43.2969 -12.3594 35.7031 -16.2969 24.4062 -16.2969
C15.5938 -16.2969 9.79688 -13.375 9.79688 -8.90625
C9.79688 -6.57812 10.5 -5.26562 14.7031 -0.203125
M15.2031 33.5156
C15.2031 39.4688 18 43 22.5938 43
C25.7031 43 28.2969 41.2812 29.9062 38.2656
C31.7031 34.7344 32.9062 30.1094 32.9062 26.1719
C32.9062 20.5312 30 17 25.4062 17
C19.4062 17 15.2031 23.5469 15.2031 33.2188
z
" id="Nimbus_Roman_No9_L_Regular-103"/>
     <path d="
M12.5 10.0938
C9.5 10.0938 7 7.5 7 4.39062
C7 1.5 9.5 -1 12.4062 -1
C15.5 -1 18.0938 1.5 18.0938 4.39062
C18.0938 7.5 15.5 10.0938 12.5 10.0938" id="Nimbus_Roman_No9_L_Regular-46"/>
    </defs>
    <g transform="translate(119.954550743 89.1542939152)scale(0.072 -0.072)">
     <use transform="scale(0.996264009963)" xlink:href="#Nimbus_Roman_No9_L_Regular-78"/>
     <use transform="translate(71.9299848469 0.0)scale(0.996264009963)" xlink:href="#Nimbus_Roman_No9_L_Regular-101"/>
     <use transform="translate(116.163553544 0.0)scale(0.996264009963)" xlink:href="#Nimbus_Roman_No9_L_Regular-110"/>
     <use transform="translate(165.976754042 0.0)scale(0.996264009963)" xlink:href="#Nimbus_Roman_No9_L_Regular-103"/>
     <use transform="translate(215.789954541 0.0)scale(0.996264009963)" xlink:href="#Nimbus_Roman_No9_L_Regular-111"/>
     <use transform="translate(290.509755288 0.0)scale(0.996264009963)" xlink:href="#Nimbus_Roman_No9_L_Regular-49"/>
     <use transform="translate(340.322955786 0.0)scale(0.996264009963)" xlink:href="#Nimbus_Roman_No9_L_Regular-46"/>
     <use transform="translate(365.229556035 0.0)scale(0.996264009963)" xlink:href="#Nimbus_Roman_No9_L_Regular-52"/>
    </g>
   </g>
   <g id="text_23">
    <!-- Nengo -->
    <g style="fill:#e41a1c;" transform="translate(119.954550743 138.264955104)scale(0.072 -0.072)">
     <use transform="scale(0.996264009963)" xlink:href="#Nimbus_Roman_No9_L_Regular-78"/>
     <use transform="translate(71.9299848469 0.0)scale(0.996264009963)" xlink:href="#Nimbus_Roman_No9_L_Regular-101"/>
     <use transform="translate(116.163553544 0.0)scale(0.996264009963)" xlink:href="#Nimbus_Roman_No9_L_Regular-110"/>
     <use transform="translate(165.976754042 0.0)scale(0.996264009963)" xlink:href="#Nimbus_Roman_No9_L_Regular-103"/>
     <use transform="translate(215.789954541 0.0)scale(0.996264009963)" xlink:href="#Nimbus_Roman_No9_L_Regular-111"/>
    </g>
    <!-- reference -->
    <defs>
     <path d="
M30.9062 45
L18.5938 45
L18.5938 56.4219
C18.5938 62.1562 20.5 65.2031 24.2969 65.2031
C26.4062 65.2031 27.7969 64.2188 29.5938 61.3594
C31.2031 58.7969 32.4062 57.8125 34.0938 57.8125
C36.4062 57.8125 38.2969 59.5938 38.2969 61.8594
C38.2969 65.4375 33.9062 68 27.9062 68
C21.7031 68 16.4062 65.3281 13.7969 60.7969
C11.2031 56.4531 10.4062 52.8906 10.2969 45
L2.09375 45
L2.09375 41.7969
L10.2969 41.7969
L10.2969 10.25
C10.2969 2.89062 9.20312 1.70312 2 1.70312
L2 0
L28 0
L28 1.70312
C19.7969 1.70312 18.7031 2.8125 18.7031 10.3281
L18.7031 41.7969
L30.9062 41.7969
z
" id="Nimbus_Roman_No9_L_Regular-102"/>
    </defs>
    <g style="fill:#e41a1c;" transform="translate(119.954550743 145.653814873)scale(0.072 -0.072)">
     <use transform="scale(0.996264009963)" xlink:href="#Nimbus_Roman_No9_L_Regular-114"/>
     <use transform="translate(33.1752297293 0.0)scale(0.996264009963)" xlink:href="#Nimbus_Roman_No9_L_Regular-101"/>
     <use transform="translate(77.4087984268 0.0)scale(0.996264009963)" xlink:href="#Nimbus_Roman_No9_L_Regular-102"/>
     <use transform="translate(110.584028156 0.0)scale(0.996264009963)" xlink:href="#Nimbus_Roman_No9_L_Regular-101"/>
     <use transform="translate(154.817596854 0.0)scale(0.996264009963)" xlink:href="#Nimbus_Roman_No9_L_Regular-114"/>
     <use transform="translate(187.992826583 0.0)scale(0.996264009963)" xlink:href="#Nimbus_Roman_No9_L_Regular-101"/>
     <use transform="translate(232.22639528 0.0)scale(0.996264009963)" xlink:href="#Nimbus_Roman_No9_L_Regular-110"/>
     <use transform="translate(282.039595779 0.0)scale(0.996264009963)" xlink:href="#Nimbus_Roman_No9_L_Regular-99"/>
     <use transform="translate(326.273164476 0.0)scale(0.996264009963)" xlink:href="#Nimbus_Roman_No9_L_Regular-101"/>
    </g>
   </g>
   <g id="text_24">
    <!-- Nengo -->
    <g style="fill:#08519c;" transform="translate(119.954550743 154.231126694)scale(0.072 -0.072)">
     <use transform="scale(0.996264009963)" xlink:href="#Nimbus_Roman_No9_L_Regular-78"/>
     <use transform="translate(71.9299848469 0.0)scale(0.996264009963)" xlink:href="#Nimbus_Roman_No9_L_Regular-101"/>
     <use transform="translate(116.163553544 0.0)scale(0.996264009963)" xlink:href="#Nimbus_Roman_No9_L_Regular-110"/>
     <use transform="translate(165.976754042 0.0)scale(0.996264009963)" xlink:href="#Nimbus_Roman_No9_L_Regular-103"/>
     <use transform="translate(215.789954541 0.0)scale(0.996264009963)" xlink:href="#Nimbus_Roman_No9_L_Regular-111"/>
    </g>
    <!-- OpenCL -->
    <defs>
     <path d="
M62 45.4062
L61.0938 68
L59 68
C58.4062 65.9062 56.7969 64.7031 54.7969 64.7031
C53.9062 64.7031 52.4062 65 50.9062 65.6094
C46 67.2031 41 68 36.2969 68
C28.0938 68 19.7969 64.9062 13.5938 59.4062
C6.59375 53.2031 2.79688 43.9062 2.79688 32.9062
C2.79688 23.6094 5.79688 15 10.9062 9.3125
C16.9062 2.8125 26.0938 -1 36 -1
C47.2969 -1 57.2031 3.60938 63.2969 11.7031
L61.5 13.5
C54.0938 6.40625 47.5 3.40625 39.2031 3.40625
C32.9062 3.40625 27.2969 5.40625 23 9.20312
C17.5 14.1094 14.4062 23.1094 14.4062 34.2031
C14.4062 52.3125 23.7031 64 38.2031 64
C43.9062 64 49.0938 61.9062 53.0938 57.9062
C56.2969 54.7031 57.7969 51.9062 59.7031 45.4062
z
" id="Nimbus_Roman_No9_L_Regular-67"/>
     <path d="
M0.90625 39.3125
C1.79688 39.4062 2.5 39.4062 3.40625 39.4062
C6.79688 39.4062 7.5 38.4062 7.5 33.6719
L7.5 -13.3594
C7.5 -18.5781 6.40625 -19.7031 0.5 -20.2969
L0.5 -22
L24.7031 -22
L24.7031 -20.2031
C17.2031 -20.2031 15.9062 -19.0938 15.9062 -12.75
L15.9062 3.10938
C19.4062 -0.203125 21.7969 -1.20312 26 -1.20312
C37.7969 -1.20312 47 10.0469 47 24.6094
C47 37.0625 40 46 30.2969 46
C24.7031 46 20.2969 43.5 15.9062 38.0938
L15.9062 45.7969
L15.2969 46
C9.90625 43.9062 6.40625 42.5938 0.90625 40.9062
z

M15.9062 33.375
C15.9062 36.3906 21.5 40 26.0938 40
C33.5 40 38.4062 32.3594 38.4062 20.6875
C38.4062 9.54688 33.5 2 26.2969 2
C21.5938 2 15.9062 5.60938 15.9062 8.625
z
" id="Nimbus_Roman_No9_L_Regular-112"/>
    </defs>
    <g style="fill:#08519c;" transform="translate(119.954550743 161.619986463)scale(0.072 -0.072)">
     <use transform="scale(0.996264009963)" xlink:href="#Nimbus_Roman_No9_L_Regular-79"/>
     <use transform="translate(71.9299848469 0.0)scale(0.996264009963)" xlink:href="#Nimbus_Roman_No9_L_Regular-112"/>
     <use transform="translate(121.743185345 0.0)scale(0.996264009963)" xlink:href="#Nimbus_Roman_No9_L_Regular-101"/>
     <use transform="translate(165.976754042 0.0)scale(0.996264009963)" xlink:href="#Nimbus_Roman_No9_L_Regular-110"/>
     <use transform="translate(215.789954541 0.0)scale(0.996264009963)" xlink:href="#Nimbus_Roman_No9_L_Regular-67"/>
     <use transform="translate(282.239985674 0.0)scale(0.996264009963)" xlink:href="#Nimbus_Roman_No9_L_Regular-76"/>
    </g>
   </g>
  </g>
 </g>
 <defs>
  <clipPath id="p5af806adf6">
   <rect height="171.439462656" width="119.0551824" x="25.5118248" y="12.245675904"/>
  </clipPath>
  <clipPath id="p7f0f6dd769">
   <rect height="108.468429257" width="47.7672622068" x="110.807628193" y="58.105541568"/>
  </clipPath>
 </defs>
</svg>
