<?xml version="1.0" encoding="utf-8" standalone="no"?>
<!DOCTYPE svg PUBLIC "-//W3C//DTD SVG 1.1//EN"
  "http://www.w3.org/Graphics/SVG/1.1/DTD/svg11.dtd">
<!-- Created with matplotlib (http://matplotlib.org/) -->
<svg height="204pt" version="1.1" viewBox="0 0 170 204" width="170pt" xmlns="http://www.w3.org/2000/svg" xmlns:xlink="http://www.w3.org/1999/xlink">
 <defs>
  <style type="text/css">
*{stroke-linecap:butt;stroke-linejoin:round;}
  </style>
 </defs>
 <g id="figure_1">
  <g id="patch_1">
   <path d="
M0 204.095
L170.079 204.095
L170.079 0
L0 0
z
" style="fill:#ffffff;"/>
  </g>
  <g id="axes_1">
   <g id="patch_2">
    <path d="
M25.5118 183.685
L127.559 183.685
L127.559 13.2661
L25.5118 13.2661
z
" style="fill:#ffffff;"/>
   </g>
   <g id="patch_3">
    <path clip-path="url(#pefa5609fe8)" d="
M113.118 183.685
L121.302 183.685
L121.302 170.904
L113.118 170.904
L113.118 183.685
z
" style="fill:none;stroke:#808080;"/>
   </g>
   <g id="line2d_1">
    <path clip-path="url(#pefa5609fe8)" d="
M28.4 123.55
L42.8406 32.1866
L47.9021 -1" style="fill:none;stroke:#238b45;stroke-linecap:square;"/>
    <defs>
     <path d="
M0 2
C0.530406 2 1.03916 1.78927 1.41421 1.41421
C1.78927 1.03916 2 0.530406 2 0
C2 -0.530406 1.78927 -1.03916 1.41421 -1.41421
C1.03916 -1.78927 0.530406 -2 0 -2
C-0.530406 -2 -1.03916 -1.78927 -1.41421 -1.41421
C-1.78927 -1.03916 -2 -0.530406 -2 0
C-2 0.530406 -1.78927 1.03916 -1.41421 1.41421
C-1.03916 1.78927 -0.530406 2 0 2
z
" id="m49b4907c93" style="stroke:#238b45;stroke-width:0.5;"/>
    </defs>
    <g clip-path="url(#pefa5609fe8)">
     <use style="fill:#238b45;stroke:#238b45;stroke-width:0.5;" x="28.3999559094" xlink:href="#m49b4907c93" y="123.549905549"/>
     <use style="fill:#238b45;stroke:#238b45;stroke-width:0.5;" x="42.8406114566" xlink:href="#m49b4907c93" y="32.1865642779"/>
     <use style="fill:#238b45;stroke:#238b45;stroke-width:0.5;" x="66.9083707019" xlink:href="#m49b4907c93" y="-125.619068548"/>
     <use style="fill:#238b45;stroke:#238b45;stroke-width:0.5;" x="115.043889192" xlink:href="#m49b4907c93" y="-470.742842427"/>
    </g>
   </g>
   <g id="line2d_2">
    <path clip-path="url(#pefa5609fe8)" d="
M28.4 182.553
L42.8406 178.514
L66.9084 162.406
L115.044 112.842" style="fill:none;stroke:#984ea3;stroke-linecap:square;"/>
    <defs>
     <path d="
M0 2
C0.530406 2 1.03916 1.78927 1.41421 1.41421
C1.78927 1.03916 2 0.530406 2 0
C2 -0.530406 1.78927 -1.03916 1.41421 -1.41421
C1.03916 -1.78927 0.530406 -2 0 -2
C-0.530406 -2 -1.03916 -1.78927 -1.41421 -1.41421
C-1.78927 -1.03916 -2 -0.530406 -2 0
C-2 0.530406 -1.78927 1.03916 -1.41421 1.41421
C-1.03916 1.78927 -0.530406 2 0 2
z
" id="m6fcbe3cf07" style="stroke:#984ea3;stroke-width:0.5;"/>
    </defs>
    <g clip-path="url(#pefa5609fe8)">
     <use style="fill:#984ea3;stroke:#984ea3;stroke-width:0.5;" x="28.3999559094" xlink:href="#m6fcbe3cf07" y="182.553329404"/>
     <use style="fill:#984ea3;stroke:#984ea3;stroke-width:0.5;" x="42.8406114566" xlink:href="#m6fcbe3cf07" y="178.513538979"/>
     <use style="fill:#984ea3;stroke:#984ea3;stroke-width:0.5;" x="66.9083707019" xlink:href="#m6fcbe3cf07" y="162.405718594"/>
     <use style="fill:#984ea3;stroke:#984ea3;stroke-width:0.5;" x="115.043889192" xlink:href="#m6fcbe3cf07" y="112.841816611"/>
    </g>
   </g>
   <g id="line2d_3">
    <path clip-path="url(#pefa5609fe8)" d="
M28.4 182.234
L42.8406 179.678
L66.9084 169.059
L115.044 122.02" style="fill:none;stroke:#ff7f00;stroke-linecap:square;"/>
    <defs>
     <path d="
M0 2
C0.530406 2 1.03916 1.78927 1.41421 1.41421
C1.78927 1.03916 2 0.530406 2 0
C2 -0.530406 1.78927 -1.03916 1.41421 -1.41421
C1.03916 -1.78927 0.530406 -2 0 -2
C-0.530406 -2 -1.03916 -1.78927 -1.41421 -1.41421
C-1.78927 -1.03916 -2 -0.530406 -2 0
C-2 0.530406 -1.78927 1.03916 -1.41421 1.41421
C-1.03916 1.78927 -0.530406 2 0 2
z
" id="mac148a8bc8" style="stroke:#ff7f00;stroke-width:0.5;"/>
    </defs>
    <g clip-path="url(#pefa5609fe8)">
     <use style="fill:#ff7f00;stroke:#ff7f00;stroke-width:0.5;" x="28.3999559094" xlink:href="#mac148a8bc8" y="182.234284459"/>
     <use style="fill:#ff7f00;stroke:#ff7f00;stroke-width:0.5;" x="42.8406114566" xlink:href="#mac148a8bc8" y="179.677963412"/>
     <use style="fill:#ff7f00;stroke:#ff7f00;stroke-width:0.5;" x="66.9083707019" xlink:href="#mac148a8bc8" y="169.059365588"/>
     <use style="fill:#ff7f00;stroke:#ff7f00;stroke-width:0.5;" x="115.043889192" xlink:href="#mac148a8bc8" y="122.02044519"/>
    </g>
   </g>
   <g id="line2d_4">
    <path clip-path="url(#pefa5609fe8)" d="
M28.4 180.146
L42.8406 179.408
L66.9084 178.03
L115.044 172.251" style="fill:none;stroke:#000000;stroke-linecap:square;"/>
    <defs>
     <path d="
M0 2
C0.530406 2 1.03916 1.78927 1.41421 1.41421
C1.78927 1.03916 2 0.530406 2 0
C2 -0.530406 1.78927 -1.03916 1.41421 -1.41421
C1.03916 -1.78927 0.530406 -2 0 -2
C-0.530406 -2 -1.03916 -1.78927 -1.41421 -1.41421
C-1.78927 -1.03916 -2 -0.530406 -2 0
C-2 0.530406 -1.78927 1.03916 -1.41421 1.41421
C-1.03916 1.78927 -0.530406 2 0 2
z
" id="m76eb5f4da3" style="stroke:#000000;stroke-width:0.5;"/>
    </defs>
    <g clip-path="url(#pefa5609fe8)">
     <use style="stroke:#000000;stroke-width:0.5;" x="28.3999559094" xlink:href="#m76eb5f4da3" y="180.146388262"/>
     <use style="stroke:#000000;stroke-width:0.5;" x="42.8406114566" xlink:href="#m76eb5f4da3" y="179.40847401"/>
     <use style="stroke:#000000;stroke-width:0.5;" x="66.9083707019" xlink:href="#m76eb5f4da3" y="178.030295618"/>
     <use style="stroke:#000000;stroke-width:0.5;" x="115.043889192" xlink:href="#m76eb5f4da3" y="172.250705996"/>
    </g>
   </g>
   <g id="line2d_5">
    <path clip-path="url(#pefa5609fe8)" d="
M28.4 183.006
L42.8406 182.971
L66.9084 182.735
L115.044 179.965" style="fill:none;stroke:#08519c;stroke-linecap:square;"/>
    <defs>
     <path d="
M0 2
C0.530406 2 1.03916 1.78927 1.41421 1.41421
C1.78927 1.03916 2 0.530406 2 0
C2 -0.530406 1.78927 -1.03916 1.41421 -1.41421
C1.03916 -1.78927 0.530406 -2 0 -2
C-0.530406 -2 -1.03916 -1.78927 -1.41421 -1.41421
C-1.78927 -1.03916 -2 -0.530406 -2 0
C-2 0.530406 -1.78927 1.03916 -1.41421 1.41421
C-1.03916 1.78927 -0.530406 2 0 2
z
" id="m5c4ea31fe1" style="stroke:#08519c;stroke-width:0.5;"/>
    </defs>
    <g clip-path="url(#pefa5609fe8)">
     <use style="fill:#08519c;stroke:#08519c;stroke-width:0.5;" x="28.3999559094" xlink:href="#m5c4ea31fe1" y="183.005863978"/>
     <use style="fill:#08519c;stroke:#08519c;stroke-width:0.5;" x="42.8406114566" xlink:href="#m5c4ea31fe1" y="182.97113365"/>
     <use style="fill:#08519c;stroke:#08519c;stroke-width:0.5;" x="66.9083707019" xlink:href="#m5c4ea31fe1" y="182.735152962"/>
     <use style="fill:#08519c;stroke:#08519c;stroke-width:0.5;" x="115.043889192" xlink:href="#m5c4ea31fe1" y="179.964867609"/>
    </g>
   </g>
   <g id="line2d_6">
    <path clip-path="url(#pefa5609fe8)" d="
M28.4 182.19
L42.8406 181.988
L66.9084 181.627
L115.044 181.019" style="fill:none;stroke:#e41a1c;stroke-linecap:square;"/>
    <defs>
     <path d="
M0 2
C0.530406 2 1.03916 1.78927 1.41421 1.41421
C1.78927 1.03916 2 0.530406 2 0
C2 -0.530406 1.78927 -1.03916 1.41421 -1.41421
C1.03916 -1.78927 0.530406 -2 0 -2
C-0.530406 -2 -1.03916 -1.78927 -1.41421 -1.41421
C-1.78927 -1.03916 -2 -0.530406 -2 0
C-2 0.530406 -1.78927 1.03916 -1.41421 1.41421
C-1.03916 1.78927 -0.530406 2 0 2
z
" id="m313d082634" style="stroke:#e41a1c;stroke-width:0.5;"/>
    </defs>
    <g clip-path="url(#pefa5609fe8)">
     <use style="fill:#e41a1c;stroke:#e41a1c;stroke-width:0.5;" x="28.3999559094" xlink:href="#m313d082634" y="182.190096157"/>
     <use style="fill:#e41a1c;stroke:#e41a1c;stroke-width:0.5;" x="42.8406114566" xlink:href="#m313d082634" y="181.987907016"/>
     <use style="fill:#e41a1c;stroke:#e41a1c;stroke-width:0.5;" x="66.9083707019" xlink:href="#m313d082634" y="181.627204514"/>
     <use style="fill:#e41a1c;stroke:#e41a1c;stroke-width:0.5;" x="115.043889192" xlink:href="#m313d082634" y="181.018617767"/>
    </g>
   </g>
   <g id="matplotlib.axis_1">
    <g id="xtick_1">
     <g id="line2d_7">
      <defs>
       <path d="
M0 0
L0 4" id="m741efc42ff" style="stroke:#000000;stroke-width:0.5;"/>
      </defs>
      <g>
       <use style="stroke:#000000;stroke-width:0.5;" x="28.3999559094" xlink:href="#m741efc42ff" y="183.68513856"/>
      </g>
     </g>
     <g id="text_1">
      <!-- 100 neurons -->
      <defs>
       <path d="
M0.703125 39
C2.09375 39.2969 3 39.4062 4.20312 39.4062
C6.70312 39.4062 7.59375 37.7969 7.59375 33.4062
L7.59375 8.40625
C7.59375 3.40625 6.90625 2.70312 0.5 1.5
L0.5 0
L24.5 0
L24.5 1.59375
C17.7031 1.59375 16 3.10938 16 8.82812
L16 31.4531
C16 34.6719 20.2969 39.7031 23 39.7031
C23.5938 39.7031 24.5 39.2031 25.5938 38.2031
C27.2031 36.7969 28.2969 36.2031 29.5938 36.2031
C32 36.2031 33.5 37.9062 33.5 40.7031
C33.5 44 31.4062 46 28 46
C23.7969 46 20.9062 43.7031 16 36.6094
L16 45.7969
L15.5 46
C10.2031 43.7969 6.59375 42.5156 0.703125 40.6094
z
" id="Nimbus_Roman_No9_L_Regular-114"/>
       <path d="
M31.5 31.4062
L31.0938 45
L30 45
L29.7969 44.8125
C28.9062 44.1719 28.7969 44.0781 28.4062 44.0781
C27.7969 44.0781 26.7969 44.2812 25.7031 44.7812
C23.5 45.5938 21.2969 46 18.7031 46
C10.7969 46 5.09375 41 5.09375 33.9375
C5.09375 28.4531 8.29688 24.5312 16.7969 19.8438
L22.5938 16.6094
C26.0938 14.6562 27.7969 12.2969 27.7969 9.26562
C27.7969 4.9375 24.5938 2.20312 19.5 2.20312
C16.0938 2.20312 13 3.4375 11.0938 5.5625
C9 7.95312 8.09375 10.1406 6.79688 15.6094
L5.20312 15.6094
L5.20312 0
L6.5 0
C7.20312 1.35938 7.59375 1.64062 8.79688 1.64062
C9.70312 1.64062 11.0938 1.45312 13.4062 0.90625
C16.2031 0.375 18.9062 0 20.7031 0
C28.4062 0 34.7969 5.67188 34.7969 12.5312
C34.7969 17.4375 32.4062 20.6719 26.4062 24.2031
L15.5938 30.4688
C12.7969 32.0469 11.2969 34.4844 11.2969 37.1406
C11.2969 41.0625 14.4062 43.7969 19 43.7969
C24.7031 43.7969 27.7031 40.3594 30 31.4062
z
" id="Nimbus_Roman_No9_L_Regular-115"/>
       <path d="
M40.7969 17.4531
C36 9.8125 31.7031 6.90625 25.2969 6.90625
C19.5938 6.90625 15.2969 9.8125 12.4062 15.5312
C10.5938 19.3438 9.90625 22.6562 9.70312 28.7969
L40.5 28.7969
C39.7031 34.9062 38.7031 37.625 36.2031 40.6406
C33.2031 44.0312 28.5938 46 23.4062 46
C18.4062 46 13.7031 44.2344 9.90625 40.9062
C5.20312 36.9062 2.5 29.9375 2.5 21.9219
C2.5 8.40625 9.70312 0 21.2031 0
C30.7031 0 38.2031 5.92188 42.4062 16.75
z

M9.90625 32
C11 39.0625 14.4062 42.4062 20.5 42.4062
C26.5938 42.4062 29 39.8594 30.2969 32
z
" id="Nimbus_Roman_No9_L_Regular-101"/>
       <path d="
M47.9062 6
L47.4062 6
C42.7969 6 41.7031 7.0625 41.7031 11.5625
L41.7031 45
L25.9062 45
L25.9062 43.0938
C32.0938 43.0938 33.2969 42.125 33.2969 37.2656
L33.2969 14.4531
C33.2969 11.7344 32.7969 10.375 31.4062 9.3125
C28.7031 7.17188 25.5938 6 22.5938 6
C18.7031 6 15.5 9.29688 15.5 13.375
L15.5 45
L0.90625 45
L0.90625 43.4062
C5.70312 43.4062 7.09375 41.9375 7.09375 37.4375
L7.09375 12.7344
C7.09375 4.98438 11.9062 0 19.2031 0
C22.9062 0 26.7969 1.57812 29.5 4.26562
L33.7969 8.53125
L33.7969 0.296875
L34.2031 0.09375
C39.2031 2.09375 42.7969 3.20312 47.9062 4.59375
z
" id="Nimbus_Roman_No9_L_Regular-117"/>
       <path d="
M1.59375 39.7969
C2.20312 40.0938 3.20312 40.2031 4.29688 40.2031
C7.09375 40.2031 8 38.7031 8 33.7969
L8 9
C8 3.29688 6.90625 1.90625 1.79688 1.5
L1.79688 0
L23 0
L23 1.5
C17.9062 1.90625 16.4062 3.09375 16.4062 6.70312
L16.4062 34.7969
C21.2031 39.2969 23.4062 40.5 26.7031 40.5
C31.5938 40.5 34 37.4062 34 30.7969
L34 9.90625
C34 3.59375 32.7031 1.90625 27.7031 1.5
L27.7031 0
L48.5 0
L48.5 1.5
C43.5938 2 42.4062 3.20312 42.4062 8.09375
L42.4062 31
C42.4062 40.4062 38 46 30.5938 46
C26 46 22.9062 44.2969 16.0938 37.9062
L16.0938 45.7969
L15.4062 46
C10.5 44.2031 7.09375 43.0938 1.59375 41.5
z
" id="Nimbus_Roman_No9_L_Regular-110"/>
       <path d="
M25 46
C12 46 2.90625 36.6094 2.90625 23.0938
C2.90625 9.875 12.2031 0 24.7969 0
C37.4062 0 47 10.375 47 23.8906
C47 36.7031 37.7969 46 25 46
M23.7031 43.2031
C32.0938 43.2031 38 33.8281 38 20.4688
C38 9.42188 33.5 2.79688 26 2.79688
C22.0938 2.79688 18.4062 5.14062 16.2969 9.04688
C13.5 14.125 11.9062 20.9531 11.9062 27.875
C11.9062 37.1562 16.5938 43.2031 23.7031 43.2031" id="Nimbus_Roman_No9_L_Regular-111"/>
       <path d="
M29.0938 67.7969
L11.0938 58.7031
L11.0938 57.2969
C12.2969 57.7969 13.4062 58.2031 13.7969 58.4062
C15.5938 59.1094 17.2969 59.5 18.2969 59.5
C20.4062 59.5 21.2969 58 21.2969 54.7656
L21.2969 9.25
C21.2969 5.92188 20.5 3.625 18.9062 2.70312
C17.4062 1.8125 16 1.5 11.7969 1.5
L11.7969 0
L39.4062 0
L39.4062 1.5
C31.5 1.5 29.9062 2.5 29.9062 7.34375
L29.9062 67.6094
z
" id="Nimbus_Roman_No9_L_Regular-49"/>
       <path d="
M25.4062 67
C19.9062 67 15.7031 65.3594 12 61.9688
C6.20312 56.5156 2.40625 45.3438 2.40625 33.9844
C2.40625 23.4062 5.70312 12.0469 10.4062 6.60938
C14.0938 2.34375 19.2031 0 25 0
C30.0938 0 34.4062 1.65625 38 5.04688
C43.7969 10.3906 47.5938 21.6719 47.5938 33.4062
C47.5938 53.3125 38.5 67 25.4062 67
M25.0938 64.4062
C33.5 64.4062 38 53.4688 38 33.2188
C38 12.9844 33.5938 2.60938 25 2.60938
C16.4062 2.60938 12 12.9844 12 33.125
C12 53.6562 16.5 64.4062 25.0938 64.4062" id="Nimbus_Roman_No9_L_Regular-48"/>
      </defs>
      <g transform="translate(13.707121604 195.737872935)scale(0.06 -0.06)">
       <use transform="scale(0.996264009963)" xlink:href="#Nimbus_Roman_No9_L_Regular-49"/>
       <use transform="translate(49.8132004981 0.0)scale(0.996264009963)" xlink:href="#Nimbus_Roman_No9_L_Regular-48"/>
       <use transform="translate(99.6264009963 0.0)scale(0.996264009963)" xlink:href="#Nimbus_Roman_No9_L_Regular-48"/>
       <use transform="translate(174.346201743 0.0)scale(0.996264009963)" xlink:href="#Nimbus_Roman_No9_L_Regular-110"/>
       <use transform="translate(224.159402242 0.0)scale(0.996264009963)" xlink:href="#Nimbus_Roman_No9_L_Regular-101"/>
       <use transform="translate(268.392970939 0.0)scale(0.996264009963)" xlink:href="#Nimbus_Roman_No9_L_Regular-117"/>
       <use transform="translate(318.206171437 0.0)scale(0.996264009963)" xlink:href="#Nimbus_Roman_No9_L_Regular-114"/>
       <use transform="translate(351.381401167 0.0)scale(0.996264009963)" xlink:href="#Nimbus_Roman_No9_L_Regular-111"/>
       <use transform="translate(401.194601665 0.0)scale(0.996264009963)" xlink:href="#Nimbus_Roman_No9_L_Regular-110"/>
       <use transform="translate(451.007802163 0.0)scale(0.996264009963)" xlink:href="#Nimbus_Roman_No9_L_Regular-115"/>
      </g>
      <!-- 1 dimension -->
      <defs>
       <path d="
M1.90625 39.7969
C3.20312 40.0938 4 40.2031 5.09375 40.2031
C7.70312 40.2031 8.59375 38.5938 8.59375 33.7812
L8.59375 8.42188
C8.59375 3 7.20312 1.5 1.59375 1.5
L1.59375 0
L23.7969 0
L23.7969 1.5
C18.5 1.5 17 2.59375 17 6.53125
L17 34.875
C17 35.0625 17.7969 36.0625 18.5 36.7812
C21 39.0781 25.2969 40.7969 28.7969 40.7969
C33.2031 40.7969 35.4062 37.2656 35.4062 30.1875
L35.4062 8.25
C35.4062 2.60938 34.2969 1.5 28.5938 1.5
L28.5938 0
L51 0
L51 1.5
C45.2969 1.5 43.7969 3.20312 43.7969 9.42188
L43.7969 34.7031
C46.7969 39 50.0938 40.7969 54.7031 40.7969
C60.4062 40.7969 62.2031 38.0938 62.2031 29.7969
L62.2031 8.70312
C62.2031 3 61.4062 2.20312 55.5938 1.5
L55.5938 0
L77.5 0
L77.5 1.5
L74.9062 1.79688
C71.9062 1.79688 70.5938 3.59375 70.5938 7.5
L70.5938 28.1562
C70.5938 39.9844 66.7031 46 59 46
C53.2031 46 48.0938 43.4062 42.7031 37.6094
C40.9062 43.2969 37.5 46 32.0938 46
C27.7031 46 24.9062 44.5938 16.5938 38.2969
L16.5938 45.7969
L15.9062 46
C10.7969 44.0938 7.40625 43 1.90625 41.5
z
" id="Nimbus_Roman_No9_L_Regular-109"/>
       <path d="
M34.4062 0
L49.0938 5.20312
L49.0938 6.67188
C47.2969 6.67188 47.0938 6.67188 46.7969 6.67188
C43.2031 6.67188 42.4062 7.76562 42.4062 12.3906
L42.4062 69.1875
L41.9062 69.3906
C37.0938 67.6875 33.5938 66.6875 27.2031 65
L27.2031 63.3906
C28 63.5 28.5938 63.5 29.4062 63.5
C33.0938 63.5 34 62.4531 34 58.125
L34 41.7344
C30.2031 44.9219 27.5 46 23.5 46
C12 46 2.70312 34.9375 2.70312 21.0469
C2.70312 8.51562 10.2031 0 21.2031 0
C26.7969 0 30.5938 1.98438 34 6.67188
L34 0.296875
z

M34 11.0469
C34 10.3594 33.2969 9.1875 32.2969 8.125
C30.5 6.17188 28 5.20312 25.0938 5.20312
C16.7969 5.20312 11.2969 13 11.2969 24.9844
C11.2969 35.9844 16.2031 43.2031 23.7969 43.2031
C29.0938 43.2031 34 38.625 34 33.4531
z
" id="Nimbus_Roman_No9_L_Regular-100"/>
       <path d="
M17.5 45.7656
L2 40.2969
L2 38.8125
L2.79688 38.9062
C4 39.0938 5.29688 39.2031 6.20312 39.2031
C8.59375 39.2031 9.5 37.5938 9.5 33.2031
L9.5 10
C9.5 2.79688 8.5 1.70312 1.59375 1.70312
L1.59375 0
L25.2969 0
L25.2969 1.5
C18.7031 2 17.9062 2.98438 17.9062 10.1562
L17.9062 45.4688
z

M12.7969 68
C10.0938 68 7.79688 65.7031 7.79688 62.9062
C7.79688 60.1094 10 57.7969 12.7969 57.7969
C15.7031 57.7969 18 60 18 62.9062
C18 65.7031 15.7031 68 12.7969 68" id="Nimbus_Roman_No9_L_Regular-105"/>
      </defs>
      <g transform="translate(13.7042104627 201.895251515)scale(0.06 -0.06)">
       <use transform="scale(0.996264009963)" xlink:href="#Nimbus_Roman_No9_L_Regular-49"/>
       <use transform="translate(74.7198007472 0.0)scale(0.996264009963)" xlink:href="#Nimbus_Roman_No9_L_Regular-100"/>
       <use transform="translate(124.533001245 0.0)scale(0.996264009963)" xlink:href="#Nimbus_Roman_No9_L_Regular-105"/>
       <use transform="translate(152.228170849 0.0)scale(0.996264009963)" xlink:href="#Nimbus_Roman_No9_L_Regular-109"/>
       <use transform="translate(229.73654095 0.0)scale(0.996264009963)" xlink:href="#Nimbus_Roman_No9_L_Regular-101"/>
       <use transform="translate(273.970109647 0.0)scale(0.996264009963)" xlink:href="#Nimbus_Roman_No9_L_Regular-110"/>
       <use transform="translate(323.783310146 0.0)scale(0.996264009963)" xlink:href="#Nimbus_Roman_No9_L_Regular-115"/>
       <use transform="translate(362.53701634 0.0)scale(0.996264009963)" xlink:href="#Nimbus_Roman_No9_L_Regular-105"/>
       <use transform="translate(390.232185943 0.0)scale(0.996264009963)" xlink:href="#Nimbus_Roman_No9_L_Regular-111"/>
       <use transform="translate(440.045386441 0.0)scale(0.996264009963)" xlink:href="#Nimbus_Roman_No9_L_Regular-110"/>
      </g>
     </g>
    </g>
    <g id="xtick_2">
     <g id="line2d_8">
      <g>
       <use style="stroke:#000000;stroke-width:0.5;" x="66.9083707019" xlink:href="#m741efc42ff" y="183.68513856"/>
      </g>
     </g>
     <g id="text_2">
      <!-- 500 neurons -->
      <defs>
       <path d="
M18.0938 58.0938
L37.7031 58.0938
C39.2969 58.0938 39.7031 58.2969 40 59
L43.7969 67.8906
L42.9062 68.5938
C41.4062 66.5 40.4062 66 38.2969 66
L17.4062 66
L6.5 42.7656
C6.40625 42.5781 6.40625 42.4844 6.40625 42.2812
C6.40625 41.7969 6.79688 41.5 7.59375 41.5
C10.7969 41.5 14.7969 40.8125 18.9062 39.5625
C30.4062 35.9531 35.7031 29.9375 35.7031 20.3281
C35.7031 10.9844 29.5938 3.70312 21.7969 3.70312
C19.7969 3.70312 18.0938 4.39062 15.0938 6.53125
C11.9062 8.76562 9.59375 9.73438 7.5 9.73438
C4.59375 9.73438 3.20312 8.54688 3.20312 6.09375
C3.20312 2.35938 7.90625 0 15.4062 0
C23.7969 0 31 2.625 36 7.60938
C40.5938 11.9844 42.7031 17.5156 42.7031 24.9219
C42.7031 31.9375 40.7969 36.4062 35.7969 41.2812
C31.4062 45.5625 25.7031 47.8125 13.9062 49.8438
z
" id="Nimbus_Roman_No9_L_Regular-53"/>
      </defs>
      <g transform="translate(52.2155363965 195.737872935)scale(0.06 -0.06)">
       <use transform="scale(0.996264009963)" xlink:href="#Nimbus_Roman_No9_L_Regular-53"/>
       <use transform="translate(49.8132004981 0.0)scale(0.996264009963)" xlink:href="#Nimbus_Roman_No9_L_Regular-48"/>
       <use transform="translate(99.6264009963 0.0)scale(0.996264009963)" xlink:href="#Nimbus_Roman_No9_L_Regular-48"/>
       <use transform="translate(174.346201743 0.0)scale(0.996264009963)" xlink:href="#Nimbus_Roman_No9_L_Regular-110"/>
       <use transform="translate(224.159402242 0.0)scale(0.996264009963)" xlink:href="#Nimbus_Roman_No9_L_Regular-101"/>
       <use transform="translate(268.392970939 0.0)scale(0.996264009963)" xlink:href="#Nimbus_Roman_No9_L_Regular-117"/>
       <use transform="translate(318.206171437 0.0)scale(0.996264009963)" xlink:href="#Nimbus_Roman_No9_L_Regular-114"/>
       <use transform="translate(351.381401167 0.0)scale(0.996264009963)" xlink:href="#Nimbus_Roman_No9_L_Regular-111"/>
       <use transform="translate(401.194601665 0.0)scale(0.996264009963)" xlink:href="#Nimbus_Roman_No9_L_Regular-110"/>
       <use transform="translate(451.007802163 0.0)scale(0.996264009963)" xlink:href="#Nimbus_Roman_No9_L_Regular-115"/>
      </g>
      <!-- 10 dimensions -->
      <g transform="translate(49.5556197265 201.895251515)scale(0.06 -0.06)">
       <use transform="scale(0.996264009963)" xlink:href="#Nimbus_Roman_No9_L_Regular-49"/>
       <use transform="translate(49.8132004981 0.0)scale(0.996264009963)" xlink:href="#Nimbus_Roman_No9_L_Regular-48"/>
       <use transform="translate(124.533001245 0.0)scale(0.996264009963)" xlink:href="#Nimbus_Roman_No9_L_Regular-100"/>
       <use transform="translate(174.346201743 0.0)scale(0.996264009963)" xlink:href="#Nimbus_Roman_No9_L_Regular-105"/>
       <use transform="translate(202.041371347 0.0)scale(0.996264009963)" xlink:href="#Nimbus_Roman_No9_L_Regular-109"/>
       <use transform="translate(279.549741448 0.0)scale(0.996264009963)" xlink:href="#Nimbus_Roman_No9_L_Regular-101"/>
       <use transform="translate(323.783310146 0.0)scale(0.996264009963)" xlink:href="#Nimbus_Roman_No9_L_Regular-110"/>
       <use transform="translate(373.596510644 0.0)scale(0.996264009963)" xlink:href="#Nimbus_Roman_No9_L_Regular-115"/>
       <use transform="translate(412.350216838 0.0)scale(0.996264009963)" xlink:href="#Nimbus_Roman_No9_L_Regular-105"/>
       <use transform="translate(440.045386441 0.0)scale(0.996264009963)" xlink:href="#Nimbus_Roman_No9_L_Regular-111"/>
       <use transform="translate(489.85858694 0.0)scale(0.996264009963)" xlink:href="#Nimbus_Roman_No9_L_Regular-110"/>
       <use transform="translate(539.671787438 0.0)scale(0.996264009963)" xlink:href="#Nimbus_Roman_No9_L_Regular-115"/>
      </g>
     </g>
    </g>
    <g id="xtick_3">
     <g id="line2d_9">
      <g>
       <use style="stroke:#000000;stroke-width:0.5;" x="115.043889192" xlink:href="#m741efc42ff" y="183.68513856"/>
      </g>
     </g>
     <g id="text_3">
      <!-- 1000 neurons -->
      <g transform="translate(98.8566588721 195.737872935)scale(0.06 -0.06)">
       <use transform="scale(0.996264009963)" xlink:href="#Nimbus_Roman_No9_L_Regular-49"/>
       <use transform="translate(49.8132004981 0.0)scale(0.996264009963)" xlink:href="#Nimbus_Roman_No9_L_Regular-48"/>
       <use transform="translate(99.6264009963 0.0)scale(0.996264009963)" xlink:href="#Nimbus_Roman_No9_L_Regular-48"/>
       <use transform="translate(149.439601494 0.0)scale(0.996264009963)" xlink:href="#Nimbus_Roman_No9_L_Regular-48"/>
       <use transform="translate(224.159402242 0.0)scale(0.996264009963)" xlink:href="#Nimbus_Roman_No9_L_Regular-110"/>
       <use transform="translate(273.97260274 0.0)scale(0.996264009963)" xlink:href="#Nimbus_Roman_No9_L_Regular-101"/>
       <use transform="translate(318.206171437 0.0)scale(0.996264009963)" xlink:href="#Nimbus_Roman_No9_L_Regular-117"/>
       <use transform="translate(368.019371935 0.0)scale(0.996264009963)" xlink:href="#Nimbus_Roman_No9_L_Regular-114"/>
       <use transform="translate(401.194601665 0.0)scale(0.996264009963)" xlink:href="#Nimbus_Roman_No9_L_Regular-111"/>
       <use transform="translate(451.007802163 0.0)scale(0.996264009963)" xlink:href="#Nimbus_Roman_No9_L_Regular-110"/>
       <use transform="translate(500.821002661 0.0)scale(0.996264009963)" xlink:href="#Nimbus_Roman_No9_L_Regular-115"/>
      </g>
      <!-- 50 dimensions -->
      <g transform="translate(97.6911382171 201.895251515)scale(0.06 -0.06)">
       <use transform="scale(0.996264009963)" xlink:href="#Nimbus_Roman_No9_L_Regular-53"/>
       <use transform="translate(49.8132004981 0.0)scale(0.996264009963)" xlink:href="#Nimbus_Roman_No9_L_Regular-48"/>
       <use transform="translate(124.533001245 0.0)scale(0.996264009963)" xlink:href="#Nimbus_Roman_No9_L_Regular-100"/>
       <use transform="translate(174.346201743 0.0)scale(0.996264009963)" xlink:href="#Nimbus_Roman_No9_L_Regular-105"/>
       <use transform="translate(202.041371347 0.0)scale(0.996264009963)" xlink:href="#Nimbus_Roman_No9_L_Regular-109"/>
       <use transform="translate(279.549741448 0.0)scale(0.996264009963)" xlink:href="#Nimbus_Roman_No9_L_Regular-101"/>
       <use transform="translate(323.783310146 0.0)scale(0.996264009963)" xlink:href="#Nimbus_Roman_No9_L_Regular-110"/>
       <use transform="translate(373.596510644 0.0)scale(0.996264009963)" xlink:href="#Nimbus_Roman_No9_L_Regular-115"/>
       <use transform="translate(412.350216838 0.0)scale(0.996264009963)" xlink:href="#Nimbus_Roman_No9_L_Regular-105"/>
       <use transform="translate(440.045386441 0.0)scale(0.996264009963)" xlink:href="#Nimbus_Roman_No9_L_Regular-111"/>
       <use transform="translate(489.85858694 0.0)scale(0.996264009963)" xlink:href="#Nimbus_Roman_No9_L_Regular-110"/>
       <use transform="translate(539.671787438 0.0)scale(0.996264009963)" xlink:href="#Nimbus_Roman_No9_L_Regular-115"/>
      </g>
     </g>
    </g>
   </g>
   <g id="matplotlib.axis_2">
    <g id="ytick_1">
     <g id="line2d_10">
      <defs>
       <path d="
M0 0
L4 0" id="m728421d6d4" style="stroke:#000000;stroke-width:0.5;"/>
      </defs>
      <g>
       <use style="stroke:#000000;stroke-width:0.5;" x="25.5118248" xlink:href="#m728421d6d4" y="183.68513856"/>
      </g>
     </g>
     <g id="text_4">
      <!-- $0$ -->
      <g transform="translate(18.5230327701 185.064457082)scale(0.06 -0.06)">
       <use transform="scale(0.996264009963)" xlink:href="#Nimbus_Roman_No9_L_Regular-48"/>
      </g>
     </g>
    </g>
    <g id="ytick_2">
     <g id="line2d_11">
      <g>
       <use style="stroke:#000000;stroke-width:0.5;" x="25.5118248" xlink:href="#m728421d6d4" y="141.080391144"/>
      </g>
     </g>
     <g id="text_5">
      <!-- $50$ -->
      <g transform="translate(15.5342407402 142.459709666)scale(0.06 -0.06)">
       <use transform="scale(0.996264009963)" xlink:href="#Nimbus_Roman_No9_L_Regular-53"/>
       <use transform="translate(49.8132004981 0.0)scale(0.996264009963)" xlink:href="#Nimbus_Roman_No9_L_Regular-48"/>
      </g>
     </g>
    </g>
    <g id="ytick_3">
     <g id="line2d_12">
      <g>
       <use style="stroke:#000000;stroke-width:0.5;" x="25.5118248" xlink:href="#m728421d6d4" y="98.475643728"/>
      </g>
     </g>
     <g id="text_6">
      <!-- $100$ -->
      <g transform="translate(12.5454487103 99.8549622503)scale(0.06 -0.06)">
       <use transform="scale(0.996264009963)" xlink:href="#Nimbus_Roman_No9_L_Regular-49"/>
       <use transform="translate(49.8132004981 0.0)scale(0.996264009963)" xlink:href="#Nimbus_Roman_No9_L_Regular-48"/>
       <use transform="translate(99.6264009963 0.0)scale(0.996264009963)" xlink:href="#Nimbus_Roman_No9_L_Regular-48"/>
      </g>
     </g>
    </g>
    <g id="ytick_4">
     <g id="line2d_13">
      <g>
       <use style="stroke:#000000;stroke-width:0.5;" x="25.5118248" xlink:href="#m728421d6d4" y="55.870896312"/>
      </g>
     </g>
     <g id="text_7">
      <!-- $150$ -->
      <g transform="translate(12.5454487103 57.2502148343)scale(0.06 -0.06)">
       <use transform="scale(0.996264009963)" xlink:href="#Nimbus_Roman_No9_L_Regular-49"/>
       <use transform="translate(49.8132004981 0.0)scale(0.996264009963)" xlink:href="#Nimbus_Roman_No9_L_Regular-53"/>
       <use transform="translate(99.6264009963 0.0)scale(0.996264009963)" xlink:href="#Nimbus_Roman_No9_L_Regular-48"/>
      </g>
     </g>
    </g>
    <g id="ytick_5">
     <g id="line2d_14">
      <g>
       <use style="stroke:#000000;stroke-width:0.5;" x="25.5118248" xlink:href="#m728421d6d4" y="13.266148896"/>
      </g>
     </g>
     <g id="text_8">
      <!-- $200$ -->
      <defs>
       <path d="
M47.5 13.625
L46.2031 14.125
C42.5 8.48438 41.2031 7.59375 36.7031 7.59375
L12.7969 7.59375
L29.5938 25.0312
C38.5 34.2344 42.4062 41.75 42.4062 49.4844
C42.4062 59.3906 34.2969 67 23.9062 67
C18.4062 67 13.2031 64.8281 9.5 60.8594
C6.29688 57.4688 4.79688 54.2969 3.09375 47.25
L5.20312 46.75
C9.20312 56.4375 12.7969 59.6094 19.7031 59.6094
C28.0938 59.6094 33.7969 53.9688 33.7969 45.6406
C33.7969 37.9219 29.2031 28.7188 20.7969 19.9062
L3 1.20312
L3 0
L42 0
z
" id="Nimbus_Roman_No9_L_Regular-50"/>
      </defs>
      <g transform="translate(12.5454487103 14.6454674183)scale(0.06 -0.06)">
       <use transform="scale(0.996264009963)" xlink:href="#Nimbus_Roman_No9_L_Regular-50"/>
       <use transform="translate(49.8132004981 0.0)scale(0.996264009963)" xlink:href="#Nimbus_Roman_No9_L_Regular-48"/>
       <use transform="translate(99.6264009963 0.0)scale(0.996264009963)" xlink:href="#Nimbus_Roman_No9_L_Regular-48"/>
      </g>
     </g>
    </g>
    <g id="text_9">
     <!-- Simulation time (s) -->
     <defs>
      <path d="
M1.90625 62.5
L2.5 62.5
C3.59375 62.5 4.79688 62.5 5.59375 62.5
C8.79688 62.5 9.79688 61.0938 9.79688 56.4062
L9.79688 8.70312
C9.79688 3.29688 8.40625 2 2.09375 1.5
L2.09375 0
L25.7031 0
L25.7031 1.70312
C19.4062 1.70312 18.2031 2.70312 18.2031 8.25
L18.2031 68.2969
L17.7969 68.5
C12.5938 66.7969 8.79688 65.7969 1.90625 64.1094
z
" id="Nimbus_Roman_No9_L_Regular-108"/>
      <path d="
M25.5 45
L15.4062 45
L15.4062 57.5781
C15.4062 58.6562 15.2969 59 14.7031 59
C14 58.0312 13.4062 57.0625 12.7031 56
C8.90625 50.125 4.59375 45 3 44.5781
C1.90625 43.8281 1.29688 43.0781 1.29688 42.5469
C1.29688 42.2344 1.40625 42.0156 1.70312 41.7969
L7 41.7969
L7 12.4062
C7 4.20312 10 0 15.9062 0
C20.7969 0 24.5938 2.39062 27.9062 7.53125
L26.5938 8.60938
C24.5 6.17188 22.7969 5.20312 20.5938 5.20312
C16.9062 5.20312 15.4062 7.82812 15.4062 13.9688
L15.4062 41.7969
L25.5 41.7969
z
" id="Nimbus_Roman_No9_L_Regular-116"/>
      <path d="
M44.7031 67
L42.5938 67
C42.2031 64.7031 41.0938 63.6094 39.4062 63.6094
C38.4062 63.6094 36.7031 64 35 64.8125
C31.2969 66.2031 27.5938 67 24.4062 67
C20.0938 67 15.7031 65.3594 12.4062 62.5469
C8.90625 59.5312 7.09375 55.4531 7.09375 50.4062
C7.09375 42.625 11.5 37.2031 22.7031 31.4688
C29.9062 27.7812 35.0938 23.7812 37.5938 20.0938
C38.5 18.8438 39 16.8125 39 14.4688
C39 7.95312 34 3.5 26.7031 3.5
C17.7969 3.5 11.5 8.76562 6.5 20.4375
L4.20312 20.4375
L7.20312 0
L9.40625 0
C9.5 1.89062 10.7031 3.29688 12.2031 3.29688
C13.2969 3.29688 15 2.90625 16.9062 2.23438
C20.7031 0.78125 24.7031 0 28.7031 0
C40.2031 0 49.0938 7.65625 49.0938 17.6406
C49.0938 25.5938 43.5938 31.8906 30.4062 38.7656
C19.9062 44.4062 15.7031 48.6562 15.7031 53.8906
C15.7031 59.2188 19.9062 62.9062 26.0938 62.9062
C30.5938 62.9062 34.7969 61 38.2969 57.4062
C41.4062 54.2031 42.7969 51.6094 44.4062 45.7031
L46.9062 45.7031
z
" id="Nimbus_Roman_No9_L_Regular-83"/>
      <path d="
M3.79688 -17.7031
C11.2031 -12.9062 14.2031 -10.2969 17.9062 -5.70312
C25 3 28.5 13 28.5 24.7031
C28.5 37.5 24.7969 47.2031 16 57.4062
C11.9062 62.2031 9.29688 64.4062 4.09375 67.5938
L2.90625 66
C10.9062 59.7031 13.5938 56.2031 16.4062 48.7031
C18.7969 42 19.9062 34.4062 19.9062 24.4062
C19.9062 14 18.5938 5.70312 15.9062 -0.40625
C13.0938 -6.70312 10.0938 -10.2969 2.90625 -16.0938
z
" id="Nimbus_Roman_No9_L_Regular-41"/>
      <path d="
M29.5 67.5938
C22.0938 62.7969 19.0938 60.2031 15.4062 55.5938
C8.29688 46.9062 4.79688 36.9062 4.79688 25.2031
C4.79688 12.5 8.5 2.70312 17.2969 -7.5
C21.4062 -12.2969 24 -14.5 29.2031 -17.7031
L30.4062 -16.0938
C22.4062 -9.79688 19.5938 -6.29688 16.9062 1.20312
C14.5 7.90625 13.4062 15.5 13.4062 25.5
C13.4062 36 14.7031 44.2031 17.4062 50.4062
C20.2031 56.5938 23.2031 60.2031 30.4062 66
z
" id="Nimbus_Roman_No9_L_Regular-40"/>
      <path d="
M44.2031 7.54688
C42.5 6.1875 41.2969 5.70312 39.7969 5.70312
C37.5 5.70312 36.7969 7.0625 36.7969 11.3594
L36.7969 30.3906
C36.7969 35.4688 36.2969 38.2812 34.7969 40.6406
C32.5938 44.1406 28.2969 46 22.4062 46
C13 46 5.59375 41.2031 5.59375 35.0469
C5.59375 32.7969 7.59375 30.8438 9.90625 30.8438
C12.2969 30.8438 14.4062 32.7969 14.4062 34.9375
C14.4062 35.3125 14.2969 35.7969 14.2031 36.4844
C14 37.375 13.9062 38.1406 13.9062 38.8281
C13.9062 41.4688 17.0938 43.5938 21.0938 43.5938
C26 43.5938 28.7031 40.7812 28.7031 35.5156
L28.7031 29.5781
C13.2969 23.5 11.5938 22.7188 7.29688 19
C5.09375 17.0469 3.70312 13.7031 3.70312 10.4844
C3.70312 4.3125 8.09375 0 14.2031 0
C18.5938 0 22.7031 2.07812 28.7969 7.26562
C29.2969 2.07812 31.0938 0 35.2031 0
C38.5938 0 40.7031 1.20312 44.2031 5
z

M28.7031 13.0469
C28.7031 10.0156 28.2031 9.125 26.0938 7.95312
C23.7031 6.59375 20.9062 5.70312 18.7969 5.70312
C15.2969 5.70312 12.5 9.03125 12.5 13.2344
L12.5 13.6406
C12.5 19.4062 16.5938 22.9375 28.7031 27.2344
z
" id="Nimbus_Roman_No9_L_Regular-97"/>
     </defs>
     <g transform="translate(6.25135138001 121.557710854)rotate(-90.0)scale(0.06 -0.06)">
      <use transform="scale(0.996264009963)" xlink:href="#Nimbus_Roman_No9_L_Regular-83"/>
      <use transform="translate(55.3916769633 0.0)scale(0.996264009963)" xlink:href="#Nimbus_Roman_No9_L_Regular-105"/>
      <use transform="translate(83.0868465666 0.0)scale(0.996264009963)" xlink:href="#Nimbus_Roman_No9_L_Regular-109"/>
      <use transform="translate(160.595216668 0.0)scale(0.996264009963)" xlink:href="#Nimbus_Roman_No9_L_Regular-117"/>
      <use transform="translate(210.408417166 0.0)scale(0.996264009963)" xlink:href="#Nimbus_Roman_No9_L_Regular-108"/>
      <use transform="translate(238.103586769 0.0)scale(0.996264009963)" xlink:href="#Nimbus_Roman_No9_L_Regular-97"/>
      <use transform="translate(282.337155467 0.0)scale(0.996264009963)" xlink:href="#Nimbus_Roman_No9_L_Regular-116"/>
      <use transform="translate(310.03232507 0.0)scale(0.996264009963)" xlink:href="#Nimbus_Roman_No9_L_Regular-105"/>
      <use transform="translate(337.727494673 0.0)scale(0.996264009963)" xlink:href="#Nimbus_Roman_No9_L_Regular-111"/>
      <use transform="translate(387.540695171 0.0)scale(0.996264009963)" xlink:href="#Nimbus_Roman_No9_L_Regular-110"/>
      <use transform="translate(462.260495919 0.0)scale(0.996264009963)" xlink:href="#Nimbus_Roman_No9_L_Regular-116"/>
      <use transform="translate(489.955665522 0.0)scale(0.996264009963)" xlink:href="#Nimbus_Roman_No9_L_Regular-105"/>
      <use transform="translate(517.650835125 0.0)scale(0.996264009963)" xlink:href="#Nimbus_Roman_No9_L_Regular-109"/>
      <use transform="translate(595.159205226 0.0)scale(0.996264009963)" xlink:href="#Nimbus_Roman_No9_L_Regular-101"/>
      <use transform="translate(664.299374173 0.0)scale(0.996264009963)" xlink:href="#Nimbus_Roman_No9_L_Regular-40"/>
      <use transform="translate(697.474603902 0.0)scale(0.996264009963)" xlink:href="#Nimbus_Roman_No9_L_Regular-115"/>
      <use transform="translate(736.228310097 0.0)scale(0.996264009963)" xlink:href="#Nimbus_Roman_No9_L_Regular-41"/>
     </g>
    </g>
   </g>
   <g id="patch_4">
    <path d="
M25.5118 183.685
L127.559 183.685" style="fill:none;stroke:#000000;"/>
   </g>
   <g id="patch_5">
    <path d="
M25.5118 183.685
L25.5118 13.2661" style="fill:none;stroke:#000000;"/>
   </g>
   <g id="text_10">
    <!-- Brian -->
    <defs>
     <path d="
M1.70312 66
L1.70312 63.7969
C10.0938 63.7969 11.2969 62.7031 11.2969 55.2656
L11.2969 10.7344
C11.2969 3.29688 10 2 1.70312 2
L1.70312 0
L35.0938 0
C42.9062 0 50 2.125 53.7031 5.5625
C57.2969 8.8125 59.2969 13.3594 59.2969 18.2031
C59.2969 22.6719 57.5 26.7188 54.4062 29.6406
C51.4062 32.375 48.7031 33.5938 42.2031 35.2031
C47.4062 36.4688 49.5 37.4531 51.9062 39.5312
C54.4062 41.6875 55.9062 45.2969 55.9062 49.3281
C55.9062 60.3125 47 66 29.7031 66
z

M21.5 33
C31.2031 33 35.7969 32.5 39.4062 30.9688
C45.0938 28.5469 47.7969 24.5 47.7969 18.1094
C47.7969 12.6406 45.7031 8.67188 41.7031 6.34375
C38.5 4.53125 34.4062 3.71875 27.7969 3.71875
C22.9062 3.71875 21.5 4.625 21.5 7.875
z

M21.5 37
L21.5 59.375
C21.5 61.4062 22.2031 62.2969 23.7031 62.2969
L28.0938 62.2969
C39.5938 62.2969 45.7031 57.6094 45.7031 48.9219
C45.7031 41.2969 40.4062 37 31 37
z
" id="Nimbus_Roman_No9_L_Regular-66"/>
    </defs>
    <g style="fill:#238b45;" transform="translate(46.6914529358 33.8417571459)scale(0.072 -0.072)">
     <use transform="scale(0.996264009963)" xlink:href="#Nimbus_Roman_No9_L_Regular-66"/>
     <use transform="translate(66.4500311333 0.0)scale(0.996264009963)" xlink:href="#Nimbus_Roman_No9_L_Regular-114"/>
     <use transform="translate(99.6252608626 0.0)scale(0.996264009963)" xlink:href="#Nimbus_Roman_No9_L_Regular-105"/>
     <use transform="translate(127.320430466 0.0)scale(0.996264009963)" xlink:href="#Nimbus_Roman_No9_L_Regular-97"/>
     <use transform="translate(171.553999163 0.0)scale(0.996264009963)" xlink:href="#Nimbus_Roman_No9_L_Regular-110"/>
    </g>
   </g>
   <g id="text_11">
    <!-- NEURON -->
    <defs>
     <path d="
M61.0938 51.6406
C61.0938 61.6094 62.2969 63.1719 70.5 64.1406
L70.5 66
L47.2969 66
L47.2969 64.1406
C55.0938 63.5625 56.7031 61.4219 56.7031 51.6719
L56.7031 25.3594
C56.7031 18.7344 56 15.0312 54.4062 12.1094
C51.7031 7.42188 45.2969 4.40625 37.7969 4.40625
C30.7031 4.40625 25.7969 6.75 23.0938 11.3125
C21.2969 14.4375 20.5938 18.0469 20.5938 24.1875
L20.5938 55.375
C20.5938 62.3906 21.7031 63.4531 29.7031 64.1406
L29.7031 66
L1.40625 66
L1.40625 64.1406
C9.29688 63.5625 10.4062 62.4844 10.4062 55.3594
L10.4062 24.8906
C10.4062 8.01562 18.5 0 35.5 0
C46.4062 0 53.9062 3.42188 57.7969 10.0625
C60.2031 14.1562 61.0938 18.6562 61.0938 26.1719
z
" id="Nimbus_Roman_No9_L_Regular-85"/>
     <path d="
M59.7031 16.8438
L56.9062 16.8438
C51.9062 6.07812 47.5938 3.70312 33.2969 3.70312
L30.5938 3.70312
C25.7031 3.70312 21.5 4.20312 20.7969 4.92188
C20.2969 5.21875 20.0938 6.3125 20.0938 8.03125
L20.0938 32.9062
L35.5 32.9062
C43.7031 32.9062 45.2031 31.5625 46.5 23
L48.7969 23
L48.7969 46.2031
L46.5 46.2031
C45.7969 42.2344 45.4062 40.7812 44.2969 39.4219
C43 37.7656 40.2031 37 35.5 37
L20.0938 37
L20.0938 58.8438
C20.0938 61.6094 20.7031 62.2031 23.4062 62.2031
L36.9062 62.2031
C48.2031 62.2031 50.4062 60.7188 52.0938 51.7812
L54.5938 51.7812
L54.2969 66
L1.20312 66
L1.20312 64.0938
C8.59375 63.5 9.90625 62.0938 9.90625 55.0781
L9.90625 10.6094
C9.90625 3.59375 8.5 2.09375 1.20312 2.09375
L1.20312 0
L55.2031 0
z
" id="Nimbus_Roman_No9_L_Regular-69"/>
     <path d="
M65.9062 1.89062
C62.0938 2.1875 60.0938 3.20312 57.2031 6.625
L36.5938 32.2031
C43.2969 33.4844 46.2969 34.6719 49.5938 37.3125
C52.7969 39.8906 54.7031 44.0312 54.7031 48.6406
C54.7031 52.8906 53.4062 56.5312 50.7969 59.3906
C47 63.4219 38.7031 66 29.2969 66
L1.70312 66
L1.70312 64.0938
C9.20312 63.2969 10.2031 62.2031 10.2031 55.125
L10.2031 11.9531
C10.2031 3.6875 9.20312 2.48438 1.70312 1.89062
L1.70312 0
L29.4062 0
L29.4062 2.09375
C21.7031 2.09375 20.4062 3.42188 20.4062 10.8125
L20.4062 31
L26 31
L49.7969 0
L65.9062 0
z

M20.4062 58.7812
C20.4062 61.5156 21.5 62.2969 25.5 62.2969
C38 62.2969 43.7969 58.0625 43.7969 48.7969
C43.7969 43.8594 41.7031 39.7188 38.0938 37.8594
C33.5 35.2812 30 34.7031 20.4062 34.7031
z
" id="Nimbus_Roman_No9_L_Regular-82"/>
     <path d="
M61.2031 -1.29688
L61.2031 51.2969
C61.2031 57.2969 62.2031 61 64.0938 62.2969
C65.5 63.2969 66.9062 63.7031 70.7031 64.0938
L70.7031 66
L47.2031 66
L47.2031 64.0938
C51 63.7969 52.4062 63.3906 53.9062 62.5
C55.9062 61.1094 56.7969 57.5156 56.7969 51.3438
L56.7969 17.75
L18.2969 66
L1.20312 66
L1.20312 64.0938
C5.5 64.0938 6.90625 63.2969 10.9062 58.6094
L10.9062 14.6562
C10.9062 4.39062 9.5 2.48438 1.20312 1.89062
L1.20312 0
L24.7031 0
L24.7031 2.09375
C17 2.09375 15.2969 4.39062 15.2969 14.5
L15.2969 53.7344
L59.5 -1.29688
z
" id="Nimbus_Roman_No9_L_Regular-78"/>
     <path d="
M36.0938 67
C17 67 3.40625 53.0312 3.40625 33.5
C3.40625 24.375 6.59375 15.5312 12 9.90625
C17.7969 3.79688 26.7031 0 35.5 0
C55.2031 0 68.7969 13.5938 68.7969 33.125
C68.7969 42.7188 65.9062 50.9844 60.4062 56.7969
C54.0938 63.5156 45.7031 67 36.0938 67
M36.0938 63.4062
C40.7031 63.4062 45.2969 61.6719 48.9062 58.5625
C54.2969 53.8281 57.4062 44.7344 57.4062 33.2188
C57.4062 27.5156 56.0938 20.8281 54.0938 15.7969
C53.2031 13.375 51.5 10.9531 49.2031 8.73438
C45.7031 5.34375 41.2031 3.60938 35.9062 3.60938
C31.2969 3.60938 26.7969 5.34375 23.2969 8.34375
C18.0938 12.7969 14.7969 22.5625 14.7969 33.3125
C14.7969 43.1719 17.5938 52.5625 21.7969 57.1094
C25.7031 61.2812 30.5938 63.4062 36.0938 63.4062" id="Nimbus_Roman_No9_L_Regular-79"/>
    </defs>
    <g style="fill:#984ea3;" transform="translate(118.894730672 114.497009479)scale(0.072 -0.072)">
     <use transform="scale(0.996264009963)" xlink:href="#Nimbus_Roman_No9_L_Regular-78"/>
     <use transform="translate(71.9299848469 0.0)scale(0.996264009963)" xlink:href="#Nimbus_Roman_No9_L_Regular-69"/>
     <use transform="translate(132.801615524 0.0)scale(0.996264009963)" xlink:href="#Nimbus_Roman_No9_L_Regular-85"/>
     <use transform="translate(204.731600371 0.0)scale(0.996264009963)" xlink:href="#Nimbus_Roman_No9_L_Regular-82"/>
     <use transform="translate(267.197517975 0.0)scale(0.996264009963)" xlink:href="#Nimbus_Roman_No9_L_Regular-79"/>
     <use transform="translate(339.127502821 0.0)scale(0.996264009963)" xlink:href="#Nimbus_Roman_No9_L_Regular-78"/>
    </g>
   </g>
   <g id="text_12">
    <!-- NEST -->
    <defs>
     <path d="
M25.4062 61.7969
L25.4062 11.7031
C25.4062 3.1875 24.2969 2.09375 16 2.09375
L16 0
L45.2031 0
L45.2031 2.09375
C37 2.09375 35.5938 3.39062 35.5938 10.7031
L35.5938 61.7969
L41 61.7969
C52.4062 61.7969 54.5938 60 56.9062 49.0469
L59.2969 49.0469
L58.7031 66
L2.29688 66
L1.70312 49.0469
L4.09375 49.0469
C6.5 59.8906 8.79688 61.7969 20 61.7969
z
" id="Nimbus_Roman_No9_L_Regular-84"/>
    </defs>
    <g style="fill:#ff7f00;" transform="translate(118.894730672 123.675638058)scale(0.072 -0.072)">
     <use transform="scale(0.996264009963)" xlink:href="#Nimbus_Roman_No9_L_Regular-78"/>
     <use transform="translate(71.9299848469 0.0)scale(0.996264009963)" xlink:href="#Nimbus_Roman_No9_L_Regular-69"/>
     <use transform="translate(132.801615524 0.0)scale(0.996264009963)" xlink:href="#Nimbus_Roman_No9_L_Regular-83"/>
     <use transform="translate(188.193292487 0.0)scale(0.996264009963)" xlink:href="#Nimbus_Roman_No9_L_Regular-84"/>
    </g>
   </g>
   <g id="text_13">
    <!-- Communication channel benchmarks -->
    <defs>
     <path d="
M0.703125 62.2969
C2 62.4062 2.90625 62.5 3.90625 62.5
C7.20312 62.5 8.20312 61.2031 8.20312 56.4062
L8.20312 8.20312
C8.20312 3 7.90625 2.70312 0.703125 1.5
L0.703125 0
L24.0938 0
L24.0938 1.59375
L22.0938 1.59375
C18.0938 1.59375 16.5938 3.01562 16.5938 6.54688
L16.5938 25.0938
L30.5938 6.40625
L30.9062 6
C31.0938 5.70312 31.2969 5.42188 31.5938 5.10938
C32.4062 4.14062 32.7031 3.54688 32.7031 3.0625
C32.7031 2.17188 31.7969 1.59375 30.5938 1.59375
L28.7031 1.59375
L28.7031 0
L50.5 0
L50.5 1.59375
C46.0938 1.59375 43 3.51562 38.7969 8.64062
L23.5 28.2031
L26.4062 30.9062
C33.5 37.5 39.7031 42.0938 42.5938 42.9062
C44.0938 43.2969 45.5 43.5 47.2031 43.5
L48 43.5
L48 45
L27.5938 45
L27.5938 43.5
C31.5 43.5 32.5938 43.0938 32.5938 41.7031
C32.5938 40.9062 31.7031 39.5 30.2969 38.2969
L16.5938 26.0938
L16.5938 68.0938
L16.2031 68.2969
C12.4062 67.0938 9.5 66.2969 3.70312 64.7031
L0.703125 63.9062
z
" id="Nimbus_Roman_No9_L_Regular-107"/>
     <path d="
M15.2969 69.1875
L14.7969 69.3906
C10.5938 67.8906 7.90625 67.0938 3.20312 65.7969
L0.296875 65
L0.296875 63.3906
C0.90625 63.5 1.29688 63.5 2 63.5
C6 63.5 6.90625 62.5938 6.90625 58.3906
L6.90625 6.42188
C6.90625 3.29688 15.4062 0 23.4062 0
C36.5938 0 46.7969 10.7656 46.7969 24.7656
C46.7969 36.7969 39.2031 46 29.2031 46
C23.0938 46 17.2969 42.4375 15.2969 37.5625
z

M15.2969 32.4062
C15.2969 36.1875 20 39.7031 25.2031 39.7031
C33 39.7031 38 32.1094 38 20.2344
C38 9.42188 33.2031 3.20312 25 3.20312
C19.7969 3.20312 15.2969 5.4375 15.2969 7.875
z
" id="Nimbus_Roman_No9_L_Regular-98"/>
     <path d="
M39.7969 16.3438
C35 9.53125 31.4062 7.20312 25.7031 7.20312
C16.5938 7.20312 10.2031 14.9844 10.2031 26.1719
C10.2031 36.1875 15.7031 43.0938 23.7969 43.0938
C27.4062 43.0938 28.7031 42.0312 29.7031 38.4219
L30.2969 36.2812
C31.0938 33.5625 32.9062 31.8125 35 31.8125
C37.5938 31.8125 39.7969 33.6719 39.7969 35.9219
C39.7969 41.3906 32.7969 46 24.4062 46
C19.5 46 14.4062 44.0469 10.2969 40.5312
C5.29688 36.2188 2.5 29.5625 2.5 21.8281
C2.5 9.09375 10.4062 0 21.5 0
C26 0 30 1.5625 33.5938 4.64062
C36.2969 6.98438 38.2031 9.65625 41.2031 15.4688
z
" id="Nimbus_Roman_No9_L_Regular-99"/>
     <path d="
M62 44.4062
L61.0938 67
L59 67
C58.4062 64.9062 56.7969 63.7031 54.7969 63.7031
C53.9062 63.7031 52.4062 64 50.9062 64.6094
C46 66.2031 41 67 36.2969 67
C28.0938 67 19.7969 64 13.5938 58.6562
C6.59375 52.625 2.79688 43.6094 2.79688 32.9219
C2.79688 23.8906 5.79688 15.5312 10.9062 10.0156
C16.9062 3.70312 26.0938 0 36 0
C47.2969 0 57.2031 4.46875 63.2969 12.3125
L61.5 14.0312
C54.0938 7.26562 47.5 4.40625 39.2031 4.40625
C32.9062 4.40625 27.2969 6.34375 23 10.0156
C17.5 14.75 14.4062 23.4531 14.4062 34.1875
C14.4062 51.7031 23.7031 63 38.2031 63
C43.9062 63 49.0938 60.9062 53.0938 56.9062
C56.2969 53.7031 57.7969 50.9062 59.7031 44.4062
z
" id="Nimbus_Roman_No9_L_Regular-67"/>
     <path d="
M15.7031 34.2969
C19.9062 38.9062 22.9062 40.5938 26.7969 40.5938
C31.7969 40.5938 34.2969 37 34.2969 30
L34.2969 10.2031
C34.2969 3.40625 33.2969 2.09375 27.5 1.5
L27.5 0
L48.7031 0
L48.7031 1.5
C43.2969 2.5 42.7031 3.29688 42.7031 10.2031
L42.7031 30.0938
C42.7031 40.5938 38.5 46 30.4062 46
C24.5 46 20.2969 43.5938 15.7031 37.5938
L15.7031 68.0938
L15.2031 68.3906
C11.7969 67.1875 9.29688 66.3906 3.70312 64.7969
L1 64
L1 62.4062
C1.40625 62.5 1.70312 62.5 2.20312 62.5
C6.5 62.5 7.29688 61.6875 7.29688 57.375
L7.29688 10.2188
C7.29688 3.20312 6.70312 2.29688 0.90625 1.5
L0.90625 0
L22.5 0
L22.5 1.5
C16.7031 2.09375 15.7031 3.29688 15.7031 10.2031
z
" id="Nimbus_Roman_No9_L_Regular-104"/>
    </defs>
    <g transform="translate(34.6956602928 9.38272459997)scale(0.072 -0.072)">
     <use transform="scale(0.996264009963)" xlink:href="#Nimbus_Roman_No9_L_Regular-67"/>
     <use transform="translate(66.4500311333 0.0)scale(0.996264009963)" xlink:href="#Nimbus_Roman_No9_L_Regular-111"/>
     <use transform="translate(116.263231631 0.0)scale(0.996264009963)" xlink:href="#Nimbus_Roman_No9_L_Regular-109"/>
     <use transform="translate(193.771601733 0.0)scale(0.996264009963)" xlink:href="#Nimbus_Roman_No9_L_Regular-109"/>
     <use transform="translate(271.279971834 0.0)scale(0.996264009963)" xlink:href="#Nimbus_Roman_No9_L_Regular-117"/>
     <use transform="translate(321.093172332 0.0)scale(0.996264009963)" xlink:href="#Nimbus_Roman_No9_L_Regular-110"/>
     <use transform="translate(370.90637283 0.0)scale(0.996264009963)" xlink:href="#Nimbus_Roman_No9_L_Regular-105"/>
     <use transform="translate(398.601542434 0.0)scale(0.996264009963)" xlink:href="#Nimbus_Roman_No9_L_Regular-99"/>
     <use transform="translate(442.835111131 0.0)scale(0.996264009963)" xlink:href="#Nimbus_Roman_No9_L_Regular-97"/>
     <use transform="translate(487.068679829 0.0)scale(0.996264009963)" xlink:href="#Nimbus_Roman_No9_L_Regular-116"/>
     <use transform="translate(514.763849432 0.0)scale(0.996264009963)" xlink:href="#Nimbus_Roman_No9_L_Regular-105"/>
     <use transform="translate(542.459019035 0.0)scale(0.996264009963)" xlink:href="#Nimbus_Roman_No9_L_Regular-111"/>
     <use transform="translate(592.272219533 0.0)scale(0.996264009963)" xlink:href="#Nimbus_Roman_No9_L_Regular-110"/>
     <use transform="translate(666.99202028 0.0)scale(0.996264009963)" xlink:href="#Nimbus_Roman_No9_L_Regular-99"/>
     <use transform="translate(711.225588978 0.0)scale(0.996264009963)" xlink:href="#Nimbus_Roman_No9_L_Regular-104"/>
     <use transform="translate(761.038789476 0.0)scale(0.996264009963)" xlink:href="#Nimbus_Roman_No9_L_Regular-97"/>
     <use transform="translate(805.272358173 0.0)scale(0.996264009963)" xlink:href="#Nimbus_Roman_No9_L_Regular-110"/>
     <use transform="translate(855.085558672 0.0)scale(0.996264009963)" xlink:href="#Nimbus_Roman_No9_L_Regular-110"/>
     <use transform="translate(904.89875917 0.0)scale(0.996264009963)" xlink:href="#Nimbus_Roman_No9_L_Regular-101"/>
     <use transform="translate(949.132327867 0.0)scale(0.996264009963)" xlink:href="#Nimbus_Roman_No9_L_Regular-108"/>
     <use transform="translate(1001.73409772 0.0)scale(0.996264009963)" xlink:href="#Nimbus_Roman_No9_L_Regular-98"/>
     <use transform="translate(1051.54729822 0.0)scale(0.996264009963)" xlink:href="#Nimbus_Roman_No9_L_Regular-101"/>
     <use transform="translate(1095.78086692 0.0)scale(0.996264009963)" xlink:href="#Nimbus_Roman_No9_L_Regular-110"/>
     <use transform="translate(1145.59406741 0.0)scale(0.996264009963)" xlink:href="#Nimbus_Roman_No9_L_Regular-99"/>
     <use transform="translate(1189.82763611 0.0)scale(0.996264009963)" xlink:href="#Nimbus_Roman_No9_L_Regular-104"/>
     <use transform="translate(1239.64083661 0.0)scale(0.996264009963)" xlink:href="#Nimbus_Roman_No9_L_Regular-109"/>
     <use transform="translate(1317.14920671 0.0)scale(0.996264009963)" xlink:href="#Nimbus_Roman_No9_L_Regular-97"/>
     <use transform="translate(1361.38277541 0.0)scale(0.996264009963)" xlink:href="#Nimbus_Roman_No9_L_Regular-114"/>
     <use transform="translate(1394.55800514 0.0)scale(0.996264009963)" xlink:href="#Nimbus_Roman_No9_L_Regular-107"/>
     <use transform="translate(1444.37120564 0.0)scale(0.996264009963)" xlink:href="#Nimbus_Roman_No9_L_Regular-115"/>
    </g>
   </g>
  </g>
  <g id="axes_2">
   <g id="patch_6">
    <path d="
M102.144 105.736
L159.425 105.736
L159.425 16.2661
L102.144 16.2661
z
" style="fill:#ffffff;"/>
   </g>
   <g id="patch_7">
    <path d="
M102.144 105.736
L113.118 183.685" style="fill:none;stroke:#808080;"/>
   </g>
   <g id="patch_8">
    <path d="
M159.425 105.736
L121.302 183.685" style="fill:none;stroke:#808080;"/>
   </g>
   <g id="line2d_15">
    <path clip-path="url(#p886bc70ce0)" d="
M-490.886 -315.211" style="fill:none;stroke:#238b45;stroke-linecap:square;"/>
    <g clip-path="url(#p886bc70ce0)">
     <use style="fill:#238b45;stroke:#238b45;stroke-width:0.5;" x="-490.885570248" xlink:href="#m49b4907c93" y="-315.21051261"/>
     <use style="fill:#238b45;stroke:#238b45;stroke-width:0.5;" x="-389.800981417" xlink:href="#m49b4907c93" y="-954.753901505"/>
     <use style="fill:#238b45;stroke:#238b45;stroke-width:0.5;" x="-221.3266667" xlink:href="#m49b4907c93" y="-2059.39333128"/>
     <use style="fill:#238b45;stroke:#238b45;stroke-width:0.5;" x="115.621962734" xlink:href="#m49b4907c93" y="-4475.25974844"/>
    </g>
   </g>
   <g id="line2d_16">
    <path clip-path="url(#p886bc70ce0)" d="
M-490.886 97.8135" style="fill:none;stroke:#984ea3;stroke-linecap:square;"/>
    <g clip-path="url(#p886bc70ce0)">
     <use style="fill:#984ea3;stroke:#984ea3;stroke-width:0.5;" x="-490.885570248" xlink:href="#m6fcbe3cf07" y="97.8134543806"/>
     <use style="fill:#984ea3;stroke:#984ea3;stroke-width:0.5;" x="-389.800981417" xlink:href="#m6fcbe3cf07" y="69.5349214006"/>
     <use style="fill:#984ea3;stroke:#984ea3;stroke-width:0.5;" x="-221.3266667" xlink:href="#m6fcbe3cf07" y="-43.219821295"/>
     <use style="fill:#984ea3;stroke:#984ea3;stroke-width:0.5;" x="115.621962734" xlink:href="#m6fcbe3cf07" y="-390.167135174"/>
    </g>
   </g>
   <g id="line2d_17">
    <path clip-path="url(#p886bc70ce0)" d="
M-490.886 95.5801" style="fill:none;stroke:#ff7f00;stroke-linecap:square;"/>
    <g clip-path="url(#p886bc70ce0)">
     <use style="fill:#ff7f00;stroke:#ff7f00;stroke-width:0.5;" x="-490.885570248" xlink:href="#mac148a8bc8" y="95.5801397654"/>
     <use style="fill:#ff7f00;stroke:#ff7f00;stroke-width:0.5;" x="-389.800981417" xlink:href="#mac148a8bc8" y="77.6858924348"/>
     <use style="fill:#ff7f00;stroke:#ff7f00;stroke-width:0.5;" x="-221.3266667" xlink:href="#mac148a8bc8" y="3.35570766856"/>
     <use style="fill:#ff7f00;stroke:#ff7f00;stroke-width:0.5;" x="115.621962734" xlink:href="#mac148a8bc8" y="-325.91673512"/>
    </g>
   </g>
   <g id="line2d_18">
    <path clip-path="url(#p886bc70ce0)" d="
M-490.886 80.9649
M-1 39.6978
L115.622 25.6951" style="fill:none;stroke:#000000;stroke-linecap:square;"/>
    <g clip-path="url(#p886bc70ce0)">
     <use style="stroke:#000000;stroke-width:0.5;" x="-490.885570248" xlink:href="#m76eb5f4da3" y="80.9648663863"/>
     <use style="stroke:#000000;stroke-width:0.5;" x="-389.800981417" xlink:href="#m76eb5f4da3" y="75.7994666162"/>
     <use style="stroke:#000000;stroke-width:0.5;" x="-221.3266667" xlink:href="#m76eb5f4da3" y="66.1522178733"/>
     <use style="stroke:#000000;stroke-width:0.5;" x="115.621962734" xlink:href="#m76eb5f4da3" y="25.695090524"/>
    </g>
   </g>
   <g id="line2d_19">
    <path clip-path="url(#p886bc70ce0)" d="
M-490.886 100.981
M-1 86.406
L115.622 79.6942" style="fill:none;stroke:#08519c;stroke-linecap:square;"/>
    <g clip-path="url(#p886bc70ce0)">
     <use style="fill:#08519c;stroke:#08519c;stroke-width:0.5;" x="-490.885570248" xlink:href="#m5c4ea31fe1" y="100.981196395"/>
     <use style="fill:#08519c;stroke:#08519c;stroke-width:0.5;" x="-389.800981417" xlink:href="#m5c4ea31fe1" y="100.738084103"/>
     <use style="fill:#08519c;stroke:#08519c;stroke-width:0.5;" x="-221.3266667" xlink:href="#m5c4ea31fe1" y="99.0862192832"/>
     <use style="fill:#08519c;stroke:#08519c;stroke-width:0.5;" x="115.621962734" xlink:href="#m5c4ea31fe1" y="79.6942218152"/>
    </g>
   </g>
   <g id="line2d_20">
    <path clip-path="url(#p886bc70ce0)" d="
M-490.886 95.2708
M-1 88.5449
L115.622 87.0705" style="fill:none;stroke:#e41a1c;stroke-linecap:square;"/>
    <g clip-path="url(#p886bc70ce0)">
     <use style="fill:#e41a1c;stroke:#e41a1c;stroke-width:0.5;" x="-490.885570248" xlink:href="#m313d082634" y="95.2708216508"/>
     <use style="fill:#e41a1c;stroke:#e41a1c;stroke-width:0.5;" x="-389.800981417" xlink:href="#m313d082634" y="93.8554976593"/>
     <use style="fill:#e41a1c;stroke:#e41a1c;stroke-width:0.5;" x="-221.3266667" xlink:href="#m313d082634" y="91.33058015"/>
     <use style="fill:#e41a1c;stroke:#e41a1c;stroke-width:0.5;" x="115.621962734" xlink:href="#m313d082634" y="87.0704729163"/>
    </g>
   </g>
   <g id="matplotlib.axis_3"/>
   <g id="matplotlib.axis_4">
    <g id="ytick_6">
     <g id="line2d_21">
      <defs>
       <path d="
M0 0
L-4 0" id="mcb0005524f" style="stroke:#000000;stroke-width:0.5;"/>
      </defs>
      <g>
       <use style="stroke:#000000;stroke-width:0.5;" x="159.42528456" xlink:href="#mcb0005524f" y="105.73611847"/>
      </g>
     </g>
     <g id="text_14">
      <!-- $0$ -->
      <g transform="translate(163.42528456 107.115436992)scale(0.06 -0.06)">
       <use transform="scale(0.996264009963)" xlink:href="#Nimbus_Roman_No9_L_Regular-48"/>
      </g>
     </g>
    </g>
    <g id="ytick_7">
     <g id="line2d_22">
      <g>
       <use style="stroke:#000000;stroke-width:0.5;" x="159.42528456" xlink:href="#mcb0005524f" y="93.8067891931"/>
      </g>
     </g>
     <g id="text_15">
      <!-- $2$ -->
      <g transform="translate(163.42528456 95.1861077155)scale(0.06 -0.06)">
       <use transform="scale(0.996264009963)" xlink:href="#Nimbus_Roman_No9_L_Regular-50"/>
      </g>
     </g>
    </g>
    <g id="ytick_8">
     <g id="line2d_23">
      <g>
       <use style="stroke:#000000;stroke-width:0.5;" x="159.42528456" xlink:href="#mcb0005524f" y="81.8774599166"/>
      </g>
     </g>
     <g id="text_16">
      <!-- $4$ -->
      <defs>
       <path d="
M47.2031 23
L37 23
L37 67.5938
L32.5938 67.5938
L1.20312 23
L1.20312 16.6094
L29.2969 16.6094
L29.2969 0
L37 0
L37 16.6094
L47.2031 16.6094
z

M29.2031 23
L5.20312 23
L29.2031 57.375
z
" id="Nimbus_Roman_No9_L_Regular-52"/>
      </defs>
      <g transform="translate(163.42528456 83.256778439)scale(0.06 -0.06)">
       <use transform="scale(0.996264009963)" xlink:href="#Nimbus_Roman_No9_L_Regular-52"/>
      </g>
     </g>
    </g>
    <g id="ytick_9">
     <g id="line2d_24">
      <g>
       <use style="stroke:#000000;stroke-width:0.5;" x="159.42528456" xlink:href="#mcb0005524f" y="69.9481306402"/>
      </g>
     </g>
     <g id="text_17">
      <!-- $6$ -->
      <defs>
       <path d="
M44.5938 69.6094
C33.2031 68.6094 27.4062 66.7188 20.0938 61.625
C9.29688 53.9531 3.40625 42.5781 3.40625 29.2344
C3.40625 20.5469 6.09375 11.7812 10.4062 6.79688
C14.2031 2.40625 19.5938 0 25.7969 0
C38.2031 0 46.7969 9.45312 46.7969 23.2031
C46.7969 35.9375 39.5 44 28 44
C23.5938 44 21.5 43.2969 15.2031 39.5
C17.9062 54.6094 29.0938 65.4062 44.7969 68
z

M24.2031 39.4062
C32.7969 39.4062 37.7969 32.25 37.7969 19.8125
C37.7969 8.875 33.9062 2.8125 26.9062 2.8125
C18.0938 2.8125 12.7031 12.1562 12.7031 27.5625
C12.7031 32.6406 13.5 35.4219 15.5 36.9219
C17.5938 38.5 20.7031 39.4062 24.2031 39.4062" id="Nimbus_Roman_No9_L_Regular-54"/>
      </defs>
      <g transform="translate(163.42528456 71.3274491625)scale(0.06 -0.06)">
       <use transform="scale(0.996264009963)" xlink:href="#Nimbus_Roman_No9_L_Regular-54"/>
      </g>
     </g>
    </g>
    <g id="ytick_10">
     <g id="line2d_25">
      <g>
       <use style="stroke:#000000;stroke-width:0.5;" x="159.42528456" xlink:href="#mcb0005524f" y="58.0188013637"/>
      </g>
     </g>
     <g id="text_18">
      <!-- $8$ -->
      <defs>
       <path d="
M29 37.375
C38.9062 42.5312 42.4062 46.6094 42.4062 53.2188
C42.4062 61.1719 35.2031 67 25.2031 67
C14.2969 67 6.20312 60.5 6.20312 51.6562
C6.20312 45.3438 8.09375 42.5469 18.5938 33.6094
C7.79688 25.6406 5.59375 22.6406 5.59375 16.0156
C5.59375 6.60938 13.5 0 24.7969 0
C36.7969 0 44.5 6.42188 44.5 16.4062
C44.5 23.8906 41.0938 28.6406 29 37.375
M27.2031 27.4062
C34.5 22.3594 36.9062 18.8906 36.9062 13.4688
C36.9062 7.17188 32.4062 2.8125 25.9062 2.8125
C18.2969 2.8125 13.2031 8.42188 13.2031 16.8594
C13.2031 23.0469 15.4062 27.1094 21.2031 31.6719
z

M26.0938 38.3125
C17.2031 44.1094 13.5938 48.7031 13.5938 54.3125
C13.5938 60.1094 18.0938 64.2031 24.4062 64.2031
C31.2031 64.2031 35.5 59.8125 35.5 52.9062
C35.5 47.2031 32.7031 42.7031 27 38.9062
C26.5 38.6094 26.5 38.6094 26.0938 38.3125" id="Nimbus_Roman_No9_L_Regular-56"/>
      </defs>
      <g transform="translate(163.42528456 59.398119886)scale(0.06 -0.06)">
       <use transform="scale(0.996264009963)" xlink:href="#Nimbus_Roman_No9_L_Regular-56"/>
      </g>
     </g>
    </g>
    <g id="ytick_11">
     <g id="line2d_26">
      <g>
       <use style="stroke:#000000;stroke-width:0.5;" x="159.42528456" xlink:href="#mcb0005524f" y="46.0894720872"/>
      </g>
     </g>
     <g id="text_19">
      <!-- $10$ -->
      <g transform="translate(163.42528456 47.4687906095)scale(0.06 -0.06)">
       <use transform="scale(0.996264009963)" xlink:href="#Nimbus_Roman_No9_L_Regular-49"/>
       <use transform="translate(49.8132004981 0.0)scale(0.996264009963)" xlink:href="#Nimbus_Roman_No9_L_Regular-48"/>
      </g>
     </g>
    </g>
    <g id="ytick_12">
     <g id="line2d_27">
      <g>
       <use style="stroke:#000000;stroke-width:0.5;" x="159.42528456" xlink:href="#mcb0005524f" y="34.1601428107"/>
      </g>
     </g>
     <g id="text_20">
      <!-- $12$ -->
      <g transform="translate(163.42528456 35.5394613331)scale(0.06 -0.06)">
       <use transform="scale(0.996264009963)" xlink:href="#Nimbus_Roman_No9_L_Regular-49"/>
       <use transform="translate(49.8132004981 0.0)scale(0.996264009963)" xlink:href="#Nimbus_Roman_No9_L_Regular-50"/>
      </g>
     </g>
    </g>
    <g id="ytick_13">
     <g id="line2d_28">
      <g>
       <use style="stroke:#000000;stroke-width:0.5;" x="159.42528456" xlink:href="#mcb0005524f" y="22.2308135342"/>
      </g>
     </g>
     <g id="text_21">
      <!-- $14$ -->
      <g transform="translate(163.42528456 23.6101320566)scale(0.06 -0.06)">
       <use transform="scale(0.996264009963)" xlink:href="#Nimbus_Roman_No9_L_Regular-49"/>
       <use transform="translate(49.8132004981 0.0)scale(0.996264009963)" xlink:href="#Nimbus_Roman_No9_L_Regular-52"/>
      </g>
     </g>
    </g>
   </g>
   <g id="patch_9">
    <path d="
M102.144 16.2661
L159.425 16.2661" style="fill:none;stroke:#000000;"/>
   </g>
   <g id="patch_10">
    <path d="
M159.425 105.736
L159.425 16.2661" style="fill:none;stroke:#000000;"/>
   </g>
   <g id="patch_11">
    <path d="
M102.144 105.736
L159.425 105.736" style="fill:none;stroke:#000000;"/>
   </g>
   <g id="patch_12">
    <path d="
M102.144 105.736
L102.144 16.2661" style="fill:none;stroke:#000000;"/>
   </g>
   <g id="text_22">
    <!-- JavaNengo -->
    <defs>
     <path d="
M27.7969 55.3594
C27.7969 62.4844 28.9062 63.5625 37 64.1406
L37 66
L8.29688 66
L8.29688 64.1406
C16.5 63.5625 17.5938 62.4844 17.5938 55.375
L17.5938 10.2344
C17.5938 5.85938 16.4062 3.8125 13.7969 3.8125
C12.4062 3.8125 11.7969 4.59375 11.0938 7.01562
C10.0938 10.4375 8.5 11.9844 5.90625 11.9844
C3.20312 11.9844 1 9.73438 1 7.07812
C1 2.95312 5.09375 0 10.9062 0
C21.7031 0 27.7969 7.03125 27.7969 19.2344
z
" id="Nimbus_Roman_No9_L_Regular-74"/>
     <path d="
M47 39
L47 42.9062
L39.2969 42.9062
C37.2969 42.9062 35.7969 43.1875 33.7969 43.8438
L31.5938 44.5938
C28.9062 45.5312 26.2031 46 23.5938 46
C14.2969 46 6.90625 38.7031 6.90625 29.4844
C6.90625 23.0938 9.59375 19.2344 16.2031 15.8906
C14.2969 14.3125 12.5 12.7969 11.9062 12.3594
C8.59375 9.8125 7.29688 8.04688 7.29688 6.28125
C7.29688 4.42188 8.5 3.35938 12.5938 1.59375
C5.5 -4 2.79688 -7.5625 2.79688 -11.5469
C2.79688 -17.2656 10.5938 -22 20.0938 -22
C27.5938 -22 35.4062 -19.2031 40.5938 -14.6562
C44.4062 -11.3125 46.0938 -7.84375 46.0938 -3.75
C46.0938 2.95312 41.4062 7.5 34 7.5
L21.0938 7.5
C15.7969 7.5 13.2969 8.26562 13.2969 9.625
C13.2969 11.3281 16.5938 14.3125 19.2969 15
C20.2031 14.8906 20.9062 14.7969 21.2031 14.7969
C23.0938 14.5938 24.4062 14.5 25 14.5
C28.7031 14.5 32.7031 16.0312 35.7969 18.7969
C39.0938 21.6719 40.5938 25.2656 40.5938 30.3906
C40.5938 33.3594 40.0938 35.7188 38.7031 39
z

M14.7031 1.29688
C18 0.59375 26 0 30.9062 0
C40 0 43.2969 -1.45312 43.2969 -5.48438
C43.2969 -11.9531 35.7031 -16.2969 24.4062 -16.2969
C15.5938 -16.2969 9.79688 -13.0938 9.79688 -8.21875
C9.79688 -5.67188 10.5 -4.23438 14.7031 1.29688
M15.2031 33.6562
C15.2031 39.6406 18 43.2031 22.5938 43.2031
C25.7031 43.2031 28.2969 41.4688 29.9062 38.4219
C31.7031 34.875 32.9062 30.2031 32.9062 26.2344
C32.9062 20.5625 30 17 25.4062 17
C19.4062 17 15.2031 23.6094 15.2031 33.3438
z
" id="Nimbus_Roman_No9_L_Regular-103"/>
     <path d="
M47.7031 45
L33.7969 45
L33.7969 43.5
C37 43.2188 38.5 42.25 38.5 40.3906
C38.5 39.4219 38.2969 38.4531 37.9062 37.4844
L28 12.4062
L17.7969 37.2031
C17.2031 38.5625 16.9062 39.9062 16.9062 40.7969
C16.9062 42.5312 18 43.2188 21.5 43.5
L21.5 45
L1.90625 45
L1.90625 43.4062
C5.70312 43.4062 6.40625 42.4375 11 32.4375
L23 4.5625
C23.2031 3.98438 23.5 3.3125 23.7969 2.53125
C24.4062 0.78125 25 0 25.5938 0
C26.2031 0 26.9062 1.26562 28.4062 4.84375
L41.2031 35.9531
C44.0938 42.5312 44.7031 43.2188 47.7031 43.5
z
" id="Nimbus_Roman_No9_L_Regular-118"/>
    </defs>
    <g transform="translate(120.339243546 27.350283392)scale(0.072 -0.072)">
     <use transform="scale(0.996264009963)" xlink:href="#Nimbus_Roman_No9_L_Regular-74"/>
     <use transform="translate(38.7537061945 0.0)scale(0.996264009963)" xlink:href="#Nimbus_Roman_No9_L_Regular-97"/>
     <use transform="translate(80.9952637327 0.0)scale(0.996264009963)" xlink:href="#Nimbus_Roman_No9_L_Regular-118"/>
     <use transform="translate(128.317834609 0.0)scale(0.996264009963)" xlink:href="#Nimbus_Roman_No9_L_Regular-97"/>
     <use transform="translate(172.551403307 0.0)scale(0.996264009963)" xlink:href="#Nimbus_Roman_No9_L_Regular-78"/>
     <use transform="translate(244.481388154 0.0)scale(0.996264009963)" xlink:href="#Nimbus_Roman_No9_L_Regular-101"/>
     <use transform="translate(288.714956851 0.0)scale(0.996264009963)" xlink:href="#Nimbus_Roman_No9_L_Regular-110"/>
     <use transform="translate(338.528157349 0.0)scale(0.996264009963)" xlink:href="#Nimbus_Roman_No9_L_Regular-103"/>
     <use transform="translate(388.341357848 0.0)scale(0.996264009963)" xlink:href="#Nimbus_Roman_No9_L_Regular-111"/>
    </g>
   </g>
   <g id="text_23">
    <!-- PyNengo -->
    <defs>
     <path d="
M47.5 45
L34 45
L34 43.5
C37.2031 43.5 38.7969 42.5938 38.7969 40.9844
C38.7969 40.5781 38.7031 39.9844 38.4062 39.2812
L28.7031 11.5938
L17.2031 37.1406
C16.5938 38.5625 16.2031 39.875 16.2031 40.9688
C16.2031 42.7969 17.7031 43.5 22 43.5
L22 45
L1.40625 45
L1.40625 43.5938
C4 43.2031 5.70312 42.0938 6.5 40.3906
L17.9062 15.7031
L18.2031 14.8906
L19.7031 11.8906
C22.5 6.875 24.0938 3.26562 24.0938 1.75
C24.0938 0.25 21.7969 -6.07812 20.0938 -9.09375
C18.7031 -11.7031 16.5 -13.6094 15.0938 -13.6094
C14.5 -13.6094 13.5938 -13.4062 12.5938 -12.9062
C10.7031 -12.2031 9 -11.7969 7.29688 -11.7969
C5 -11.7969 3 -13.7969 3 -16.2031
C3 -19.5 6.20312 -22 10.4062 -22
C17.0938 -22 21.9062 -16.3906 27.2969 -1.9375
L42.7031 38.9844
C44 42.2031 45.0938 43.2031 47.5 43.5
z
" id="Nimbus_Roman_No9_L_Regular-121"/>
     <path d="
M20.2031 29.2969
C22.7969 29 24.5 29 27.0938 29
C34.9062 29 40.2969 29.9844 44.5938 32.375
C50.5938 35.5312 54.2031 41.5625 54.2031 48.0938
C54.2031 52.25 52.7969 56 50.0938 58.875
C46.0938 63.2344 37.4062 66 28 66
L1.59375 66
L1.59375 64.0938
C9 63.2969 10 62.2969 10 55.125
L10 11.9688
C10 3.59375 9.20312 2.59375 1.59375 1.90625
L1.59375 0
L29.5938 0
L29.5938 2
C21.7031 2 20.2031 3.40625 20.2031 10.8281
z

M20.2031 58.9375
C20.2031 61.6094 20.9062 62.2969 23.5938 62.2969
C37.0938 62.2969 43.2969 57.6562 43.2969 47.5
C43.2969 37.9375 37.4062 33 25.9062 33
C23.9062 33 22.5 33.1094 20.2031 33.2969
z
" id="Nimbus_Roman_No9_L_Regular-80"/>
    </defs>
    <g style="fill:#08519c;" transform="translate(120.339243546 72.5850198563)scale(0.072 -0.072)">
     <use transform="scale(0.996264009963)" xlink:href="#Nimbus_Roman_No9_L_Regular-80"/>
     <use transform="translate(55.3916769633 0.0)scale(0.996264009963)" xlink:href="#Nimbus_Roman_No9_L_Regular-121"/>
     <use transform="translate(105.204877461 0.0)scale(0.996264009963)" xlink:href="#Nimbus_Roman_No9_L_Regular-78"/>
     <use transform="translate(177.134862308 0.0)scale(0.996264009963)" xlink:href="#Nimbus_Roman_No9_L_Regular-101"/>
     <use transform="translate(221.368431006 0.0)scale(0.996264009963)" xlink:href="#Nimbus_Roman_No9_L_Regular-110"/>
     <use transform="translate(271.181631504 0.0)scale(0.996264009963)" xlink:href="#Nimbus_Roman_No9_L_Regular-103"/>
     <use transform="translate(320.994832002 0.0)scale(0.996264009963)" xlink:href="#Nimbus_Roman_No9_L_Regular-111"/>
    </g>
    <!-- OpenCL -->
    <defs>
     <path d="
M57.2969 17.3594
C55.5938 13.5625 54.2031 11.2656 52.7031 9.57812
C49.2031 5.70312 43.7031 3.90625 35.4062 3.90625
L28.7031 3.90625
C21.4062 3.90625 20.0938 4.5 20.0938 8
L20.0938 55.2969
C20.0938 62.4062 21.5 63.7969 29.4062 63.7969
L29.4062 66
L1.20312 66
L1.20312 64.0938
C8.59375 63.5 9.90625 62.0938 9.90625 55.0781
L9.90625 10.6094
C9.90625 3.59375 8.5 2.09375 1.20312 2.09375
L1.20312 0
L55 0
L59.7969 17.3594
z
" id="Nimbus_Roman_No9_L_Regular-76"/>
     <path d="
M0.90625 39.3281
C1.79688 39.4219 2.5 39.4219 3.40625 39.4219
C6.79688 39.4219 7.5 38.4219 7.5 33.6875
L7.5 -13.3594
C7.5 -18.5781 6.40625 -19.7031 0.5 -20.2969
L0.5 -22
L24.7031 -22
L24.7031 -20.2031
C17.2031 -20.2031 15.9062 -19.0469 15.9062 -12.375
L15.9062 4.28125
C19.4062 1 21.7969 0 26 0
C37.7969 0 47 10.9688 47 25.1562
C47 37.2812 40 46 30.2969 46
C24.7031 46 20.2969 43.5156 15.9062 38.1562
L15.9062 45.7969
L15.2969 46
C9.90625 43.9062 6.40625 42.5938 0.90625 40.9062
z

M15.9062 33.5781
C15.9062 36.5 21.5 40 26.0938 40
C33.5 40 38.4062 32.6094 38.4062 21.3125
C38.4062 10.5 33.5 3.20312 26.2969 3.20312
C21.5938 3.20312 15.9062 6.70312 15.9062 9.625
z
" id="Nimbus_Roman_No9_L_Regular-112"/>
    </defs>
    <g style="fill:#08519c;" transform="translate(120.339243546 79.9738796253)scale(0.072 -0.072)">
     <use transform="scale(0.996264009963)" xlink:href="#Nimbus_Roman_No9_L_Regular-79"/>
     <use transform="translate(71.9299848469 0.0)scale(0.996264009963)" xlink:href="#Nimbus_Roman_No9_L_Regular-112"/>
     <use transform="translate(121.743185345 0.0)scale(0.996264009963)" xlink:href="#Nimbus_Roman_No9_L_Regular-101"/>
     <use transform="translate(165.976754042 0.0)scale(0.996264009963)" xlink:href="#Nimbus_Roman_No9_L_Regular-110"/>
     <use transform="translate(215.789954541 0.0)scale(0.996264009963)" xlink:href="#Nimbus_Roman_No9_L_Regular-67"/>
     <use transform="translate(282.239985674 0.0)scale(0.996264009963)" xlink:href="#Nimbus_Roman_No9_L_Regular-76"/>
    </g>
   </g>
   <g id="text_24">
    <!-- PyNengo -->
    <g style="fill:#e41a1c;" transform="translate(120.339243546 90.1012008424)scale(0.072 -0.072)">
     <use transform="scale(0.996264009963)" xlink:href="#Nimbus_Roman_No9_L_Regular-80"/>
     <use transform="translate(55.3916769633 0.0)scale(0.996264009963)" xlink:href="#Nimbus_Roman_No9_L_Regular-121"/>
     <use transform="translate(105.204877461 0.0)scale(0.996264009963)" xlink:href="#Nimbus_Roman_No9_L_Regular-78"/>
     <use transform="translate(177.134862308 0.0)scale(0.996264009963)" xlink:href="#Nimbus_Roman_No9_L_Regular-101"/>
     <use transform="translate(221.368431006 0.0)scale(0.996264009963)" xlink:href="#Nimbus_Roman_No9_L_Regular-110"/>
     <use transform="translate(271.181631504 0.0)scale(0.996264009963)" xlink:href="#Nimbus_Roman_No9_L_Regular-103"/>
     <use transform="translate(320.994832002 0.0)scale(0.996264009963)" xlink:href="#Nimbus_Roman_No9_L_Regular-111"/>
    </g>
    <!-- reference -->
    <defs>
     <path d="
M30.9062 45
L18.5938 45
L18.5938 56.4219
C18.5938 62.1562 20.5 65.2031 24.2969 65.2031
C26.4062 65.2031 27.7969 64.2188 29.5938 61.3594
C31.2031 58.7969 32.4062 57.8125 34.0938 57.8125
C36.4062 57.8125 38.2969 59.5938 38.2969 61.8594
C38.2969 65.4375 33.9062 68 27.9062 68
C21.7031 68 16.4062 65.3281 13.7969 60.7969
C11.2031 56.4531 10.4062 52.8906 10.2969 45
L2.09375 45
L2.09375 41.7969
L10.2969 41.7969
L10.2969 10.25
C10.2969 2.89062 9.20312 1.70312 2 1.70312
L2 0
L28 0
L28 1.70312
C19.7969 1.70312 18.7031 2.8125 18.7031 10.3281
L18.7031 41.7969
L30.9062 41.7969
z
" id="Nimbus_Roman_No9_L_Regular-102"/>
    </defs>
    <g style="fill:#e41a1c;" transform="translate(120.339243546 97.4900606114)scale(0.072 -0.072)">
     <use transform="scale(0.996264009963)" xlink:href="#Nimbus_Roman_No9_L_Regular-114"/>
     <use transform="translate(33.1752297293 0.0)scale(0.996264009963)" xlink:href="#Nimbus_Roman_No9_L_Regular-101"/>
     <use transform="translate(77.4087984268 0.0)scale(0.996264009963)" xlink:href="#Nimbus_Roman_No9_L_Regular-102"/>
     <use transform="translate(110.584028156 0.0)scale(0.996264009963)" xlink:href="#Nimbus_Roman_No9_L_Regular-101"/>
     <use transform="translate(154.817596854 0.0)scale(0.996264009963)" xlink:href="#Nimbus_Roman_No9_L_Regular-114"/>
     <use transform="translate(187.992826583 0.0)scale(0.996264009963)" xlink:href="#Nimbus_Roman_No9_L_Regular-101"/>
     <use transform="translate(232.22639528 0.0)scale(0.996264009963)" xlink:href="#Nimbus_Roman_No9_L_Regular-110"/>
     <use transform="translate(282.039595779 0.0)scale(0.996264009963)" xlink:href="#Nimbus_Roman_No9_L_Regular-99"/>
     <use transform="translate(326.273164476 0.0)scale(0.996264009963)" xlink:href="#Nimbus_Roman_No9_L_Regular-101"/>
    </g>
   </g>
  </g>
 </g>
 <defs>
  <clipPath id="p886bc70ce0">
   <rect height="89.4699695736" width="57.2812670038" x="102.144017556" y="16.266148896"/>
  </clipPath>
  <clipPath id="pefa5609fe8">
   <rect height="170.418989664" width="102.0472992" x="25.5118248" y="13.266148896"/>
  </clipPath>
 </defs>
</svg>
