<?xml version="1.0" encoding="utf-8" standalone="no"?>
<!DOCTYPE svg PUBLIC "-//W3C//DTD SVG 1.1//EN"
  "http://www.w3.org/Graphics/SVG/1.1/DTD/svg11.dtd">
<!-- Created with matplotlib (http://matplotlib.org/) -->
<svg height="204pt" version="1.1" viewBox="0 0 170 204" width="170pt" xmlns="http://www.w3.org/2000/svg" xmlns:xlink="http://www.w3.org/1999/xlink">
 <defs>
  <style type="text/css">
*{stroke-linecap:butt;stroke-linejoin:round;}
  </style>
 </defs>
 <g id="figure_1">
  <g id="patch_1">
   <path d="
M0 204.095
L170.079 204.095
L170.079 0
L0 0
z
" style="fill:#ffffff;"/>
  </g>
  <g id="axes_1">
   <g id="patch_2">
    <path d="
M21.2599 186.747
L139.465 186.747
L139.465 14.2866
L21.2599 14.2866
z
" style="fill:#ffffff;"/>
   </g>
   <g id="line2d_1">
    <path clip-path="url(#pfc1d45a589)" d="
M42.3211 130.305
L63.5034 73.8637
L91.5995 -1" style="fill:none;stroke:#000000;stroke-linecap:square;"/>
    <defs>
     <path d="
M0 2
C0.530406 2 1.03916 1.78927 1.41421 1.41421
C1.78927 1.03916 2 0.530406 2 0
C2 -0.530406 1.78927 -1.03916 1.41421 -1.41421
C1.03916 -1.78927 0.530406 -2 0 -2
C-0.530406 -2 -1.03916 -1.78927 -1.41421 -1.41421
C-1.78927 -1.03916 -2 -0.530406 -2 0
C-2 0.530406 -1.78927 1.03916 -1.41421 1.41421
C-1.03916 1.78927 -0.530406 2 0 2
z
" id="m76eb5f4da3" style="stroke:#000000;stroke-width:0.5;"/>
    </defs>
    <g clip-path="url(#pfc1d45a589)">
     <use style="stroke:#000000;stroke-width:0.5;" x="42.3211103495" xlink:href="#m76eb5f4da3" y="130.305124051"/>
     <use style="stroke:#000000;stroke-width:0.5;" x="63.5034084021" xlink:href="#m76eb5f4da3" y="73.8636905664"/>
     <use style="stroke:#000000;stroke-width:0.5;" x="127.05030256" xlink:href="#m76eb5f4da3" y="-95.460609888"/>
    </g>
   </g>
   <g id="line2d_2">
    <path clip-path="url(#pfc1d45a589)" d="
M22.2584 170.253
L23.257 154.038
L25.3753 120.713
L31.73 17.3786" style="fill:none;stroke:#e41a1c;stroke-linecap:square;"/>
    <defs>
     <path d="
M0 2
C0.530406 2 1.03916 1.78927 1.41421 1.41421
C1.78927 1.03916 2 0.530406 2 0
C2 -0.530406 1.78927 -1.03916 1.41421 -1.41421
C1.03916 -1.78927 0.530406 -2 0 -2
C-0.530406 -2 -1.03916 -1.78927 -1.41421 -1.41421
C-1.78927 -1.03916 -2 -0.530406 -2 0
C-2 0.530406 -1.78927 1.03916 -1.41421 1.41421
C-1.03916 1.78927 -0.530406 2 0 2
z
" id="m313d082634" style="stroke:#e41a1c;stroke-width:0.5;"/>
    </defs>
    <g clip-path="url(#pfc1d45a589)">
     <use style="fill:#e41a1c;stroke:#e41a1c;stroke-width:0.5;" x="22.2584480511" xlink:href="#m313d082634" y="170.253129157"/>
     <use style="fill:#e41a1c;stroke:#e41a1c;stroke-width:0.5;" x="23.2570421021" xlink:href="#m313d082634" y="154.037962624"/>
     <use style="fill:#e41a1c;stroke:#e41a1c;stroke-width:0.5;" x="25.3752719074" xlink:href="#m313d082634" y="120.712903452"/>
     <use style="fill:#e41a1c;stroke:#e41a1c;stroke-width:0.5;" x="31.7299613231" xlink:href="#m313d082634" y="17.3786080764"/>
    </g>
   </g>
   <g id="line2d_3">
    <path clip-path="url(#pfc1d45a589)" d="
M22.2584 185.688
L23.257 185.138
L25.3753 183.723
L31.73 179.831
L42.3211 172.971
L63.5034 154.189
L127.05 79.01" style="fill:none;stroke:#023858;stroke-linecap:square;"/>
    <defs>
     <path d="
M0 2
C0.530406 2 1.03916 1.78927 1.41421 1.41421
C1.78927 1.03916 2 0.530406 2 0
C2 -0.530406 1.78927 -1.03916 1.41421 -1.41421
C1.03916 -1.78927 0.530406 -2 0 -2
C-0.530406 -2 -1.03916 -1.78927 -1.41421 -1.41421
C-1.78927 -1.03916 -2 -0.530406 -2 0
C-2 0.530406 -1.78927 1.03916 -1.41421 1.41421
C-1.03916 1.78927 -0.530406 2 0 2
z
" id="mad1cf506f5" style="stroke:#023858;stroke-width:0.5;"/>
    </defs>
    <g clip-path="url(#pfc1d45a589)">
     <use style="fill:#023858;stroke:#023858;stroke-width:0.5;" x="22.2584480511" xlink:href="#mad1cf506f5" y="185.688231018"/>
     <use style="fill:#023858;stroke:#023858;stroke-width:0.5;" x="23.2570421021" xlink:href="#mad1cf506f5" y="185.137562479"/>
     <use style="fill:#023858;stroke:#023858;stroke-width:0.5;" x="25.3752719074" xlink:href="#mad1cf506f5" y="183.722902906"/>
     <use style="fill:#023858;stroke:#023858;stroke-width:0.5;" x="31.7299613231" xlink:href="#mad1cf506f5" y="179.831082678"/>
     <use style="fill:#023858;stroke:#023858;stroke-width:0.5;" x="42.3211103495" xlink:href="#mad1cf506f5" y="172.970922277"/>
     <use style="fill:#023858;stroke:#023858;stroke-width:0.5;" x="63.5034084021" xlink:href="#mad1cf506f5" y="154.189365297"/>
     <use style="fill:#023858;stroke:#023858;stroke-width:0.5;" x="127.05030256" xlink:href="#mad1cf506f5" y="79.0100133718"/>
    </g>
   </g>
   <g id="line2d_4">
    <path clip-path="url(#pfc1d45a589)" d="
M22.2584 185.418
L23.257 184.898
L25.3753 183.575
L31.73 179.532
L42.3211 172.637
L63.5034 156.791
L127.05 84.4204" style="fill:none;stroke:#045a8d;stroke-linecap:square;"/>
    <defs>
     <path d="
M0 2
C0.530406 2 1.03916 1.78927 1.41421 1.41421
C1.78927 1.03916 2 0.530406 2 0
C2 -0.530406 1.78927 -1.03916 1.41421 -1.41421
C1.03916 -1.78927 0.530406 -2 0 -2
C-0.530406 -2 -1.03916 -1.78927 -1.41421 -1.41421
C-1.78927 -1.03916 -2 -0.530406 -2 0
C-2 0.530406 -1.78927 1.03916 -1.41421 1.41421
C-1.03916 1.78927 -0.530406 2 0 2
z
" id="ma95608ada9" style="stroke:#045a8d;stroke-width:0.5;"/>
    </defs>
    <g clip-path="url(#pfc1d45a589)">
     <use style="fill:#045a8d;stroke:#045a8d;stroke-width:0.5;" x="22.2584480511" xlink:href="#ma95608ada9" y="185.418283909"/>
     <use style="fill:#045a8d;stroke:#045a8d;stroke-width:0.5;" x="23.2570421021" xlink:href="#ma95608ada9" y="184.898452114"/>
     <use style="fill:#045a8d;stroke:#045a8d;stroke-width:0.5;" x="25.3752719074" xlink:href="#ma95608ada9" y="183.574943649"/>
     <use style="fill:#045a8d;stroke:#045a8d;stroke-width:0.5;" x="31.7299613231" xlink:href="#ma95608ada9" y="179.532175284"/>
     <use style="fill:#045a8d;stroke:#045a8d;stroke-width:0.5;" x="42.3211103495" xlink:href="#ma95608ada9" y="172.636569971"/>
     <use style="fill:#045a8d;stroke:#045a8d;stroke-width:0.5;" x="63.5034084021" xlink:href="#ma95608ada9" y="156.791359146"/>
     <use style="fill:#045a8d;stroke:#045a8d;stroke-width:0.5;" x="127.05030256" xlink:href="#ma95608ada9" y="84.4204385991"/>
    </g>
   </g>
   <g id="line2d_5">
    <path clip-path="url(#pfc1d45a589)" d="
M22.2584 185.392
L23.257 184.94
L25.3753 183.918
L31.73 181.14
L42.3211 176.192
L63.5034 164.985
L127.05 109.008" style="fill:none;stroke:#0570b0;stroke-linecap:square;"/>
    <defs>
     <path d="
M0 2
C0.530406 2 1.03916 1.78927 1.41421 1.41421
C1.78927 1.03916 2 0.530406 2 0
C2 -0.530406 1.78927 -1.03916 1.41421 -1.41421
C1.03916 -1.78927 0.530406 -2 0 -2
C-0.530406 -2 -1.03916 -1.78927 -1.41421 -1.41421
C-1.78927 -1.03916 -2 -0.530406 -2 0
C-2 0.530406 -1.78927 1.03916 -1.41421 1.41421
C-1.03916 1.78927 -0.530406 2 0 2
z
" id="m38a5f3b592" style="stroke:#0570b0;stroke-width:0.5;"/>
    </defs>
    <g clip-path="url(#pfc1d45a589)">
     <use style="fill:#0570b0;stroke:#0570b0;stroke-width:0.5;" x="22.2584480511" xlink:href="#m38a5f3b592" y="185.39196263"/>
     <use style="fill:#0570b0;stroke:#0570b0;stroke-width:0.5;" x="23.2570421021" xlink:href="#m38a5f3b592" y="184.94043249"/>
     <use style="fill:#0570b0;stroke:#0570b0;stroke-width:0.5;" x="25.3752719074" xlink:href="#m38a5f3b592" y="183.918214747"/>
     <use style="fill:#0570b0;stroke:#0570b0;stroke-width:0.5;" x="31.7299613231" xlink:href="#m38a5f3b592" y="181.14004297"/>
     <use style="fill:#0570b0;stroke:#0570b0;stroke-width:0.5;" x="42.3211103495" xlink:href="#m38a5f3b592" y="176.192008924"/>
     <use style="fill:#0570b0;stroke:#0570b0;stroke-width:0.5;" x="63.5034084021" xlink:href="#m38a5f3b592" y="164.985250608"/>
     <use style="fill:#0570b0;stroke:#0570b0;stroke-width:0.5;" x="127.05030256" xlink:href="#m38a5f3b592" y="109.007888895"/>
    </g>
   </g>
   <g id="line2d_6">
    <path clip-path="url(#pfc1d45a589)" d="
M22.2584 185.649
L23.257 185.649
L25.3753 185.379
L31.73 183.793
L42.3211 181.165
L63.5034 174.781
L127.05 144.873" style="fill:none;stroke:#3690c0;stroke-linecap:square;"/>
    <defs>
     <path d="
M0 2
C0.530406 2 1.03916 1.78927 1.41421 1.41421
C1.78927 1.03916 2 0.530406 2 0
C2 -0.530406 1.78927 -1.03916 1.41421 -1.41421
C1.03916 -1.78927 0.530406 -2 0 -2
C-0.530406 -2 -1.03916 -1.78927 -1.41421 -1.41421
C-1.78927 -1.03916 -2 -0.530406 -2 0
C-2 0.530406 -1.78927 1.03916 -1.41421 1.41421
C-1.03916 1.78927 -0.530406 2 0 2
z
" id="mfbd401747f" style="stroke:#3690c0;stroke-width:0.5;"/>
    </defs>
    <g clip-path="url(#pfc1d45a589)">
     <use style="fill:#3690c0;stroke:#3690c0;stroke-width:0.5;" x="22.2584480511" xlink:href="#mfbd401747f" y="185.649085517"/>
     <use style="fill:#3690c0;stroke:#3690c0;stroke-width:0.5;" x="23.2570421021" xlink:href="#mfbd401747f" y="185.649085517"/>
     <use style="fill:#3690c0;stroke:#3690c0;stroke-width:0.5;" x="25.3752719074" xlink:href="#mfbd401747f" y="185.379420998"/>
     <use style="fill:#3690c0;stroke:#3690c0;stroke-width:0.5;" x="31.7299613231" xlink:href="#mfbd401747f" y="183.792789459"/>
     <use style="fill:#3690c0;stroke:#3690c0;stroke-width:0.5;" x="42.3211103495" xlink:href="#mfbd401747f" y="181.165126234"/>
     <use style="fill:#3690c0;stroke:#3690c0;stroke-width:0.5;" x="63.5034084021" xlink:href="#mfbd401747f" y="174.78097219"/>
     <use style="fill:#3690c0;stroke:#3690c0;stroke-width:0.5;" x="127.05030256" xlink:href="#mfbd401747f" y="144.873286369"/>
    </g>
   </g>
   <g id="line2d_7">
    <path clip-path="url(#pfc1d45a589)" d="
M22.2584 186.025
L23.257 186.009
L25.3753 185.889
L31.73 185.056
L42.3211 183.592
L63.5034 180.191
L127.05 164.208" style="fill:none;stroke:#74a9cf;stroke-linecap:square;"/>
    <defs>
     <path d="
M0 2
C0.530406 2 1.03916 1.78927 1.41421 1.41421
C1.78927 1.03916 2 0.530406 2 0
C2 -0.530406 1.78927 -1.03916 1.41421 -1.41421
C1.03916 -1.78927 0.530406 -2 0 -2
C-0.530406 -2 -1.03916 -1.78927 -1.41421 -1.41421
C-1.78927 -1.03916 -2 -0.530406 -2 0
C-2 0.530406 -1.78927 1.03916 -1.41421 1.41421
C-1.03916 1.78927 -0.530406 2 0 2
z
" id="m9f2a5fee96" style="stroke:#74a9cf;stroke-width:0.5;"/>
    </defs>
    <g clip-path="url(#pfc1d45a589)">
     <use style="fill:#74a9cf;stroke:#74a9cf;stroke-width:0.5;" x="22.2584480511" xlink:href="#m9f2a5fee96" y="186.025192425"/>
     <use style="fill:#74a9cf;stroke:#74a9cf;stroke-width:0.5;" x="23.2570421021" xlink:href="#m9f2a5fee96" y="186.008730412"/>
     <use style="fill:#74a9cf;stroke:#74a9cf;stroke-width:0.5;" x="25.3752719074" xlink:href="#m9f2a5fee96" y="185.888672847"/>
     <use style="fill:#74a9cf;stroke:#74a9cf;stroke-width:0.5;" x="31.7299613231" xlink:href="#m9f2a5fee96" y="185.055527528"/>
     <use style="fill:#74a9cf;stroke:#74a9cf;stroke-width:0.5;" x="42.3211103495" xlink:href="#m9f2a5fee96" y="183.591737593"/>
     <use style="fill:#74a9cf;stroke:#74a9cf;stroke-width:0.5;" x="63.5034084021" xlink:href="#m9f2a5fee96" y="180.191092399"/>
     <use style="fill:#74a9cf;stroke:#74a9cf;stroke-width:0.5;" x="127.05030256" xlink:href="#m9f2a5fee96" y="164.208439464"/>
    </g>
   </g>
   <g id="line2d_8">
    <path clip-path="url(#pfc1d45a589)" d="
M22.2584 186.241
L23.257 186.295
L25.3753 186.122
L31.73 185.947
L42.3211 185.665
L63.5034 184.924
L127.05 180.812" style="fill:none;stroke:#a6bddb;stroke-linecap:square;"/>
    <defs>
     <path d="
M0 2
C0.530406 2 1.03916 1.78927 1.41421 1.41421
C1.78927 1.03916 2 0.530406 2 0
C2 -0.530406 1.78927 -1.03916 1.41421 -1.41421
C1.03916 -1.78927 0.530406 -2 0 -2
C-0.530406 -2 -1.03916 -1.78927 -1.41421 -1.41421
C-1.78927 -1.03916 -2 -0.530406 -2 0
C-2 0.530406 -1.78927 1.03916 -1.41421 1.41421
C-1.03916 1.78927 -0.530406 2 0 2
z
" id="m1d967097de" style="stroke:#a6bddb;stroke-width:0.5;"/>
    </defs>
    <g clip-path="url(#pfc1d45a589)">
     <use style="fill:#a6bddb;stroke:#a6bddb;stroke-width:0.5;" x="22.2584480511" xlink:href="#m1d967097de" y="186.240755085"/>
     <use style="fill:#a6bddb;stroke:#a6bddb;stroke-width:0.5;" x="23.2570421021" xlink:href="#m1d967097de" y="186.294931704"/>
     <use style="fill:#a6bddb;stroke:#a6bddb;stroke-width:0.5;" x="25.3752719074" xlink:href="#m1d967097de" y="186.121537814"/>
     <use style="fill:#a6bddb;stroke:#a6bddb;stroke-width:0.5;" x="31.7299613231" xlink:href="#m1d967097de" y="185.947089818"/>
     <use style="fill:#a6bddb;stroke:#a6bddb;stroke-width:0.5;" x="42.3211103495" xlink:href="#m1d967097de" y="185.66487021"/>
     <use style="fill:#a6bddb;stroke:#a6bddb;stroke-width:0.5;" x="63.5034084021" xlink:href="#m1d967097de" y="184.924190269"/>
     <use style="fill:#a6bddb;stroke:#a6bddb;stroke-width:0.5;" x="127.05030256" xlink:href="#m1d967097de" y="180.811595159"/>
    </g>
   </g>
   <g id="matplotlib.axis_1">
    <g id="xtick_1">
     <g id="text_1">
      <!-- 4224 neurons -->
      <defs>
       <path d="
M0.703125 39
C2.09375 39.2969 3 39.4062 4.20312 39.4062
C6.70312 39.4062 7.59375 37.7969 7.59375 33.4062
L7.59375 8.40625
C7.59375 3.40625 6.90625 2.70312 0.5 1.5
L0.5 0
L24.5 0
L24.5 1.59375
C17.7031 1.59375 16 3.10938 16 8.82812
L16 31.4531
C16 34.6719 20.2969 39.7031 23 39.7031
C23.5938 39.7031 24.5 39.2031 25.5938 38.2031
C27.2031 36.7969 28.2969 36.2031 29.5938 36.2031
C32 36.2031 33.5 37.9062 33.5 40.7031
C33.5 44 31.4062 46 28 46
C23.7969 46 20.9062 43.7031 16 36.6094
L16 45.7969
L15.5 46
C10.2031 43.7969 6.59375 42.5156 0.703125 40.6094
z
" id="Nimbus_Roman_No9_L_Regular-114"/>
       <path d="
M31.5 31.4062
L31.0938 45
L30 45
L29.7969 44.8125
C28.9062 44.1719 28.7969 44.0781 28.4062 44.0781
C27.7969 44.0781 26.7969 44.2812 25.7031 44.7812
C23.5 45.5938 21.2969 46 18.7031 46
C10.7969 46 5.09375 40.875 5.09375 33.6562
C5.09375 28.0625 8.29688 24.0469 16.7969 19.2344
L22.5938 15.9375
C26.0938 13.9375 27.7969 11.5156 27.7969 8.42188
C27.7969 4 24.5938 1.20312 19.5 1.20312
C16.0938 1.20312 13 2.48438 11.0938 4.65625
C9 7.10938 8.09375 9.375 6.79688 15
L5.20312 15
L5.20312 -0.609375
L6.5 -0.609375
C7.20312 0.515625 7.59375 0.75 8.79688 0.75
C9.70312 0.75 11.0938 0.546875 13.4062 -0.03125
C16.2031 -0.609375 18.9062 -1 20.7031 -1
C28.4062 -1 34.7969 4.8125 34.7969 11.8281
C34.7969 16.8281 32.4062 20.1406 26.4062 23.75
L15.5938 30.1562
C12.7969 31.7656 11.2969 34.2812 11.2969 36.9844
C11.2969 41 14.4062 43.7969 19 43.7969
C24.7031 43.7969 27.7031 40.3594 30 31.4062
z
" id="Nimbus_Roman_No9_L_Regular-115"/>
       <path d="
M40.7969 16.4531
C36 8.8125 31.7031 5.90625 25.2969 5.90625
C19.5938 5.90625 15.2969 8.8125 12.4062 14.5312
C10.5938 18.3438 9.90625 21.6562 9.70312 27.7969
L40.5 27.7969
C39.7031 34.2656 38.7031 37.1406 36.2031 40.3281
C33.2031 43.9219 28.5938 46 23.4062 46
C18.4062 46 13.7031 44.2031 9.90625 40.7969
C5.20312 36.7031 2.5 29.5938 2.5 21.4062
C2.5 7.59375 9.70312 -1 21.2031 -1
C30.7031 -1 38.2031 4.92188 42.4062 15.75
z

M9.90625 31
C11 38.7344 14.4062 42.4062 20.5 42.4062
C26.5938 42.4062 29 39.6094 30.2969 31
z
" id="Nimbus_Roman_No9_L_Regular-101"/>
       <path d="
M47.9062 5
L47.4062 5
C42.7969 5 41.7031 6.09375 41.7031 10.7031
L41.7031 45
L25.9062 45
L25.9062 43.0938
C32.0938 43.0938 33.2969 42.0938 33.2969 37.1094
L33.2969 13.6719
C33.2969 10.8906 32.7969 9.48438 31.4062 8.39062
C28.7031 6.20312 25.5938 5 22.5938 5
C18.7031 5 15.5 8.39062 15.5 12.5781
L15.5 45
L0.90625 45
L0.90625 43.4062
C5.70312 43.4062 7.09375 41.9062 7.09375 37.2969
L7.09375 12.0312
C7.09375 4.10938 11.9062 -1 19.2031 -1
C22.9062 -1 26.7969 0.59375 29.5 3.29688
L33.7969 7.59375
L33.7969 -0.703125
L34.2031 -0.90625
C39.2031 1.09375 42.7969 2.20312 47.9062 3.59375
z
" id="Nimbus_Roman_No9_L_Regular-117"/>
       <path d="
M1.59375 40.2969
C2.20312 40.5938 3.20312 40.7031 4.29688 40.7031
C7.09375 40.7031 8 39.2031 8 34.2969
L8 9.5
C8 3.79688 6.90625 2.40625 1.79688 2
L1.79688 0.5
L23 0.5
L23 2
C17.9062 2.40625 16.4062 3.59375 16.4062 7.20312
L16.4062 35.2969
C21.2031 39.7969 23.4062 41 26.7031 41
C31.5938 41 34 37.9062 34 31.2969
L34 10.4062
C34 4.09375 32.7031 2.40625 27.7031 2
L27.7031 0.5
L48.5 0.5
L48.5 2
C43.5938 2.5 42.4062 3.70312 42.4062 8.59375
L42.4062 31.5
C42.4062 40.9062 38 46.5 30.5938 46.5
C26 46.5 22.9062 44.7969 16.0938 38.4062
L16.0938 46.2969
L15.4062 46.5
C10.5 44.7031 7.09375 43.5938 1.59375 42
z
" id="Nimbus_Roman_No9_L_Regular-110"/>
       <path d="
M25 46
C12 46 2.90625 36.4062 2.90625 22.5938
C2.90625 9.09375 12.2031 -1 24.7969 -1
C37.4062 -1 47 9.59375 47 23.4062
C47 36.5 37.7969 46 25 46
M23.7031 43.2031
C32.0938 43.2031 38 33.5938 38 19.9062
C38 8.59375 33.5 1.79688 26 1.79688
C22.0938 1.79688 18.4062 4.20312 16.2969 8.20312
C13.5 13.4062 11.9062 20.4062 11.9062 27.5
C11.9062 37 16.5938 43.2031 23.7031 43.2031" id="Nimbus_Roman_No9_L_Regular-111"/>
       <path d="
M47.2031 23
L37 23
L37 67.5938
L32.5938 67.5938
L1.20312 23
L1.20312 16.6094
L29.2969 16.6094
L29.2969 0
L37 0
L37 16.6094
L47.2031 16.6094
z

M29.2031 23
L5.20312 23
L29.2031 57.375
z
" id="Nimbus_Roman_No9_L_Regular-52"/>
       <path d="
M47.5 13.6719
L46.2031 14.1719
C42.5 8.5 41.2031 7.59375 36.7031 7.59375
L12.7969 7.59375
L29.5938 25.1406
C38.5 34.4062 42.4062 41.9844 42.4062 49.7656
C42.4062 59.7344 34.2969 67.3906 23.9062 67.3906
C18.4062 67.3906 13.2031 65.2031 9.5 61.2188
C6.29688 57.8125 4.79688 54.625 3.09375 47.5469
L5.20312 47.0469
C9.20312 56.8125 12.7969 60 19.7031 60
C28.0938 60 33.7969 54.3125 33.7969 45.9375
C33.7969 38.1719 29.2031 28.9062 20.7969 20.0312
L3 1.20312
L3 0
L42 0
z
" id="Nimbus_Roman_No9_L_Regular-50"/>
      </defs>
      <g transform="translate(8.77452028749 194.122493358)scale(0.04998 -0.04998)">
       <use transform="scale(0.996264009963)" xlink:href="#Nimbus_Roman_No9_L_Regular-52"/>
       <use transform="translate(49.8132004981 0.0)scale(0.996264009963)" xlink:href="#Nimbus_Roman_No9_L_Regular-50"/>
       <use transform="translate(99.6264009963 0.0)scale(0.996264009963)" xlink:href="#Nimbus_Roman_No9_L_Regular-50"/>
       <use transform="translate(149.439601494 0.0)scale(0.996264009963)" xlink:href="#Nimbus_Roman_No9_L_Regular-52"/>
       <use transform="translate(224.159402242 0.0)scale(0.996264009963)" xlink:href="#Nimbus_Roman_No9_L_Regular-110"/>
       <use transform="translate(273.97260274 0.0)scale(0.996264009963)" xlink:href="#Nimbus_Roman_No9_L_Regular-101"/>
       <use transform="translate(318.206171437 0.0)scale(0.996264009963)" xlink:href="#Nimbus_Roman_No9_L_Regular-117"/>
       <use transform="translate(368.019371935 0.0)scale(0.996264009963)" xlink:href="#Nimbus_Roman_No9_L_Regular-114"/>
       <use transform="translate(401.194601665 0.0)scale(0.996264009963)" xlink:href="#Nimbus_Roman_No9_L_Regular-111"/>
       <use transform="translate(451.007802163 0.0)scale(0.996264009963)" xlink:href="#Nimbus_Roman_No9_L_Regular-110"/>
       <use transform="translate(500.821002661 0.0)scale(0.996264009963)" xlink:href="#Nimbus_Roman_No9_L_Regular-115"/>
      </g>
      <!-- 5 dimensions -->
      <defs>
       <path d="
M1.90625 39.7969
C3.20312 40.0938 4 40.2031 5.09375 40.2031
C7.70312 40.2031 8.59375 38.5938 8.59375 33.7812
L8.59375 8.42188
C8.59375 3 7.20312 1.5 1.59375 1.5
L1.59375 0
L23.7969 0
L23.7969 1.5
C18.5 1.5 17 2.59375 17 6.53125
L17 34.875
C17 35.0625 17.7969 36.0625 18.5 36.7812
C21 39.0781 25.2969 40.7969 28.7969 40.7969
C33.2031 40.7969 35.4062 37.2656 35.4062 30.1875
L35.4062 8.25
C35.4062 2.60938 34.2969 1.5 28.5938 1.5
L28.5938 0
L51 0
L51 1.5
C45.2969 1.5 43.7969 3.20312 43.7969 9.42188
L43.7969 34.7031
C46.7969 39 50.0938 40.7969 54.7031 40.7969
C60.4062 40.7969 62.2031 38.0938 62.2031 29.7969
L62.2031 8.70312
C62.2031 3 61.4062 2.20312 55.5938 1.5
L55.5938 0
L77.5 0
L77.5 1.5
L74.9062 1.79688
C71.9062 1.79688 70.5938 3.59375 70.5938 7.5
L70.5938 28.1562
C70.5938 39.9844 66.7031 46 59 46
C53.2031 46 48.0938 43.4062 42.7031 37.6094
C40.9062 43.2969 37.5 46 32.0938 46
C27.7031 46 24.9062 44.5938 16.5938 38.2969
L16.5938 45.7969
L15.9062 46
C10.7969 44.0938 7.40625 43 1.90625 41.5
z
" id="Nimbus_Roman_No9_L_Regular-109"/>
       <path d="
M34.4062 -1
L49.0938 4.20312
L49.0938 5.70312
C47.2969 5.70312 47.0938 5.70312 46.7969 5.70312
C43.2031 5.70312 42.4062 6.79688 42.4062 11.4219
L42.4062 68.1875
L41.9062 68.3906
C37.0938 66.6875 33.5938 65.6875 27.2031 64
L27.2031 62.4062
C28 62.5 28.5938 62.5 29.4062 62.5
C33.0938 62.5 34 61.5 34 57.375
L34 41.7031
C30.2031 44.9062 27.5 46 23.5 46
C12 46 2.70312 34.7031 2.70312 20.5
C2.70312 7.70312 10.2031 -1 21.2031 -1
C26.7969 -1 30.5938 1 34 5.70312
L34 -0.703125
z

M34 10.2031
C34 9.5 33.2969 8.29688 32.2969 7.20312
C30.5 5.20312 28 4.20312 25.0938 4.20312
C16.7969 4.20312 11.2969 12.2031 11.2969 24.5
C11.2969 35.7969 16.2031 43.2031 23.7969 43.2031
C29.0938 43.2031 34 38.5 34 33.2031
z
" id="Nimbus_Roman_No9_L_Regular-100"/>
       <path d="
M18.0938 59
L37.7031 59
C39.2969 59 39.7031 59.2031 40 59.9062
L43.7969 68.7969
L42.9062 69.5
C41.4062 67.4062 40.4062 66.9062 38.2969 66.9062
L17.4062 66.9062
L6.5 43.1094
C6.40625 42.9062 6.40625 42.8125 6.40625 42.6094
C6.40625 42.1094 6.79688 41.8125 7.59375 41.8125
C10.7969 41.8125 14.7969 41.1094 18.9062 39.7969
C30.4062 36.0781 35.7031 29.8438 35.7031 19.9062
C35.7031 10.25 29.5938 2.70312 21.7969 2.70312
C19.7969 2.70312 18.0938 3.40625 15.0938 5.625
C11.9062 7.9375 9.59375 8.9375 7.5 8.9375
C4.59375 8.9375 3.20312 7.73438 3.20312 5.21875
C3.20312 1.40625 7.90625 -1 15.4062 -1
C23.7969 -1 31 1.71875 36 6.84375
C40.5938 11.375 42.7031 17.0938 42.7031 24.7344
C42.7031 31.9688 40.7969 36.5938 35.7969 41.6094
C31.4062 46.0469 25.7031 48.3438 13.9062 50.4531
z
" id="Nimbus_Roman_No9_L_Regular-53"/>
       <path d="
M17.5 45.7656
L2 40.2969
L2 38.8125
L2.79688 38.9062
C4 39.0938 5.29688 39.2031 6.20312 39.2031
C8.59375 39.2031 9.5 37.5938 9.5 33.2031
L9.5 10
C9.5 2.79688 8.5 1.70312 1.59375 1.70312
L1.59375 0
L25.2969 0
L25.2969 1.5
C18.7031 2 17.9062 2.98438 17.9062 10.1562
L17.9062 45.4688
z

M12.7969 68
C10.0938 68 7.79688 65.7031 7.79688 62.9062
C7.79688 60.1094 10 57.7969 12.7969 57.7969
C15.7031 57.7969 18 60 18 62.9062
C18 65.7031 15.7031 68 12.7969 68" id="Nimbus_Roman_No9_L_Regular-105"/>
      </defs>
      <g transform="translate(9.04847160773 199.251589934)scale(0.04998 -0.04998)">
       <use transform="scale(0.996264009963)" xlink:href="#Nimbus_Roman_No9_L_Regular-53"/>
       <use transform="translate(74.7198007472 0.0)scale(0.996264009963)" xlink:href="#Nimbus_Roman_No9_L_Regular-100"/>
       <use transform="translate(124.533001245 0.0)scale(0.996264009963)" xlink:href="#Nimbus_Roman_No9_L_Regular-105"/>
       <use transform="translate(152.228170849 0.0)scale(0.996264009963)" xlink:href="#Nimbus_Roman_No9_L_Regular-109"/>
       <use transform="translate(229.73654095 0.0)scale(0.996264009963)" xlink:href="#Nimbus_Roman_No9_L_Regular-101"/>
       <use transform="translate(273.970109647 0.0)scale(0.996264009963)" xlink:href="#Nimbus_Roman_No9_L_Regular-110"/>
       <use transform="translate(323.783310146 0.0)scale(0.996264009963)" xlink:href="#Nimbus_Roman_No9_L_Regular-115"/>
       <use transform="translate(362.53701634 0.0)scale(0.996264009963)" xlink:href="#Nimbus_Roman_No9_L_Regular-105"/>
       <use transform="translate(390.232185943 0.0)scale(0.996264009963)" xlink:href="#Nimbus_Roman_No9_L_Regular-111"/>
       <use transform="translate(440.045386441 0.0)scale(0.996264009963)" xlink:href="#Nimbus_Roman_No9_L_Regular-110"/>
       <use transform="translate(489.85858694 0.0)scale(0.996264009963)" xlink:href="#Nimbus_Roman_No9_L_Regular-115"/>
      </g>
     </g>
    </g>
    <g id="xtick_2">
     <g id="text_2">
      <!-- 178688 neurons -->
      <defs>
       <path d="
M29 37.5
C38.9062 42.8125 42.4062 47 42.4062 53.8125
C42.4062 62 35.2031 68 25.2031 68
C14.2969 68 6.20312 61.3125 6.20312 52.2031
C6.20312 45.7031 8.09375 42.8125 18.5938 33.6094
C7.79688 25.4062 5.59375 22.3125 5.59375 15.5
C5.59375 5.8125 13.5 -1 24.7969 -1
C36.7969 -1 44.5 5.60938 44.5 15.9062
C44.5 23.6094 41.0938 28.5 29 37.5
M27.2031 27.2031
C34.5 22 36.9062 18.4062 36.9062 12.8125
C36.9062 6.3125 32.4062 1.8125 25.9062 1.8125
C18.2969 1.8125 13.2031 7.60938 13.2031 16.3125
C13.2031 22.7031 15.4062 26.9062 21.2031 31.6094
z

M26.0938 39.3125
C17.2031 45.1094 13.5938 49.7031 13.5938 55.3125
C13.5938 61.1094 18.0938 65.2031 24.4062 65.2031
C31.2031 65.2031 35.5 60.8125 35.5 53.9062
C35.5 48.2031 32.7031 43.7031 27 39.9062
C26.5 39.6094 26.5 39.6094 26.0938 39.3125" id="Nimbus_Roman_No9_L_Regular-56"/>
       <path d="
M44.5938 68.6094
C33.2031 67.6094 27.4062 65.7188 20.0938 60.625
C9.29688 52.9531 3.40625 41.5781 3.40625 28.2344
C3.40625 19.5469 6.09375 10.7812 10.4062 5.79688
C14.2031 1.40625 19.5938 -1 25.7969 -1
C38.2031 -1 46.7969 8.45312 46.7969 22.2031
C46.7969 34.9375 39.5 43 28 43
C23.5938 43 21.5 42.2969 15.2031 38.5
C17.9062 53.6094 29.0938 64.4062 44.7969 67
z

M24.2031 38.4062
C32.7969 38.4062 37.7969 31.25 37.7969 18.8125
C37.7969 7.875 33.9062 1.8125 26.9062 1.8125
C18.0938 1.8125 12.7031 11.1562 12.7031 26.5625
C12.7031 31.6406 13.5 34.4219 15.5 35.9219
C17.5938 37.5 20.7031 38.4062 24.2031 38.4062" id="Nimbus_Roman_No9_L_Regular-54"/>
       <path d="
M44.9062 66.4062
L7.90625 66.4062
L2 51.7188
L3.70312 50.9062
C8 57.7031 9.79688 59 15.2969 59
L37 59
L17.2031 -0.5
L23.7031 -0.5
L44.9062 64.8125
z
" id="Nimbus_Roman_No9_L_Regular-55"/>
       <path d="
M29.0938 67.7969
L11.0938 58.7031
L11.0938 57.2969
C12.2969 57.7969 13.4062 58.2031 13.7969 58.4062
C15.5938 59.1094 17.2969 59.5 18.2969 59.5
C20.4062 59.5 21.2969 58 21.2969 54.7656
L21.2969 9.25
C21.2969 5.92188 20.5 3.625 18.9062 2.70312
C17.4062 1.8125 16 1.5 11.7969 1.5
L11.7969 0
L39.4062 0
L39.4062 1.5
C31.5 1.5 29.9062 2.5 29.9062 7.34375
L29.9062 67.6094
z
" id="Nimbus_Roman_No9_L_Regular-49"/>
      </defs>
      <g transform="translate(47.5298239312 194.122493358)scale(0.04998 -0.04998)">
       <use transform="scale(0.996264009963)" xlink:href="#Nimbus_Roman_No9_L_Regular-49"/>
       <use transform="translate(49.8132004981 0.0)scale(0.996264009963)" xlink:href="#Nimbus_Roman_No9_L_Regular-55"/>
       <use transform="translate(99.6264009963 0.0)scale(0.996264009963)" xlink:href="#Nimbus_Roman_No9_L_Regular-56"/>
       <use transform="translate(149.439601494 0.0)scale(0.996264009963)" xlink:href="#Nimbus_Roman_No9_L_Regular-54"/>
       <use transform="translate(199.252801993 0.0)scale(0.996264009963)" xlink:href="#Nimbus_Roman_No9_L_Regular-56"/>
       <use transform="translate(249.066002491 0.0)scale(0.996264009963)" xlink:href="#Nimbus_Roman_No9_L_Regular-56"/>
       <use transform="translate(323.785803238 0.0)scale(0.996264009963)" xlink:href="#Nimbus_Roman_No9_L_Regular-110"/>
       <use transform="translate(373.599003736 0.0)scale(0.996264009963)" xlink:href="#Nimbus_Roman_No9_L_Regular-101"/>
       <use transform="translate(417.832572433 0.0)scale(0.996264009963)" xlink:href="#Nimbus_Roman_No9_L_Regular-117"/>
       <use transform="translate(467.645772932 0.0)scale(0.996264009963)" xlink:href="#Nimbus_Roman_No9_L_Regular-114"/>
       <use transform="translate(500.821002661 0.0)scale(0.996264009963)" xlink:href="#Nimbus_Roman_No9_L_Regular-111"/>
       <use transform="translate(550.634203159 0.0)scale(0.996264009963)" xlink:href="#Nimbus_Roman_No9_L_Regular-110"/>
       <use transform="translate(600.447403657 0.0)scale(0.996264009963)" xlink:href="#Nimbus_Roman_No9_L_Regular-115"/>
      </g>
      <!-- 200 dimensions -->
      <defs>
       <path d="
M25.4062 68
C19.9062 68 15.7031 66.3125 12 62.8125
C6.20312 57.2031 2.40625 45.7031 2.40625 34
C2.40625 23.1094 5.70312 11.4062 10.4062 5.8125
C14.0938 1.40625 19.2031 -1 25 -1
C30.0938 -1 34.4062 0.703125 38 4.20312
C43.7969 9.70312 47.5938 21.3125 47.5938 33.4062
C47.5938 53.9062 38.5 68 25.4062 68
M25.0938 65.4062
C33.5 65.4062 38 54.1094 38 33.2031
C38 12.3125 33.5938 1.60938 25 1.60938
C16.4062 1.60938 12 12.3125 12 33.1094
C12 54.3125 16.5 65.4062 25.0938 65.4062" id="Nimbus_Roman_No9_L_Regular-48"/>
      </defs>
      <g transform="translate(47.8037752515 199.251589934)scale(0.04998 -0.04998)">
       <use transform="scale(0.996264009963)" xlink:href="#Nimbus_Roman_No9_L_Regular-50"/>
       <use transform="translate(49.8132004981 0.0)scale(0.996264009963)" xlink:href="#Nimbus_Roman_No9_L_Regular-48"/>
       <use transform="translate(99.6264009963 0.0)scale(0.996264009963)" xlink:href="#Nimbus_Roman_No9_L_Regular-48"/>
       <use transform="translate(174.346201743 0.0)scale(0.996264009963)" xlink:href="#Nimbus_Roman_No9_L_Regular-100"/>
       <use transform="translate(224.159402242 0.0)scale(0.996264009963)" xlink:href="#Nimbus_Roman_No9_L_Regular-105"/>
       <use transform="translate(251.854571845 0.0)scale(0.996264009963)" xlink:href="#Nimbus_Roman_No9_L_Regular-109"/>
       <use transform="translate(329.362941946 0.0)scale(0.996264009963)" xlink:href="#Nimbus_Roman_No9_L_Regular-101"/>
       <use transform="translate(373.596510644 0.0)scale(0.996264009963)" xlink:href="#Nimbus_Roman_No9_L_Regular-110"/>
       <use transform="translate(423.409711142 0.0)scale(0.996264009963)" xlink:href="#Nimbus_Roman_No9_L_Regular-115"/>
       <use transform="translate(462.163417336 0.0)scale(0.996264009963)" xlink:href="#Nimbus_Roman_No9_L_Regular-105"/>
       <use transform="translate(489.85858694 0.0)scale(0.996264009963)" xlink:href="#Nimbus_Roman_No9_L_Regular-111"/>
       <use transform="translate(539.671787438 0.0)scale(0.996264009963)" xlink:href="#Nimbus_Roman_No9_L_Regular-110"/>
       <use transform="translate(589.484987936 0.0)scale(0.996264009963)" xlink:href="#Nimbus_Roman_No9_L_Regular-115"/>
      </g>
     </g>
    </g>
    <g id="xtick_3">
     <g id="text_3">
      <!-- 447488 neurons -->
      <g transform="translate(111.076718089 194.122493358)scale(0.04998 -0.04998)">
       <use transform="scale(0.996264009963)" xlink:href="#Nimbus_Roman_No9_L_Regular-52"/>
       <use transform="translate(49.8132004981 0.0)scale(0.996264009963)" xlink:href="#Nimbus_Roman_No9_L_Regular-52"/>
       <use transform="translate(99.6264009963 0.0)scale(0.996264009963)" xlink:href="#Nimbus_Roman_No9_L_Regular-55"/>
       <use transform="translate(149.439601494 0.0)scale(0.996264009963)" xlink:href="#Nimbus_Roman_No9_L_Regular-52"/>
       <use transform="translate(199.252801993 0.0)scale(0.996264009963)" xlink:href="#Nimbus_Roman_No9_L_Regular-56"/>
       <use transform="translate(249.066002491 0.0)scale(0.996264009963)" xlink:href="#Nimbus_Roman_No9_L_Regular-56"/>
       <use transform="translate(323.785803238 0.0)scale(0.996264009963)" xlink:href="#Nimbus_Roman_No9_L_Regular-110"/>
       <use transform="translate(373.599003736 0.0)scale(0.996264009963)" xlink:href="#Nimbus_Roman_No9_L_Regular-101"/>
       <use transform="translate(417.832572433 0.0)scale(0.996264009963)" xlink:href="#Nimbus_Roman_No9_L_Regular-117"/>
       <use transform="translate(467.645772932 0.0)scale(0.996264009963)" xlink:href="#Nimbus_Roman_No9_L_Regular-114"/>
       <use transform="translate(500.821002661 0.0)scale(0.996264009963)" xlink:href="#Nimbus_Roman_No9_L_Regular-111"/>
       <use transform="translate(550.634203159 0.0)scale(0.996264009963)" xlink:href="#Nimbus_Roman_No9_L_Regular-110"/>
       <use transform="translate(600.447403657 0.0)scale(0.996264009963)" xlink:href="#Nimbus_Roman_No9_L_Regular-115"/>
      </g>
      <!-- 500 dimensions -->
      <g transform="translate(111.350669409 199.251589934)scale(0.04998 -0.04998)">
       <use transform="scale(0.996264009963)" xlink:href="#Nimbus_Roman_No9_L_Regular-53"/>
       <use transform="translate(49.8132004981 0.0)scale(0.996264009963)" xlink:href="#Nimbus_Roman_No9_L_Regular-48"/>
       <use transform="translate(99.6264009963 0.0)scale(0.996264009963)" xlink:href="#Nimbus_Roman_No9_L_Regular-48"/>
       <use transform="translate(174.346201743 0.0)scale(0.996264009963)" xlink:href="#Nimbus_Roman_No9_L_Regular-100"/>
       <use transform="translate(224.159402242 0.0)scale(0.996264009963)" xlink:href="#Nimbus_Roman_No9_L_Regular-105"/>
       <use transform="translate(251.854571845 0.0)scale(0.996264009963)" xlink:href="#Nimbus_Roman_No9_L_Regular-109"/>
       <use transform="translate(329.362941946 0.0)scale(0.996264009963)" xlink:href="#Nimbus_Roman_No9_L_Regular-101"/>
       <use transform="translate(373.596510644 0.0)scale(0.996264009963)" xlink:href="#Nimbus_Roman_No9_L_Regular-110"/>
       <use transform="translate(423.409711142 0.0)scale(0.996264009963)" xlink:href="#Nimbus_Roman_No9_L_Regular-115"/>
       <use transform="translate(462.163417336 0.0)scale(0.996264009963)" xlink:href="#Nimbus_Roman_No9_L_Regular-105"/>
       <use transform="translate(489.85858694 0.0)scale(0.996264009963)" xlink:href="#Nimbus_Roman_No9_L_Regular-111"/>
       <use transform="translate(539.671787438 0.0)scale(0.996264009963)" xlink:href="#Nimbus_Roman_No9_L_Regular-110"/>
       <use transform="translate(589.484987936 0.0)scale(0.996264009963)" xlink:href="#Nimbus_Roman_No9_L_Regular-115"/>
      </g>
     </g>
    </g>
   </g>
   <g id="matplotlib.axis_2">
    <g id="ytick_1">
     <g id="line2d_9">
      <defs>
       <path d="
M0 0
L4 0" id="m728421d6d4" style="stroke:#000000;stroke-width:0.5;"/>
      </defs>
      <g>
       <use style="stroke:#000000;stroke-width:0.5;" x="21.259854" xlink:href="#m728421d6d4" y="186.746557536"/>
      </g>
     </g>
     <g id="text_4">
      <!-- $0$ -->
      <g transform="translate(14.2710619701 188.125876058)scale(0.06 -0.06)">
       <use transform="scale(0.996264009963)" xlink:href="#Nimbus_Roman_No9_L_Regular-48"/>
      </g>
     </g>
    </g>
    <g id="ytick_2">
     <g id="line2d_10">
      <g>
       <use style="stroke:#000000;stroke-width:0.5;" x="21.259854" xlink:href="#m728421d6d4" y="155.3902056"/>
      </g>
     </g>
     <g id="text_5">
      <!-- $5$ -->
      <g transform="translate(14.2710619701 156.769524122)scale(0.06 -0.06)">
       <use transform="scale(0.996264009963)" xlink:href="#Nimbus_Roman_No9_L_Regular-53"/>
      </g>
     </g>
    </g>
    <g id="ytick_3">
     <g id="line2d_11">
      <g>
       <use style="stroke:#000000;stroke-width:0.5;" x="21.259854" xlink:href="#m728421d6d4" y="124.033853664"/>
      </g>
     </g>
     <g id="text_6">
      <!-- $10$ -->
      <g transform="translate(11.2822699402 125.413172186)scale(0.06 -0.06)">
       <use transform="scale(0.996264009963)" xlink:href="#Nimbus_Roman_No9_L_Regular-49"/>
       <use transform="translate(49.8132004981 0.0)scale(0.996264009963)" xlink:href="#Nimbus_Roman_No9_L_Regular-48"/>
      </g>
     </g>
    </g>
    <g id="ytick_4">
     <g id="line2d_12">
      <g>
       <use style="stroke:#000000;stroke-width:0.5;" x="21.259854" xlink:href="#m728421d6d4" y="92.677501728"/>
      </g>
     </g>
     <g id="text_7">
      <!-- $15$ -->
      <g transform="translate(11.2822699402 94.0568202503)scale(0.06 -0.06)">
       <use transform="scale(0.996264009963)" xlink:href="#Nimbus_Roman_No9_L_Regular-49"/>
       <use transform="translate(49.8132004981 0.0)scale(0.996264009963)" xlink:href="#Nimbus_Roman_No9_L_Regular-53"/>
      </g>
     </g>
    </g>
    <g id="ytick_5">
     <g id="line2d_13">
      <g>
       <use style="stroke:#000000;stroke-width:0.5;" x="21.259854" xlink:href="#m728421d6d4" y="61.321149792"/>
      </g>
     </g>
     <g id="text_8">
      <!-- $20$ -->
      <g transform="translate(11.2822699402 62.7004683143)scale(0.06 -0.06)">
       <use transform="scale(0.996264009963)" xlink:href="#Nimbus_Roman_No9_L_Regular-50"/>
       <use transform="translate(49.8132004981 0.0)scale(0.996264009963)" xlink:href="#Nimbus_Roman_No9_L_Regular-48"/>
      </g>
     </g>
    </g>
    <g id="ytick_6">
     <g id="line2d_14">
      <g>
       <use style="stroke:#000000;stroke-width:0.5;" x="21.259854" xlink:href="#m728421d6d4" y="29.964797856"/>
      </g>
     </g>
     <g id="text_9">
      <!-- $25$ -->
      <g transform="translate(11.2822699402 31.3441163783)scale(0.06 -0.06)">
       <use transform="scale(0.996264009963)" xlink:href="#Nimbus_Roman_No9_L_Regular-50"/>
       <use transform="translate(49.8132004981 0.0)scale(0.996264009963)" xlink:href="#Nimbus_Roman_No9_L_Regular-53"/>
      </g>
     </g>
    </g>
    <g id="text_10">
     <!-- Simulation time (s) -->
     <defs>
      <path d="
M1.90625 62.5
L2.5 62.5
C3.59375 62.5 4.79688 62.5 5.59375 62.5
C8.79688 62.5 9.79688 61.0938 9.79688 56.4062
L9.79688 8.70312
C9.79688 3.29688 8.40625 2 2.09375 1.5
L2.09375 0
L25.7031 0
L25.7031 1.70312
C19.4062 1.70312 18.2031 2.70312 18.2031 8.25
L18.2031 68.2969
L17.7969 68.5
C12.5938 66.7969 8.79688 65.7969 1.90625 64.1094
z
" id="Nimbus_Roman_No9_L_Regular-108"/>
      <path d="
M25.5 45
L15.4062 45
L15.4062 56.6719
C15.4062 57.6875 15.2969 58 14.7031 58
C14 57.0938 13.4062 56.1719 12.7031 55.1719
C8.90625 49.6406 4.59375 44.8125 3 44.4219
C1.90625 43.7188 1.29688 43 1.29688 42.5
C1.29688 42.2031 1.40625 42 1.70312 41.7969
L7 41.7969
L7 11.7031
C7 3.29688 10 -1 15.9062 -1
C20.7969 -1 24.5938 1.40625 27.9062 6.60938
L26.5938 7.70312
C24.5 5.20312 22.7969 4.20312 20.5938 4.20312
C16.9062 4.20312 15.4062 6.90625 15.4062 13.2031
L15.4062 41.7969
L25.5 41.7969
z
" id="Nimbus_Roman_No9_L_Regular-116"/>
      <path d="
M44.7031 68
L42.5938 68
C42.2031 65.7031 41.0938 64.6094 39.4062 64.6094
C38.4062 64.6094 36.7031 65 35 65.8125
C31.2969 67.2031 27.5938 68 24.4062 68
C20.0938 68 15.7031 66.3125 12.4062 63.4062
C8.90625 60.2969 7.09375 56.0938 7.09375 50.875
C7.09375 42.8594 11.5 37.2656 22.7031 31.3438
C29.9062 27.5469 35.0938 23.4219 37.5938 19.625
C38.5 18.3281 39 16.2188 39 13.8125
C39 7.09375 34 2.5 26.7031 2.5
C17.7969 2.5 11.5 8.01562 6.5 20.25
L4.20312 20.25
L7.20312 -1
L9.40625 -1
C9.5 0.890625 10.7031 2.29688 12.2031 2.29688
C13.2969 2.29688 15 1.90625 16.9062 1.23438
C20.7031 -0.21875 24.7031 -1 28.7031 -1
C40.2031 -1 49.0938 6.90625 49.0938 17.2031
C49.0938 25.4062 43.5938 31.9062 30.4062 39
C19.9062 44.8125 15.7031 49.2031 15.7031 54.6094
C15.7031 60.1094 19.9062 63.9062 26.0938 63.9062
C30.5938 63.9062 34.7969 62 38.2969 58.4062
C41.4062 55.2031 42.7969 52.6094 44.4062 46.7031
L46.9062 46.7031
z
" id="Nimbus_Roman_No9_L_Regular-83"/>
      <path d="
M3.79688 -17.7031
C11.2031 -12.9062 14.2031 -10.2969 17.9062 -5.70312
C25 3 28.5 13 28.5 24.7031
C28.5 37.5 24.7969 47.2031 16 57.4062
C11.9062 62.2031 9.29688 64.4062 4.09375 67.5938
L2.90625 66
C10.9062 59.7031 13.5938 56.2031 16.4062 48.7031
C18.7969 42 19.9062 34.4062 19.9062 24.4062
C19.9062 14 18.5938 5.70312 15.9062 -0.40625
C13.0938 -6.70312 10.0938 -10.2969 2.90625 -16.0938
z
" id="Nimbus_Roman_No9_L_Regular-41"/>
      <path d="
M29.5 67.5938
C22.0938 62.7969 19.0938 60.2031 15.4062 55.5938
C8.29688 46.9062 4.79688 36.9062 4.79688 25.2031
C4.79688 12.5 8.5 2.70312 17.2969 -7.5
C21.4062 -12.2969 24 -14.5 29.2031 -17.7031
L30.4062 -16.0938
C22.4062 -9.79688 19.5938 -6.29688 16.9062 1.20312
C14.5 7.90625 13.4062 15.5 13.4062 25.5
C13.4062 36 14.7031 44.2031 17.4062 50.4062
C20.2031 56.5938 23.2031 60.2031 30.4062 66
z
" id="Nimbus_Roman_No9_L_Regular-40"/>
      <path d="
M44.2031 6.60938
C42.5 5.20312 41.2969 4.70312 39.7969 4.70312
C37.5 4.70312 36.7969 6.09375 36.7969 10.5
L36.7969 30
C36.7969 35.2031 36.2969 38.0938 34.7969 40.5
C32.5938 44.0938 28.2969 46 22.4062 46
C13 46 5.59375 41.0938 5.59375 34.7969
C5.59375 32.5 7.59375 30.5 9.90625 30.5
C12.2969 30.5 14.4062 32.5 14.4062 34.7031
C14.4062 35.0938 14.2969 35.5938 14.2031 36.2969
C14 37.2031 13.9062 38 13.9062 38.7031
C13.9062 41.4062 17.0938 43.5938 21.0938 43.5938
C26 43.5938 28.7031 40.7031 28.7031 35.2969
L28.7031 29.2031
C13.2969 23 11.5938 22.2031 7.29688 18.4062
C5.09375 16.4062 3.70312 13 3.70312 9.70312
C3.70312 3.40625 8.09375 -1 14.2031 -1
C18.5938 -1 22.7031 1.09375 28.7969 6.29688
C29.2969 1.09375 31.0938 -1 35.2031 -1
C38.5938 -1 40.7031 0.203125 44.2031 4
z

M28.7031 12.2344
C28.7031 9.125 28.2031 8.21875 26.0938 7.01562
C23.7031 5.60938 20.9062 4.70312 18.7969 4.70312
C15.2969 4.70312 12.5 8.125 12.5 12.4375
L12.5 12.8438
C12.5 18.7656 16.5938 22.3906 28.7031 26.7969
z
" id="Nimbus_Roman_No9_L_Regular-97"/>
     </defs>
     <g transform="translate(4.9881726099 123.598656838)rotate(-90.0)scale(0.06 -0.06)">
      <use transform="scale(0.996264009963)" xlink:href="#Nimbus_Roman_No9_L_Regular-83"/>
      <use transform="translate(55.3916769633 0.0)scale(0.996264009963)" xlink:href="#Nimbus_Roman_No9_L_Regular-105"/>
      <use transform="translate(83.0868465666 0.0)scale(0.996264009963)" xlink:href="#Nimbus_Roman_No9_L_Regular-109"/>
      <use transform="translate(160.595216668 0.0)scale(0.996264009963)" xlink:href="#Nimbus_Roman_No9_L_Regular-117"/>
      <use transform="translate(210.408417166 0.0)scale(0.996264009963)" xlink:href="#Nimbus_Roman_No9_L_Regular-108"/>
      <use transform="translate(238.103586769 0.0)scale(0.996264009963)" xlink:href="#Nimbus_Roman_No9_L_Regular-97"/>
      <use transform="translate(282.337155467 0.0)scale(0.996264009963)" xlink:href="#Nimbus_Roman_No9_L_Regular-116"/>
      <use transform="translate(310.03232507 0.0)scale(0.996264009963)" xlink:href="#Nimbus_Roman_No9_L_Regular-105"/>
      <use transform="translate(337.727494673 0.0)scale(0.996264009963)" xlink:href="#Nimbus_Roman_No9_L_Regular-111"/>
      <use transform="translate(387.540695171 0.0)scale(0.996264009963)" xlink:href="#Nimbus_Roman_No9_L_Regular-110"/>
      <use transform="translate(462.260495919 0.0)scale(0.996264009963)" xlink:href="#Nimbus_Roman_No9_L_Regular-116"/>
      <use transform="translate(489.955665522 0.0)scale(0.996264009963)" xlink:href="#Nimbus_Roman_No9_L_Regular-105"/>
      <use transform="translate(517.650835125 0.0)scale(0.996264009963)" xlink:href="#Nimbus_Roman_No9_L_Regular-109"/>
      <use transform="translate(595.159205226 0.0)scale(0.996264009963)" xlink:href="#Nimbus_Roman_No9_L_Regular-101"/>
      <use transform="translate(664.299374173 0.0)scale(0.996264009963)" xlink:href="#Nimbus_Roman_No9_L_Regular-40"/>
      <use transform="translate(697.474603902 0.0)scale(0.996264009963)" xlink:href="#Nimbus_Roman_No9_L_Regular-115"/>
      <use transform="translate(736.228310097 0.0)scale(0.996264009963)" xlink:href="#Nimbus_Roman_No9_L_Regular-41"/>
     </g>
    </g>
   </g>
   <g id="patch_3">
    <path d="
M21.2599 186.747
L139.465 186.747" style="fill:none;stroke:#000000;"/>
   </g>
   <g id="patch_4">
    <path d="
M21.2599 186.747
L21.2599 14.2866" style="fill:none;stroke:#000000;"/>
   </g>
   <g id="text_11">
    <!-- Nengo 1.4 -->
    <defs>
     <path d="
M47 39
L47 42.9062
L39.2969 42.9062
C37.2969 42.9062 35.7969 43.1719 33.7969 43.7812
L31.5938 44.4844
C28.9062 45.3594 26.2031 45.7969 23.5938 45.7969
C14.2969 45.7969 6.90625 38.5469 6.90625 29.3906
C6.90625 23.0469 9.59375 19.2031 16.2031 15.8906
C14.2969 14.1406 12.5 12.4844 11.9062 11.9844
C8.59375 9.17188 7.29688 7.21875 7.29688 5.26562
C7.29688 3.21875 8.5 2.04688 12.5938 0.09375
C5.5 -5.14062 2.79688 -8.48438 2.79688 -12.2031
C2.79688 -17.5625 10.5938 -22 20.0938 -22
C27.5938 -22 35.4062 -19.3438 40.5938 -15.0312
C44.4062 -11.8594 46.0938 -8.5625 46.0938 -4.67188
C46.0938 1.6875 41.4062 6 34 6
L21.0938 6
C15.7969 6 13.2969 6.92188 13.2969 8.54688
C13.2969 10.5938 16.5938 14.1719 19.2969 15
C20.2031 14.8906 20.9062 14.7969 21.2031 14.7969
C23.0938 14.5938 24.4062 14.5 25 14.5
C28.7031 14.5 32.7031 16.0312 35.7969 18.7969
C39.0938 21.6719 40.5938 25.2656 40.5938 30.3906
C40.5938 33.3594 40.0938 35.7188 38.7031 39
z

M14.7031 -0.203125
C18 -0.90625 26 -1.5 30.9062 -1.5
C40 -1.5 43.2969 -2.8125 43.2969 -6.46875
C43.2969 -12.3594 35.7031 -16.2969 24.4062 -16.2969
C15.5938 -16.2969 9.79688 -13.375 9.79688 -8.90625
C9.79688 -6.57812 10.5 -5.26562 14.7031 -0.203125
M15.2031 33.5156
C15.2031 39.4688 18 43 22.5938 43
C25.7031 43 28.2969 41.2812 29.9062 38.2656
C31.7031 34.7344 32.9062 30.1094 32.9062 26.1719
C32.9062 20.5312 30 17 25.4062 17
C19.4062 17 15.2031 23.5469 15.2031 33.2188
z
" id="Nimbus_Roman_No9_L_Regular-103"/>
     <path d="
M12.5 10.0938
C9.5 10.0938 7 7.5 7 4.39062
C7 1.5 9.5 -1 12.4062 -1
C15.5 -1 18.0938 1.5 18.0938 4.39062
C18.0938 7.5 15.5 10.0938 12.5 10.0938" id="Nimbus_Roman_No9_L_Regular-46"/>
     <path d="
M61.2031 -1
L61.2031 51.3594
C61.2031 57.3281 62.2031 61.0156 64.0938 62.3125
C65.5 63.2969 66.9062 63.7031 70.7031 64.0938
L70.7031 66
L47.2031 66
L47.2031 64.0938
C51 63.7969 52.4062 63.3906 53.9062 62.5
C55.9062 61.1094 56.7969 57.5156 56.7969 51.3438
L56.7969 17.75
L18.2969 66
L1.20312 66
L1.20312 64.0938
C5.5 64.0938 6.90625 63.2969 10.9062 58.6094
L10.9062 14.6562
C10.9062 4.39062 9.5 2.48438 1.20312 1.89062
L1.20312 0
L24.7031 0
L24.7031 2.09375
C17 2.09375 15.2969 4.39062 15.2969 14.5
L15.2969 53.7344
L59.5 -1
z
" id="Nimbus_Roman_No9_L_Regular-78"/>
    </defs>
    <g transform="translate(66.3403233198 75.5188834345)scale(0.072 -0.072)">
     <use transform="scale(0.996264009963)" xlink:href="#Nimbus_Roman_No9_L_Regular-78"/>
     <use transform="translate(71.9299848469 0.0)scale(0.996264009963)" xlink:href="#Nimbus_Roman_No9_L_Regular-101"/>
     <use transform="translate(116.163553544 0.0)scale(0.996264009963)" xlink:href="#Nimbus_Roman_No9_L_Regular-110"/>
     <use transform="translate(165.976754042 0.0)scale(0.996264009963)" xlink:href="#Nimbus_Roman_No9_L_Regular-103"/>
     <use transform="translate(215.789954541 0.0)scale(0.996264009963)" xlink:href="#Nimbus_Roman_No9_L_Regular-111"/>
     <use transform="translate(290.509755288 0.0)scale(0.996264009963)" xlink:href="#Nimbus_Roman_No9_L_Regular-49"/>
     <use transform="translate(340.322955786 0.0)scale(0.996264009963)" xlink:href="#Nimbus_Roman_No9_L_Regular-46"/>
     <use transform="translate(365.229556035 0.0)scale(0.996264009963)" xlink:href="#Nimbus_Roman_No9_L_Regular-52"/>
    </g>
   </g>
   <g id="text_12">
    <!-- Nengo -->
    <g style="fill:#e41a1c;" transform="translate(34.5668762409 19.6038349233)scale(0.072 -0.072)">
     <use transform="scale(0.996264009963)" xlink:href="#Nimbus_Roman_No9_L_Regular-78"/>
     <use transform="translate(71.9299848469 0.0)scale(0.996264009963)" xlink:href="#Nimbus_Roman_No9_L_Regular-101"/>
     <use transform="translate(116.163553544 0.0)scale(0.996264009963)" xlink:href="#Nimbus_Roman_No9_L_Regular-110"/>
     <use transform="translate(165.976754042 0.0)scale(0.996264009963)" xlink:href="#Nimbus_Roman_No9_L_Regular-103"/>
     <use transform="translate(215.789954541 0.0)scale(0.996264009963)" xlink:href="#Nimbus_Roman_No9_L_Regular-111"/>
    </g>
    <!-- reference -->
    <defs>
     <path d="
M30.9062 45
L18.5938 45
L18.5938 56.4219
C18.5938 62.1562 20.5 65.2031 24.2969 65.2031
C26.4062 65.2031 27.7969 64.2188 29.5938 61.3594
C31.2031 58.7969 32.4062 57.8125 34.0938 57.8125
C36.4062 57.8125 38.2969 59.5938 38.2969 61.8594
C38.2969 65.4375 33.9062 68 27.9062 68
C21.7031 68 16.4062 65.3281 13.7969 60.7969
C11.2031 56.4531 10.4062 52.8906 10.2969 45
L2.09375 45
L2.09375 41.7969
L10.2969 41.7969
L10.2969 10.25
C10.2969 2.89062 9.20312 1.70312 2 1.70312
L2 0
L28 0
L28 1.70312
C19.7969 1.70312 18.7031 2.8125 18.7031 10.3281
L18.7031 41.7969
L30.9062 41.7969
z
" id="Nimbus_Roman_No9_L_Regular-102"/>
     <path d="
M39.7969 15.6094
C35 8.59375 31.4062 6.20312 25.7031 6.20312
C16.5938 6.20312 10.2031 14.2031 10.2031 25.7031
C10.2031 36 15.7031 43.0938 23.7969 43.0938
C27.4062 43.0938 28.7031 42 29.7031 38.2969
L30.2969 36.0938
C31.0938 33.2969 32.9062 31.5 35 31.5
C37.5938 31.5 39.7969 33.4062 39.7969 35.7031
C39.7969 41.2969 32.7969 46 24.4062 46
C19.5 46 14.4062 44 10.2969 40.4062
C5.29688 36 2.5 29.2031 2.5 21.2969
C2.5 8.29688 10.4062 -1 21.5 -1
C26 -1 30 0.59375 33.5938 3.70312
C36.2969 6.09375 38.2031 8.79688 41.2031 14.7031
z
" id="Nimbus_Roman_No9_L_Regular-99"/>
    </defs>
    <g style="fill:#e41a1c;" transform="translate(34.5668762409 26.9926946923)scale(0.072 -0.072)">
     <use transform="scale(0.996264009963)" xlink:href="#Nimbus_Roman_No9_L_Regular-114"/>
     <use transform="translate(33.1752297293 0.0)scale(0.996264009963)" xlink:href="#Nimbus_Roman_No9_L_Regular-101"/>
     <use transform="translate(77.4087984268 0.0)scale(0.996264009963)" xlink:href="#Nimbus_Roman_No9_L_Regular-102"/>
     <use transform="translate(110.584028156 0.0)scale(0.996264009963)" xlink:href="#Nimbus_Roman_No9_L_Regular-101"/>
     <use transform="translate(154.817596854 0.0)scale(0.996264009963)" xlink:href="#Nimbus_Roman_No9_L_Regular-114"/>
     <use transform="translate(187.992826583 0.0)scale(0.996264009963)" xlink:href="#Nimbus_Roman_No9_L_Regular-101"/>
     <use transform="translate(232.22639528 0.0)scale(0.996264009963)" xlink:href="#Nimbus_Roman_No9_L_Regular-110"/>
     <use transform="translate(282.039595779 0.0)scale(0.996264009963)" xlink:href="#Nimbus_Roman_No9_L_Regular-99"/>
     <use transform="translate(326.273164476 0.0)scale(0.996264009963)" xlink:href="#Nimbus_Roman_No9_L_Regular-101"/>
    </g>
   </g>
   <g id="text_13">
    <!-- Intel Core -->
    <defs>
     <path d="
M62 45.4062
L61.0938 68
L59 68
C58.4062 65.9062 56.7969 64.7031 54.7969 64.7031
C53.9062 64.7031 52.4062 65 50.9062 65.6094
C46 67.2031 41 68 36.2969 68
C28.0938 68 19.7969 64.9062 13.5938 59.4062
C6.59375 53.2031 2.79688 43.9062 2.79688 32.9062
C2.79688 23.6094 5.79688 15 10.9062 9.3125
C16.9062 2.8125 26.0938 -1 36 -1
C47.2969 -1 57.2031 3.60938 63.2969 11.7031
L61.5 13.5
C54.0938 6.40625 47.5 3.40625 39.2031 3.40625
C32.9062 3.40625 27.2969 5.40625 23 9.20312
C17.5 14.1094 14.4062 23.1094 14.4062 34.2031
C14.4062 52.3125 23.7031 64 38.2031 64
C43.9062 64 49.0938 61.9062 53.0938 57.9062
C56.2969 54.7031 57.7969 51.9062 59.7031 45.4062
z
" id="Nimbus_Roman_No9_L_Regular-67"/>
     <path d="
M11.5 10.7656
C11.5 3.21875 10.2031 2 1.79688 2
L1.79688 0
L31.5 0
L31.5 2
C23.2969 2 21.7031 3.39062 21.7031 10.75
L21.7031 55.3438
C21.7031 62.6875 23.0938 64 31.5 64
L31.5 66.1094
L1.79688 66.1094
L1.79688 64
C10.2969 64 11.5 62.9062 11.5 55.4375
z
" id="Nimbus_Roman_No9_L_Regular-73"/>
    </defs>
    <g style="fill:#023858;" transform="translate(129.887217478 72.7063124921)scale(0.072 -0.072)">
     <use transform="scale(0.996264009963)" xlink:href="#Nimbus_Roman_No9_L_Regular-73"/>
     <use transform="translate(33.1752297293 0.0)scale(0.996264009963)" xlink:href="#Nimbus_Roman_No9_L_Regular-110"/>
     <use transform="translate(82.9884302275 0.0)scale(0.996264009963)" xlink:href="#Nimbus_Roman_No9_L_Regular-116"/>
     <use transform="translate(110.683599831 0.0)scale(0.996264009963)" xlink:href="#Nimbus_Roman_No9_L_Regular-101"/>
     <use transform="translate(154.917168528 0.0)scale(0.996264009963)" xlink:href="#Nimbus_Roman_No9_L_Regular-108"/>
     <use transform="translate(207.51893838 0.0)scale(0.996264009963)" xlink:href="#Nimbus_Roman_No9_L_Regular-67"/>
     <use transform="translate(273.968969514 0.0)scale(0.996264009963)" xlink:href="#Nimbus_Roman_No9_L_Regular-111"/>
     <use transform="translate(323.782170012 0.0)scale(0.996264009963)" xlink:href="#Nimbus_Roman_No9_L_Regular-114"/>
     <use transform="translate(356.957399741 0.0)scale(0.996264009963)" xlink:href="#Nimbus_Roman_No9_L_Regular-101"/>
    </g>
    <!-- i7-3770 -->
    <defs>
     <path d="
M3.90625 25.2969
L3.90625 19
L28.5 19
L28.5 25.2969
z
" id="Nimbus_Roman_No9_L_Regular-45"/>
     <path d="
M15.2969 33.4062
C21.2031 33.4062 23.5 33.2031 25.9062 32.3125
C32.0938 30.1094 36 24.4062 36 17.5
C36 9.10938 30.2969 2.60938 22.9062 2.60938
C20.2031 2.60938 18.2031 3.3125 14.5 5.70312
C11.5 7.5 9.79688 8.20312 8.09375 8.20312
C5.79688 8.20312 4.29688 6.8125 4.29688 4.70312
C4.29688 1.20312 8.59375 -1 15.5938 -1
C23.2969 -1 31.2031 1.60938 35.9062 5.70312
C40.5938 9.8125 43.2031 15.6094 43.2031 22.3125
C43.2031 27.4062 41.5938 32.1094 38.7031 35.2031
C36.7031 37.4062 34.7969 38.6094 30.4062 40.5
C37.2969 45.2031 39.7969 48.9062 39.7969 54.3125
C39.7969 62.4062 33.4062 68 24.2031 68
C19.2031 68 14.7969 66.3125 11.2031 63.1094
C8.20312 60.4062 6.70312 57.7969 4.5 51.7969
L6 51.4062
C10.0938 58.7031 14.5938 62 20.9062 62
C27.4062 62 31.9062 57.6094 31.9062 51.3125
C31.9062 47.7031 30.4062 44.1094 27.9062 41.6094
C24.9062 38.6094 22.0938 37.1094 15.2969 34.7031
z
" id="Nimbus_Roman_No9_L_Regular-51"/>
    </defs>
    <g style="fill:#023858;" transform="translate(129.887217478 80.0951722611)scale(0.072 -0.072)">
     <use transform="scale(0.996264009963)" xlink:href="#Nimbus_Roman_No9_L_Regular-105"/>
     <use transform="translate(27.6951696032 0.0)scale(0.996264009963)" xlink:href="#Nimbus_Roman_No9_L_Regular-55"/>
     <use transform="translate(77.5083701014 0.0)scale(0.996264009963)" xlink:href="#Nimbus_Roman_No9_L_Regular-45"/>
     <use transform="translate(110.683599831 0.0)scale(0.996264009963)" xlink:href="#Nimbus_Roman_No9_L_Regular-51"/>
     <use transform="translate(160.496800329 0.0)scale(0.996264009963)" xlink:href="#Nimbus_Roman_No9_L_Regular-55"/>
     <use transform="translate(210.310000827 0.0)scale(0.996264009963)" xlink:href="#Nimbus_Roman_No9_L_Regular-55"/>
     <use transform="translate(260.123201325 0.0)scale(0.996264009963)" xlink:href="#Nimbus_Roman_No9_L_Regular-48"/>
    </g>
   </g>
   <g id="text_14">
    <!-- Intel Xeon -->
    <defs>
     <path d="
M69.5938 66
L45.7969 66
L45.7969 64
C51.2031 64 52.7969 63.3125 52.7969 61
C52.7969 59.5 51.7031 57.6875 48.7969 54.0938
L37.5 40.2812
L33.2969 46.1719
C27.2031 54.6875 24.7969 59 24.7969 61.2031
C24.7969 63.2031 26.2969 64 29.5938 64
L32.4062 64
L32.4062 66
L2.20312 66
L2.20312 64
C8.70312 64 10.5 62.5 20.2969 48.5469
L31.2031 32.5
L15.5 13.25
C6.59375 2.6875 6.09375 2.28125 1 1.89062
L1 0
L24.2969 0
L24.2969 2.09375
C18.5 2.09375 16.7031 2.89062 16.7031 5.21875
C16.7031 6.71875 18.2031 9.23438 21.9062 13.8438
L33.7969 28.7031
L43.2969 14.6875
C46.5938 9.79688 48.4062 6.39062 48.4062 4.89062
C48.4062 3.09375 46.7969 2.09375 43.4062 2.09375
C43 2.09375 41.9062 1.98438 40.7031 1.89062
L40.7031 0
L70.4062 0
L70.4062 1.89062
C65.0938 2.48438 63.5938 3.48438 59.2969 9.26562
L40.0938 36.5781
L54.7031 54.9219
C61.2031 62.7812 63.2031 64 69.5938 64
z
" id="Nimbus_Roman_No9_L_Regular-88"/>
    </defs>
    <g style="fill:#045a8d;" transform="translate(129.887217478 86.7710908537)scale(0.072 -0.072)">
     <use transform="scale(0.996264009963)" xlink:href="#Nimbus_Roman_No9_L_Regular-73"/>
     <use transform="translate(33.1752297293 0.0)scale(0.996264009963)" xlink:href="#Nimbus_Roman_No9_L_Regular-110"/>
     <use transform="translate(82.9884302275 0.0)scale(0.996264009963)" xlink:href="#Nimbus_Roman_No9_L_Regular-116"/>
     <use transform="translate(110.683599831 0.0)scale(0.996264009963)" xlink:href="#Nimbus_Roman_No9_L_Regular-101"/>
     <use transform="translate(154.917168528 0.0)scale(0.996264009963)" xlink:href="#Nimbus_Roman_No9_L_Regular-108"/>
     <use transform="translate(207.51893838 0.0)scale(0.996264009963)" xlink:href="#Nimbus_Roman_No9_L_Regular-88"/>
     <use transform="translate(279.448923227 0.0)scale(0.996264009963)" xlink:href="#Nimbus_Roman_No9_L_Regular-101"/>
     <use transform="translate(323.682491925 0.0)scale(0.996264009963)" xlink:href="#Nimbus_Roman_No9_L_Regular-111"/>
     <use transform="translate(373.495692423 0.0)scale(0.996264009963)" xlink:href="#Nimbus_Roman_No9_L_Regular-110"/>
    </g>
    <!-- E5540 -->
    <defs>
     <path d="
M59.7031 16.8438
L56.9062 16.8438
C51.9062 6.07812 47.5938 3.70312 33.2969 3.70312
L30.5938 3.70312
C25.7031 3.70312 21.5 4.20312 20.7969 4.92188
C20.2969 5.21875 20.0938 6.3125 20.0938 8.03125
L20.0938 32.9062
L35.5 32.9062
C43.7031 32.9062 45.2031 31.5625 46.5 23
L48.7969 23
L48.7969 46.2031
L46.5 46.2031
C45.7969 42.2344 45.4062 40.7812 44.2969 39.4219
C43 37.7656 40.2031 37 35.5 37
L20.0938 37
L20.0938 58.8438
C20.0938 61.6094 20.7031 62.2031 23.4062 62.2031
L36.9062 62.2031
C48.2031 62.2031 50.4062 60.7188 52.0938 51.7812
L54.5938 51.7812
L54.2969 66
L1.20312 66
L1.20312 64.0938
C8.59375 63.5 9.90625 62.0938 9.90625 55.0781
L9.90625 10.6094
C9.90625 3.59375 8.5 2.09375 1.20312 2.09375
L1.20312 0
L55.2031 0
z
" id="Nimbus_Roman_No9_L_Regular-69"/>
    </defs>
    <g style="fill:#045a8d;" transform="translate(129.887217478 94.1599506227)scale(0.072 -0.072)">
     <use transform="scale(0.996264009963)" xlink:href="#Nimbus_Roman_No9_L_Regular-69"/>
     <use transform="translate(60.871630677 0.0)scale(0.996264009963)" xlink:href="#Nimbus_Roman_No9_L_Regular-53"/>
     <use transform="translate(110.684831175 0.0)scale(0.996264009963)" xlink:href="#Nimbus_Roman_No9_L_Regular-53"/>
     <use transform="translate(160.498031673 0.0)scale(0.996264009963)" xlink:href="#Nimbus_Roman_No9_L_Regular-52"/>
     <use transform="translate(210.311232171 0.0)scale(0.996264009963)" xlink:href="#Nimbus_Roman_No9_L_Regular-48"/>
    </g>
   </g>
   <g id="text_15">
    <!-- Intel Xeon -->
    <g style="fill:#0570b0;" transform="translate(129.887217478 106.968651879)scale(0.072 -0.072)">
     <use transform="scale(0.996264009963)" xlink:href="#Nimbus_Roman_No9_L_Regular-73"/>
     <use transform="translate(33.1752297293 0.0)scale(0.996264009963)" xlink:href="#Nimbus_Roman_No9_L_Regular-110"/>
     <use transform="translate(82.9884302275 0.0)scale(0.996264009963)" xlink:href="#Nimbus_Roman_No9_L_Regular-116"/>
     <use transform="translate(110.683599831 0.0)scale(0.996264009963)" xlink:href="#Nimbus_Roman_No9_L_Regular-101"/>
     <use transform="translate(154.917168528 0.0)scale(0.996264009963)" xlink:href="#Nimbus_Roman_No9_L_Regular-108"/>
     <use transform="translate(207.51893838 0.0)scale(0.996264009963)" xlink:href="#Nimbus_Roman_No9_L_Regular-88"/>
     <use transform="translate(279.448923227 0.0)scale(0.996264009963)" xlink:href="#Nimbus_Roman_No9_L_Regular-101"/>
     <use transform="translate(323.682491925 0.0)scale(0.996264009963)" xlink:href="#Nimbus_Roman_No9_L_Regular-111"/>
     <use transform="translate(373.495692423 0.0)scale(0.996264009963)" xlink:href="#Nimbus_Roman_No9_L_Regular-110"/>
    </g>
    <!-- E5-2620 -->
    <g style="fill:#0570b0;" transform="translate(129.887217478 114.357511648)scale(0.072 -0.072)">
     <use transform="scale(0.996264009963)" xlink:href="#Nimbus_Roman_No9_L_Regular-69"/>
     <use transform="translate(60.871630677 0.0)scale(0.996264009963)" xlink:href="#Nimbus_Roman_No9_L_Regular-53"/>
     <use transform="translate(110.684831175 0.0)scale(0.996264009963)" xlink:href="#Nimbus_Roman_No9_L_Regular-45"/>
     <use transform="translate(143.860060904 0.0)scale(0.996264009963)" xlink:href="#Nimbus_Roman_No9_L_Regular-50"/>
     <use transform="translate(193.673261403 0.0)scale(0.996264009963)" xlink:href="#Nimbus_Roman_No9_L_Regular-54"/>
     <use transform="translate(243.486461901 0.0)scale(0.996264009963)" xlink:href="#Nimbus_Roman_No9_L_Regular-50"/>
     <use transform="translate(293.299662399 0.0)scale(0.996264009963)" xlink:href="#Nimbus_Roman_No9_L_Regular-48"/>
    </g>
   </g>
   <g id="text_16">
    <!-- NVidia -->
    <defs>
     <path d="
M69.7031 66.1094
L49.2031 66.1094
L49.2031 64
C54.7031 64 56.5 62.9062 56.5 60.0938
C56.5 58.5 55.7969 55.8125 54.5938 52.8125
L39.9062 16.1406
L24.7969 49.9844
C21.5 57.2969 20.7031 59.5938 20.7031 61.0938
C20.7031 63 22.0938 64 25.2969 64
C25.7031 64 26.7969 64.1094 28.2031 64.2031
L28.2031 66.1094
L1.59375 66.1094
L1.59375 64
C6.5 64 7.90625 62.6094 12.2031 53.7344
L36.7969 -1
L38.2969 -1
L60.5 55.0156
C63.7969 62.9062 64.9062 64 69.7031 64
z
" id="Nimbus_Roman_No9_L_Regular-86"/>
    </defs>
    <g style="fill:#3690c0;" transform="translate(129.887217478 136.317547794)scale(0.072 -0.072)">
     <use transform="scale(0.996264009963)" xlink:href="#Nimbus_Roman_No9_L_Regular-78"/>
     <use transform="translate(71.9299848469 0.0)scale(0.996264009963)" xlink:href="#Nimbus_Roman_No9_L_Regular-86"/>
     <use transform="translate(137.88252245 0.0)scale(0.996264009963)" xlink:href="#Nimbus_Roman_No9_L_Regular-105"/>
     <use transform="translate(165.577692053 0.0)scale(0.996264009963)" xlink:href="#Nimbus_Roman_No9_L_Regular-100"/>
     <use transform="translate(215.390892551 0.0)scale(0.996264009963)" xlink:href="#Nimbus_Roman_No9_L_Regular-105"/>
     <use transform="translate(243.086062155 0.0)scale(0.996264009963)" xlink:href="#Nimbus_Roman_No9_L_Regular-97"/>
    </g>
    <!-- Quadro -->
    <defs>
     <path d="
M70.0938 -16
C58.7031 -16 50.7031 -11.5312 42.5938 -0.859375
C49.4062 0.4375 53 2.14062 57.5938 6.15625
C65 12.7812 68.7969 21.8906 68.7969 33.0156
C68.7969 53.1719 55.2031 67.5938 36.0938 67.5938
C17 67.5938 3.40625 53.1719 3.40625 32.8281
C3.40625 22.9844 6.40625 14.7812 12.2969 8.35938
C16.2031 4.14062 19.4062 2.14062 26.5 -0.25
L31.2031 -5.76562
C38 -13.6875 50.0938 -18 66 -18
C67.5 -18 68.4062 -18 69.5 -18
L70.0938 -18
z

M36.4062 64
C40.7031 64 45.2969 62.0938 48.7969 58.9844
C54.2031 54.1719 57.4062 44.5469 57.4062 33.2188
C57.4062 23.2969 54.5 13.0781 50.5 8.45312
C46.7969 4.34375 41.5938 2.04688 36.0938 2.04688
C31.2969 2.04688 26.9062 3.75 23.2969 6.95312
C18 11.6719 14.7969 21.6875 14.7969 33.4219
C14.7969 43.0469 17.7031 52.875 21.7969 57.4844
C25.9062 61.9062 30.5938 64 36.4062 64" id="Nimbus_Roman_No9_L_Regular-81"/>
    </defs>
    <g style="fill:#3690c0;" transform="translate(129.887217478 143.706407563)scale(0.072 -0.072)">
     <use transform="scale(0.996264009963)" xlink:href="#Nimbus_Roman_No9_L_Regular-81"/>
     <use transform="translate(71.9299848469 0.0)scale(0.996264009963)" xlink:href="#Nimbus_Roman_No9_L_Regular-117"/>
     <use transform="translate(121.743185345 0.0)scale(0.996264009963)" xlink:href="#Nimbus_Roman_No9_L_Regular-97"/>
     <use transform="translate(165.976754042 0.0)scale(0.996264009963)" xlink:href="#Nimbus_Roman_No9_L_Regular-100"/>
     <use transform="translate(215.789954541 0.0)scale(0.996264009963)" xlink:href="#Nimbus_Roman_No9_L_Regular-114"/>
     <use transform="translate(248.96518427 0.0)scale(0.996264009963)" xlink:href="#Nimbus_Roman_No9_L_Regular-111"/>
    </g>
    <!-- K4000 -->
    <defs>
     <path d="
M41.2969 64.2031
C42.5 64 43.5 64 43.9062 64
C46.9062 64 48.0938 63.2031 48.0938 61.2031
C48.0938 58.9844 45.7969 55.9844 40.2969 50.8906
L22.5938 34.75
L22.5938 55.2188
C22.5938 62.5 23.7031 63.6094 31.7969 64.2031
L31.7969 66.1094
L3.40625 66.1094
L3.40625 64.2031
C11.2031 63.6094 12.4062 62.3125 12.4062 55.1719
L12.4062 11.7188
C12.4062 3.39062 11.2969 2.09375 3.40625 2.09375
L3.40625 0
L31.5938 0
L31.5938 2.09375
C23.7969 2.09375 22.5938 3.29688 22.5938 10.6719
L22.5938 29.5469
L25.2031 31.6562
L35.7969 21.1719
C43.4062 13.6875 48.7969 6.59375 48.7969 4.20312
C48.7969 2.79688 47.4062 2.09375 44.5938 2.09375
C44.0938 2.09375 43 2.09375 41.7969 1.89062
L41.7969 0
L72.2969 0
L72.2969 2.09375
C67.0938 2.09375 65.7031 3.09375 56.5938 12.75
L33.2969 37.6406
L52.2969 56.4219
C59.0938 62.9062 60.7031 63.7031 67.5 64.2031
L67.5 66.1094
L41.2969 66.1094
z
" id="Nimbus_Roman_No9_L_Regular-75"/>
    </defs>
    <g style="fill:#3690c0;" transform="translate(129.887217478 151.095267332)scale(0.072 -0.072)">
     <use transform="scale(0.996264009963)" xlink:href="#Nimbus_Roman_No9_L_Regular-75"/>
     <use transform="translate(71.9299848469 0.0)scale(0.996264009963)" xlink:href="#Nimbus_Roman_No9_L_Regular-52"/>
     <use transform="translate(121.743185345 0.0)scale(0.996264009963)" xlink:href="#Nimbus_Roman_No9_L_Regular-48"/>
     <use transform="translate(171.556385843 0.0)scale(0.996264009963)" xlink:href="#Nimbus_Roman_No9_L_Regular-48"/>
     <use transform="translate(221.369586341 0.0)scale(0.996264009963)" xlink:href="#Nimbus_Roman_No9_L_Regular-48"/>
    </g>
   </g>
   <g id="text_17">
    <!-- NVidia Tesla -->
    <defs>
     <path d="
M25.4062 62
L25.4062 11.7344
C25.4062 3.1875 24.2969 2.09375 16 2.09375
L16 0
L45.2031 0
L45.2031 2.09375
C37 2.09375 35.5938 3.39062 35.5938 10.7344
L35.5938 62
L41 62
C52.4062 62 54.5938 60.2031 56.9062 49.2031
L59.2969 49.2031
L58.7031 66.2031
L2.29688 66.2031
L1.70312 49.2031
L4.09375 49.2031
C6.5 60.0938 8.79688 62 20 62
z
" id="Nimbus_Roman_No9_L_Regular-84"/>
    </defs>
    <g style="fill:#74a9cf;" transform="translate(129.887217478 160.91494837)scale(0.072 -0.072)">
     <use transform="scale(0.996264009963)" xlink:href="#Nimbus_Roman_No9_L_Regular-78"/>
     <use transform="translate(71.9299848469 0.0)scale(0.996264009963)" xlink:href="#Nimbus_Roman_No9_L_Regular-86"/>
     <use transform="translate(137.88252245 0.0)scale(0.996264009963)" xlink:href="#Nimbus_Roman_No9_L_Regular-105"/>
     <use transform="translate(165.577692053 0.0)scale(0.996264009963)" xlink:href="#Nimbus_Roman_No9_L_Regular-100"/>
     <use transform="translate(215.390892551 0.0)scale(0.996264009963)" xlink:href="#Nimbus_Roman_No9_L_Regular-105"/>
     <use transform="translate(243.086062155 0.0)scale(0.996264009963)" xlink:href="#Nimbus_Roman_No9_L_Regular-97"/>
     <use transform="translate(312.226231101 0.0)scale(0.996264009963)" xlink:href="#Nimbus_Roman_No9_L_Regular-84"/>
     <use transform="translate(366.124515367 0.0)scale(0.996264009963)" xlink:href="#Nimbus_Roman_No9_L_Regular-101"/>
     <use transform="translate(410.358084065 0.0)scale(0.996264009963)" xlink:href="#Nimbus_Roman_No9_L_Regular-115"/>
     <use transform="translate(449.111790259 0.0)scale(0.996264009963)" xlink:href="#Nimbus_Roman_No9_L_Regular-108"/>
     <use transform="translate(476.806959862 0.0)scale(0.996264009963)" xlink:href="#Nimbus_Roman_No9_L_Regular-97"/>
    </g>
    <!-- C2050 -->
    <g style="fill:#74a9cf;" transform="translate(129.887217478 168.303808139)scale(0.072 -0.072)">
     <use transform="scale(0.996264009963)" xlink:href="#Nimbus_Roman_No9_L_Regular-67"/>
     <use transform="translate(66.4500311333 0.0)scale(0.996264009963)" xlink:href="#Nimbus_Roman_No9_L_Regular-50"/>
     <use transform="translate(116.263231631 0.0)scale(0.996264009963)" xlink:href="#Nimbus_Roman_No9_L_Regular-48"/>
     <use transform="translate(166.07643213 0.0)scale(0.996264009963)" xlink:href="#Nimbus_Roman_No9_L_Regular-53"/>
     <use transform="translate(215.889632628 0.0)scale(0.996264009963)" xlink:href="#Nimbus_Roman_No9_L_Regular-48"/>
    </g>
   </g>
   <g id="text_18">
    <!-- ATI Radeon -->
    <defs>
     <path d="
M65.9062 1.89062
C62.0938 2.1875 60.0938 3.20312 57.2031 6.625
L36.5938 32.2031
C43.2969 33.4844 46.2969 34.6719 49.5938 37.3125
C52.7969 39.8906 54.7031 44.0312 54.7031 48.6406
C54.7031 52.8906 53.4062 56.5312 50.7969 59.3906
C47 63.4219 38.7031 66 29.2969 66
L1.70312 66
L1.70312 64.0938
C9.20312 63.2969 10.2031 62.2031 10.2031 55.125
L10.2031 11.9531
C10.2031 3.6875 9.20312 2.48438 1.70312 1.89062
L1.70312 0
L29.4062 0
L29.4062 2.09375
C21.7031 2.09375 20.4062 3.42188 20.4062 10.8125
L20.4062 31
L26 31
L49.7969 0
L65.9062 0
z

M20.4062 58.7812
C20.4062 61.5156 21.5 62.2969 25.5 62.2969
C38 62.2969 43.7969 58.0625 43.7969 48.7969
C43.7969 43.8594 41.7031 39.7188 38.0938 37.8594
C33.5 35.2812 30 34.7031 20.4062 34.7031
z
" id="Nimbus_Roman_No9_L_Regular-82"/>
     <path d="
M70.5938 2
C66.0938 2 65.0938 3 61.5938 10.4219
L36.7031 67.5
L34.7031 67.5
L13.9062 18.25
C7.5 3.60938 6.29688 2 1.5 2
L1.5 0
L21.2969 0
L21.2969 2
C16.5 2 14.5 3.3125 14.5 6.14062
C14.5 7.34375 14.7969 8.75 15.2969 10.0781
L19.9062 21.8906
L46.0938 21.8906
L50.2031 12.1562
C51.4062 9.40625 52.0938 6.78125 52.0938 5.34375
C52.0938 2.8125 50.4062 2 45.0938 2
L45.0938 0
L70.5938 0
z

M21.5938 26
L33.0938 53.375
L44.7031 26
z
" id="Nimbus_Roman_No9_L_Regular-65"/>
    </defs>
    <g style="fill:#a6bddb;" transform="translate(129.887217478 177.518104066)scale(0.072 -0.072)">
     <use transform="scale(0.996264009963)" xlink:href="#Nimbus_Roman_No9_L_Regular-65"/>
     <use transform="translate(60.8715394663 0.0)scale(0.996264009963)" xlink:href="#Nimbus_Roman_No9_L_Regular-84"/>
     <use transform="translate(121.743170143 0.0)scale(0.996264009963)" xlink:href="#Nimbus_Roman_No9_L_Regular-73"/>
     <use transform="translate(179.825000122 0.0)scale(0.996264009963)" xlink:href="#Nimbus_Roman_No9_L_Regular-82"/>
     <use transform="translate(246.275031255 0.0)scale(0.996264009963)" xlink:href="#Nimbus_Roman_No9_L_Regular-97"/>
     <use transform="translate(290.508599952 0.0)scale(0.996264009963)" xlink:href="#Nimbus_Roman_No9_L_Regular-100"/>
     <use transform="translate(340.32180045 0.0)scale(0.996264009963)" xlink:href="#Nimbus_Roman_No9_L_Regular-101"/>
     <use transform="translate(384.555369148 0.0)scale(0.996264009963)" xlink:href="#Nimbus_Roman_No9_L_Regular-111"/>
     <use transform="translate(434.368569646 0.0)scale(0.996264009963)" xlink:href="#Nimbus_Roman_No9_L_Regular-110"/>
    </g>
    <!-- HD7970 -->
    <defs>
     <path d="
M5.90625 -1.90625
C17.0938 -0.609375 22.5938 1.29688 29.4062 6.1875
C39.7969 13.7812 45.9062 26.1719 45.9062 39.6406
C45.9062 56.125 36.7031 67.7969 23.7969 67.7969
C11.9062 67.7969 3 57.7188 3 44.25
C3 32.0781 10.2031 24 21 24
C26.5 24 30.7031 25.5938 36 29.6875
C31.9062 13.3906 20.7969 2.70312 5.59375 0.09375
z

M36.2031 35.7812
C36.2031 33.7812 35.7969 32.875 34.7031 31.9844
C31.9062 29.5938 28.2031 28.2969 24.5938 28.2969
C17 28.2969 12.2031 35.7812 12.2031 47.6562
C12.2031 53.3281 13.7969 59.3125 15.9062 61.9219
C17.5938 63.9062 20.0938 65 23 65
C31.7031 65 36.2031 56.4219 36.2031 39.6719
z
" id="Nimbus_Roman_No9_L_Regular-57"/>
     <path d="
M10.4062 10.6094
C10.4062 3.39062 9.20312 2.09375 1.59375 2.09375
L1.59375 0
L30 0
C41.5938 0 52.0938 3.28125 58.2969 8.875
C64.7969 14.75 68.5 23.625 68.5 33.2969
C68.5 42.2812 65.5 50.0469 60 55.5312
C53.2031 62.4062 42.2969 66 28.5938 66
L1.59375 66
L1.59375 64.0938
C9.5 63.3906 10.4062 62.5 10.4062 55.0781
z

M20.5938 58.4062
C20.5938 61.5 21.7031 62.2969 25.7969 62.2969
C34.4062 62.2969 40.9062 60.7031 45.7031 57.3125
C53.5 51.9219 57.5938 43.3594 57.5938 32.6094
C57.5938 20.8438 53.5 12.4688 45.4062 7.78125
C40.2969 4.90625 34.5 3.70312 25.7969 3.70312
C21.7969 3.70312 20.5938 4.59375 20.5938 7.78125
z
" id="Nimbus_Roman_No9_L_Regular-68"/>
     <path d="
M20.9062 36
L20.9062 55.2031
C20.9062 62.3438 22 63.4219 29.7031 64.125
L29.7031 66
L1.90625 66
L1.90625 64.125
C9.59375 63.4219 10.7031 62.3281 10.7031 55.1094
L10.7031 11.7031
C10.7031 3.28125 9.70312 2.09375 1.90625 2.09375
L1.90625 0
L29.7031 0
L29.7031 1.89062
C22.2031 2.48438 20.9062 3.78125 20.9062 10.9219
L20.9062 31.5938
L51.2031 31.5938
L51.2031 11.8281
C51.2031 3.29688 50.2031 2.09375 42.4062 2.09375
L42.4062 0
L70.2031 0
L70.2031 1.89062
C62.7031 2.48438 61.4062 3.78125 61.4062 10.875
L61.4062 55.1406
C61.4062 62.3281 62.5 63.4219 70.2031 64.125
L70.2031 66
L42.4062 66
L42.4062 64.125
C50.0938 63.4219 51.2031 62.3438 51.2031 55.2031
L51.2031 36
z
" id="Nimbus_Roman_No9_L_Regular-72"/>
    </defs>
    <g style="fill:#a6bddb;" transform="translate(129.887217478 184.906963835)scale(0.072 -0.072)">
     <use transform="scale(0.996264009963)" xlink:href="#Nimbus_Roman_No9_L_Regular-72"/>
     <use transform="translate(71.9299848469 0.0)scale(0.996264009963)" xlink:href="#Nimbus_Roman_No9_L_Regular-68"/>
     <use transform="translate(143.859969694 0.0)scale(0.996264009963)" xlink:href="#Nimbus_Roman_No9_L_Regular-55"/>
     <use transform="translate(193.673170192 0.0)scale(0.996264009963)" xlink:href="#Nimbus_Roman_No9_L_Regular-57"/>
     <use transform="translate(243.48637069 0.0)scale(0.996264009963)" xlink:href="#Nimbus_Roman_No9_L_Regular-55"/>
     <use transform="translate(293.299571188 0.0)scale(0.996264009963)" xlink:href="#Nimbus_Roman_No9_L_Regular-48"/>
    </g>
   </g>
   <g id="text_19">
    <!-- Circular convolution benchmarks -->
    <defs>
     <path d="
M0.703125 62.2969
C2 62.4062 2.90625 62.5 3.90625 62.5
C7.20312 62.5 8.20312 61.2031 8.20312 56.4062
L8.20312 8.20312
C8.20312 3 7.90625 2.70312 0.703125 1.5
L0.703125 0
L24.0938 0
L24.0938 1.59375
L22.0938 1.59375
C18.0938 1.59375 16.5938 3.01562 16.5938 6.54688
L16.5938 25.0938
L30.5938 6.48438
L30.9062 6.07812
C31.0938 5.78125 31.2969 5.48438 31.5938 5.17188
C32.4062 4.17188 32.7031 3.57812 32.7031 3.09375
C32.7031 2.1875 31.7969 1.59375 30.5938 1.59375
L28.7031 1.59375
L28.7031 0
L50.5 0
L50.5 1.59375
C46.0938 1.59375 43 3.51562 38.7969 8.64062
L23.5 28.2031
L26.4062 30.9062
C33.5 37.5 39.7031 42.0938 42.5938 42.9062
C44.0938 43.2969 45.5 43.5 47.2031 43.5
L48 43.5
L48 45
L27.5938 45
L27.5938 43.5
C31.5 43.5 32.5938 43.0938 32.5938 41.7031
C32.5938 40.9062 31.7031 39.5 30.2969 38.2969
L16.5938 26.0938
L16.5938 68.0938
L16.2031 68.2969
C12.4062 67.0938 9.5 66.2969 3.70312 64.7031
L0.703125 63.9062
z
" id="Nimbus_Roman_No9_L_Regular-107"/>
     <path d="
M15.2969 68.1875
L14.7969 68.3906
C10.5938 66.8906 7.90625 66.0938 3.20312 64.7969
L0.296875 64
L0.296875 62.4062
C0.90625 62.5 1.29688 62.5 2 62.5
C6 62.5 6.90625 61.5938 6.90625 57.3906
L6.90625 5.42188
C6.90625 2.29688 15.4062 -1 23.4062 -1
C36.5938 -1 46.7969 10 46.7969 24.2969
C46.7969 36.5938 39.2031 46 29.2031 46
C23.0938 46 17.2969 42.4062 15.2969 37.5
z

M15.2969 32.2031
C15.2969 36.0938 20 39.7031 25.2031 39.7031
C33 39.7031 38 31.9062 38 19.7031
C38 8.59375 33.2031 2.20312 25 2.20312
C19.7969 2.20312 15.2969 4.5 15.2969 7
z
" id="Nimbus_Roman_No9_L_Regular-98"/>
     <path d="
M47.7031 44.5938
L33.7969 44.5938
L33.7969 43.0938
C37 42.7969 38.5 41.7969 38.5 39.875
C38.5 38.875 38.2969 37.875 37.9062 36.8594
L28 10.8594
L17.7969 36.5625
C17.2031 37.9844 16.9062 39.375 16.9062 40.2812
C16.9062 42.0938 18 42.7969 21.5 43.0938
L21.5 44.5938
L1.90625 44.5938
L1.90625 43
C5.70312 43 6.40625 42 11 31.625
L23 2.73438
C23.2031 2.14062 23.5 1.42188 23.7969 0.625
C24.4062 -1.1875 25 -2 25.5938 -2
C26.2031 -2 26.9062 -0.6875 28.4062 3.01562
L41.2031 35.2656
C44.0938 42.0938 44.7031 42.7969 47.7031 43.0938
z
" id="Nimbus_Roman_No9_L_Regular-118"/>
     <path d="
M15.7031 34.7188
C19.9062 39.3125 22.9062 41 26.7969 41
C31.7969 41 34.2969 37.4219 34.2969 30.4375
L34.2969 10.6875
C34.2969 3.90625 33.2969 2.59375 27.5 2
L27.5 0.5
L48.7031 0.5
L48.7031 2
C43.2969 3 42.7031 3.79688 42.7031 10.6875
L42.7031 30.5312
C42.7031 41.0156 38.5 46.4062 30.4062 46.4062
C24.5 46.4062 20.2969 44 15.7031 38
L15.7031 68.5938
L15.2031 68.8906
C11.7969 67.6875 9.29688 66.8906 3.70312 65.2969
L1 64.5
L1 62.9062
C1.40625 63 1.70312 63 2.20312 63
C6.5 63 7.29688 62.1875 7.29688 57.875
L7.29688 10.7188
C7.29688 3.70312 6.70312 2.79688 0.90625 2
L0.90625 0.5
L22.5 0.5
L22.5 2
C16.7031 2.59375 15.7031 3.79688 15.7031 10.6875
z
" id="Nimbus_Roman_No9_L_Regular-104"/>
    </defs>
    <g transform="translate(39.6570988606 9.67054436885)scale(0.072 -0.072)">
     <use transform="scale(0.996264009963)" xlink:href="#Nimbus_Roman_No9_L_Regular-67"/>
     <use transform="translate(66.4500311333 0.0)scale(0.996264009963)" xlink:href="#Nimbus_Roman_No9_L_Regular-105"/>
     <use transform="translate(94.1452007365 0.0)scale(0.996264009963)" xlink:href="#Nimbus_Roman_No9_L_Regular-114"/>
     <use transform="translate(127.320430466 0.0)scale(0.996264009963)" xlink:href="#Nimbus_Roman_No9_L_Regular-99"/>
     <use transform="translate(171.553999163 0.0)scale(0.996264009963)" xlink:href="#Nimbus_Roman_No9_L_Regular-117"/>
     <use transform="translate(221.367199661 0.0)scale(0.996264009963)" xlink:href="#Nimbus_Roman_No9_L_Regular-108"/>
     <use transform="translate(249.062369265 0.0)scale(0.996264009963)" xlink:href="#Nimbus_Roman_No9_L_Regular-97"/>
     <use transform="translate(293.295937962 0.0)scale(0.996264009963)" xlink:href="#Nimbus_Roman_No9_L_Regular-114"/>
     <use transform="translate(351.377767941 0.0)scale(0.996264009963)" xlink:href="#Nimbus_Roman_No9_L_Regular-99"/>
     <use transform="translate(395.611336638 0.0)scale(0.996264009963)" xlink:href="#Nimbus_Roman_No9_L_Regular-111"/>
     <use transform="translate(445.424537136 0.0)scale(0.996264009963)" xlink:href="#Nimbus_Roman_No9_L_Regular-110"/>
     <use transform="translate(491.253624105 0.0)scale(0.996264009963)" xlink:href="#Nimbus_Roman_No9_L_Regular-118"/>
     <use transform="translate(539.074813444 0.0)scale(0.996264009963)" xlink:href="#Nimbus_Roman_No9_L_Regular-111"/>
     <use transform="translate(588.888013942 0.0)scale(0.996264009963)" xlink:href="#Nimbus_Roman_No9_L_Regular-108"/>
     <use transform="translate(616.583183545 0.0)scale(0.996264009963)" xlink:href="#Nimbus_Roman_No9_L_Regular-117"/>
     <use transform="translate(666.396384043 0.0)scale(0.996264009963)" xlink:href="#Nimbus_Roman_No9_L_Regular-116"/>
     <use transform="translate(694.091553646 0.0)scale(0.996264009963)" xlink:href="#Nimbus_Roman_No9_L_Regular-105"/>
     <use transform="translate(721.78672325 0.0)scale(0.996264009963)" xlink:href="#Nimbus_Roman_No9_L_Regular-111"/>
     <use transform="translate(771.599923748 0.0)scale(0.996264009963)" xlink:href="#Nimbus_Roman_No9_L_Regular-110"/>
     <use transform="translate(846.319724495 0.0)scale(0.996264009963)" xlink:href="#Nimbus_Roman_No9_L_Regular-98"/>
     <use transform="translate(896.132924993 0.0)scale(0.996264009963)" xlink:href="#Nimbus_Roman_No9_L_Regular-101"/>
     <use transform="translate(940.366493691 0.0)scale(0.996264009963)" xlink:href="#Nimbus_Roman_No9_L_Regular-110"/>
     <use transform="translate(990.179694189 0.0)scale(0.996264009963)" xlink:href="#Nimbus_Roman_No9_L_Regular-99"/>
     <use transform="translate(1034.41326289 0.0)scale(0.996264009963)" xlink:href="#Nimbus_Roman_No9_L_Regular-104"/>
     <use transform="translate(1084.22646338 0.0)scale(0.996264009963)" xlink:href="#Nimbus_Roman_No9_L_Regular-109"/>
     <use transform="translate(1161.73483349 0.0)scale(0.996264009963)" xlink:href="#Nimbus_Roman_No9_L_Regular-97"/>
     <use transform="translate(1205.96840218 0.0)scale(0.996264009963)" xlink:href="#Nimbus_Roman_No9_L_Regular-114"/>
     <use transform="translate(1239.14363191 0.0)scale(0.996264009963)" xlink:href="#Nimbus_Roman_No9_L_Regular-107"/>
     <use transform="translate(1288.95683241 0.0)scale(0.996264009963)" xlink:href="#Nimbus_Roman_No9_L_Regular-115"/>
    </g>
   </g>
  </g>
 </g>
 <defs>
  <clipPath id="pfc1d45a589">
   <rect height="172.459935648" width="118.20478824" x="21.259854" y="14.286621888"/>
  </clipPath>
 </defs>
</svg>
