<?xml version="1.0" encoding="utf-8" standalone="no"?>
<!DOCTYPE svg PUBLIC "-//W3C//DTD SVG 1.1//EN"
  "http://www.w3.org/Graphics/SVG/1.1/DTD/svg11.dtd">
<!-- Created with matplotlib (http://matplotlib.org/) -->
<svg height="139pt" version="1.1" viewBox="0 0 113 139" width="113pt" xmlns="http://www.w3.org/2000/svg" xmlns:xlink="http://www.w3.org/1999/xlink">
 <defs>
  <style type="text/css">
*{stroke-linecap:butt;stroke-linejoin:round;}
  </style>
 </defs>
 <g id="figure_1">
  <g id="patch_1">
   <path d="
M0 139.351
L113.386 139.351
L113.386 0
L0 0
z
" style="fill:#ffffff;"/>
  </g>
  <g id="axes_1">
   <g id="patch_2">
    <path d="
M5.91105 37.8236
L86.1612 37.8236
L86.1612 3.27342
L5.91105 3.27342
z
" style="fill:#ffffff;"/>
   </g>
   <g id="line2d_1">
    <path clip-path="url(#p142c0f8661)" d="
M6.3123 26.3069
L6.71355 26.3069
L7.1148 26.3069
L7.9173 26.8178
L8.31855 26.7066
L8.7198 27.2946
L9.12105 28.2288
L9.92356 27.3956
L10.3248 27.4768
L10.7261 28.4159
L11.1273 28.0034
L11.9298 29.4715
L12.3311 29.5342
L12.7323 28.961
L13.1336 29.0629
L13.9361 30.5381
L14.3373 30.5378
L15.1398 31.0219
L15.5411 30.977
L15.9423 31.2456
L16.3436 31.7318
L16.7448 31.6908
L17.1461 31.2155
L17.5473 31.2199
L17.9486 31.989
L18.7511 32.8866
L19.5536 31.786
L20.3561 33.0137
L20.7573 32.9377
L21.1586 32.5591
L21.9611 32.8935
L23.1648 33.7053
L23.9673 32.9273
L24.3686 32.6785
L24.7698 33.1461
L25.1711 33.8044
L25.9736 33.7822
L26.3748 33.9023
L26.7761 33.2776
L27.1773 33.6434
L27.5786 33.7805
L27.9799 33.3742
L28.3811 33.9362
L28.7824 34.293
L29.1836 33.5307
L29.5849 34.3355
L29.9861 34.0821
L30.7886 34.1404
L31.1899 34.452
L31.5911 33.7703
L32.3936 34.2656
L32.7949 34.1513
L33.1961 33.6803
L33.5974 34.4167
L33.9986 33.9367
L34.3999 34.0392
L34.8011 34.6079
L35.2024 34.7722
L35.6036 34.1803
L36.0049 34.1868
L36.4061 34.4954
L36.8074 34.4917
L37.2086 34.345
L37.6099 34.4869
L38.0111 34.259
L38.4124 34.3419
L38.8136 34.5839
L39.2149 34.439
L40.0174 34.5978
L40.4186 33.8542
L40.8199 34.1217
L41.2211 34.9861
L41.6224 34.0895
L42.0236 34.7491
L42.4249 34.6197
L42.8261 35.0372
L43.2274 34.5648
L43.6286 34.684
L44.8324 34.4876
L45.2336 34.0545
L45.6349 34.7297
L46.8386 34.2714
L47.2399 34.5393
L47.6412 34.6647
L48.0424 34.6657
L48.4437 34.9052
L48.8449 34.5076
L49.2462 34.501
L49.6474 34.8942
L50.0487 34.9726
L50.4499 34.295
L50.8512 34.2287
L51.2524 34.3082
L51.6537 34.0859
L52.0549 34.5351
L52.4562 34.3593
L52.8574 34.3954
L53.2587 35.1335
L53.6599 34.8503
L54.0612 34.9068
L54.4624 35.1413
L54.8637 35.0869
L55.2649 34.3933
L56.0674 34.6652
L56.4687 34.5099
L56.8699 34.5785
L57.2712 33.638
L58.0737 34.9931
L58.4749 34.5442
L58.8762 34.5703
L59.2774 34.9409
L59.6787 34.9097
L60.0799 34.275
L60.4812 34.9891
L61.2837 33.8581
L61.6849 34.9224
L62.0862 34.5458
L62.4874 34.381
L63.2899 34.8436
L64.0924 34.4674
L64.4937 34.9822
L64.8949 34.9864
L65.6974 34.1663
L66.0987 34.9984
L66.4999 35.2285
L66.9012 34.4474
L67.3024 34.2122
L67.7037 34.4647
L68.105 34.8949
L68.5062 34.5068
L69.3087 34.2566
L69.71 34.8805
L70.5125 34.4681
L70.9137 34.5335
L71.315 35.0965
L71.7162 34.7313
L72.5187 34.3673
L72.92 34.8378
L73.3212 34.6346
L73.7225 34.9744
L74.525 34.6906
L74.9262 34.7353
L75.3275 34.9247
L75.7287 34.2702
L76.13 34.2976
L76.5312 34.8284
L76.9325 34.9215
L77.3337 34.1883
L78.1362 34.3397
L78.5375 34.9404
L78.9387 34.7837
L79.34 35.0074
L79.7412 34.4945
L80.1425 34.3948
L80.5437 34.8633
L80.945 34.7885
L81.3462 34.3414
L81.7475 34.8212
L82.1487 34.418
L82.55 34.361
L82.9512 34.4885
L83.7537 35.1624
L84.155 34.3828
L84.5562 34.9867
L84.9575 34.2589
L85.3587 34.6662
L85.76 34.6643
L86.1612 34.3655
L86.1612 34.3655" style="fill:none;stroke:#377eb8;stroke-linecap:square;"/>
   </g>
   <g id="line2d_2">
    <path clip-path="url(#p142c0f8661)" d="
M6.3123 26.3069
L6.71355 26.3069
L7.1148 26.3069
L7.51605 25.9469
L8.31855 25.68
L9.12105 24.3166
L9.52231 24.5275
L9.92356 23.222
L11.1273 20.7569
L11.5286 21.0252
L11.9298 19.5432
L13.1336 17.6817
L13.5348 17.5372
L14.3373 15.9186
L14.7386 15.4467
L15.1398 15.385
L15.9423 14.8822
L16.3436 13.9012
L16.7448 13.5875
L17.1461 12.9751
L17.5473 12.7454
L17.9486 12.7412
L18.3498 12.4346
L18.7511 11.9111
L19.1523 11.0618
L19.5536 11.1897
L19.9548 11.0868
L20.3561 11.1418
L21.9611 9.62716
L22.3623 9.54398
L22.7636 9.78887
L23.1648 9.43213
L23.5661 8.77334
L23.9673 9.22845
L24.7698 8.1194
L25.5723 9.1329
L25.9736 7.99812
L26.3748 8.04113
L26.7761 7.6927
L27.1773 8.05932
L27.5786 8.75109
L27.9799 8.03709
L28.3811 7.94981
L29.1836 6.91161
L29.5849 7.38363
L29.9861 7.53318
L30.3874 7.21089
L31.1899 7.1915
L31.5911 7.31718
L33.1961 6.48304
L33.5974 6.98569
L33.9986 6.69913
L34.3999 7.03183
L34.8011 6.65704
L35.2024 6.6475
L35.6036 7.22132
L36.0049 6.95681
L36.4061 6.42761
L36.8074 6.57806
L37.2086 6.24345
L37.6099 6.59491
L38.0111 6.31147
L38.4124 6.33097
L38.8136 6.2151
L39.2149 6.45943
L40.0174 6.76091
L40.4186 6.37125
L40.8199 6.39236
L42.0236 5.60251
L42.4249 6.29688
L42.8261 5.88872
L43.2274 6.51549
L44.0299 6.11379
L44.4311 5.73475
L45.2336 6.33029
L45.6349 6.08604
L46.0361 6.54883
L46.4374 6.12797
L46.8386 5.50804
L47.2399 6.14283
L47.6412 6.37677
L48.0424 6.31254
L49.2462 5.58652
L50.0487 6.53314
L50.4499 6.14276
L50.8512 6.11123
L51.2524 5.65973
L51.6537 6.22113
L52.0549 5.87083
L52.4562 6.17369
L53.2587 6.25108
L53.6599 5.85681
L54.0612 5.63255
L54.8637 5.81898
L55.2649 5.65589
L56.0674 5.71585
L56.4687 6.14283
L57.2712 5.89932
L57.6724 6.06871
L58.0737 5.90665
L58.4749 5.88058
L58.8762 6.37311
L59.2774 5.80063
L60.0799 5.72806
L60.8824 6.18936
L61.2837 5.62522
L62.0862 6.05322
L62.4874 5.94561
L62.8887 5.37214
L63.2899 5.92351
L63.6912 5.53882
L64.0924 5.99257
L64.4937 6.04414
L65.2962 5.522
L65.6974 6.10119
L66.0987 6.05239
L66.4999 5.67129
L66.9012 6.56787
L67.3024 6.42272
L67.7037 5.64882
L68.5062 6.0564
L68.9075 6.2996
L69.3087 5.59289
L69.71 5.3086
L70.1112 5.78403
L70.5125 5.78418
L70.9137 6.06799
L71.315 5.20692
L71.7162 6.28304
L72.1175 6.48523
L72.92 5.44863
L73.3212 5.61801
L73.7225 6.11778
L74.1237 5.67312
L74.9262 5.96446
L75.7287 6.01184
L76.13 6.18579
L76.5312 5.3245
L77.3337 5.9431
L77.735 5.70422
L78.1362 6.40939
L78.5375 5.79201
L78.9387 5.75585
L79.34 6.05817
L79.7412 6.07258
L80.1425 6.52244
L80.945 5.47519
L81.3462 6.29854
L81.7475 5.85025
L82.55 5.86477
L82.9512 6.16293
L83.3525 5.95747
L83.7537 5.49922
L84.155 5.93689
L84.5562 5.60348
L85.3587 6.03567
L85.76 5.75773
L86.1612 5.80579
L86.1612 5.80579" style="fill:none;stroke:#e41a1c;stroke-linecap:square;"/>
   </g>
   <g id="line2d_3">
    <path clip-path="url(#p142c0f8661)" d="
M6.3123 26.3069
L7.51605 26.3514
L7.9173 25.8342
L8.31855 26.0515
L8.7198 25.5124
L9.12105 25.4656
L9.52231 24.7742
L9.92356 25.0102
L10.3248 24.8657
L10.7261 25.2124
L11.1273 24.7418
L11.5286 24.7294
L12.3311 24.2789
L12.7323 24.2525
L13.1336 24.0297
L13.5348 24.3988
L13.9361 23.9865
L14.3373 23.8891
L15.5411 23.0139
L15.9423 23.5272
L16.7448 22.6308
L17.1461 22.9561
L17.5473 22.7673
L17.9486 23.0303
L18.3498 22.5534
L18.7511 22.296
L19.1523 22.7403
L19.5536 22.3378
L19.9548 22.4587
L20.3561 22.4474
L20.7573 21.9892
L21.1586 22.1494
L21.5598 22.5169
L21.9611 22.293
L22.3623 22.2066
L22.7636 21.64
L23.1648 21.4072
L23.5661 22.218
L23.9673 22.4496
L24.3686 22.187
L24.7698 22.12
L25.1711 22.2222
L25.9736 21.8854
L26.3748 21.1773
L26.7761 21.8041
L27.1773 21.48
L27.5786 21.3043
L27.9799 21.9636
L28.7824 20.9133
L29.1836 21.8567
L29.5849 21.4119
L29.9861 21.7188
L30.3874 21.8407
L30.7886 21.5718
L31.1899 20.9842
L31.5911 21.3591
L31.9924 22.623
L32.3936 21.5729
L32.7949 21.109
L33.1961 21.4324
L33.5974 20.7926
L33.9986 21.032
L34.3999 21.7429
L34.8011 21.0184
L35.2024 21.9421
L37.2086 21.3675
L37.6099 21.0034
L38.4124 21.8678
L38.8136 21.1516
L39.6161 21.9615
L40.0174 20.8691
L40.4186 20.7889
L40.8199 21.0693
L41.2211 22.0748
L41.6224 20.8874
L42.8261 21.3534
L43.2274 21.3228
L43.6286 21.0934
L44.0299 21.1105
L44.4311 20.9777
L44.8324 21.1395
L45.2336 21.1405
L46.0361 20.87
L46.4374 21.5196
L47.2399 21.0125
L47.6412 21.1121
L48.0424 21.9956
L48.4437 21.8908
L48.8449 20.9455
L49.2462 21.2754
L50.0487 21.1167
L50.4499 21.4326
L51.2524 21.014
L51.6537 21.3512
L52.0549 20.8743
L52.4562 20.9747
L52.8574 21.261
L53.2587 21.0414
L53.6599 21.7091
L54.0612 21.7112
L54.4624 21.4334
L55.6662 21.2465
L56.0674 21.5262
L56.4687 20.9382
L56.8699 20.6112
L57.6724 21.4945
L58.0737 21.3729
L58.4749 20.6555
L58.8762 21.1988
L59.2774 21.2304
L59.6787 21.1273
L60.0799 21.5877
L60.4812 21.2674
L61.2837 21.4154
L62.0862 21.0835
L62.4874 21.0471
L62.8887 20.8271
L63.2899 21.1417
L64.4937 20.9294
L64.8949 21.5984
L65.2962 21.8862
L65.6974 21.6773
L66.0987 21.1354
L66.4999 20.8753
L66.9012 21.0686
L67.3024 21.0543
L68.105 21.5466
L68.5062 20.7915
L69.3087 21.201
L69.71 21.0076
L70.1112 21.3773
L70.5125 20.9908
L70.9137 21.3751
L71.315 20.8291
L71.7162 21.2259
L72.1175 20.7865
L72.5187 21.5714
L72.92 21.7747
L73.3212 21.2889
L74.1237 21.1351
L74.525 21.1272
L74.9262 21.4535
L75.3275 20.5026
L75.7287 21.6616
L76.13 21.1849
L76.5312 20.886
L76.9325 21.6944
L77.3337 21.8233
L77.735 21.6664
L78.1362 20.8524
L78.5375 20.7906
L78.9387 21.3202
L79.34 21.1848
L79.7412 21.5592
L80.1425 21.6739
L80.5437 21.1532
L80.945 20.9859
L81.3462 21.3536
L81.7475 20.6561
L82.1487 20.812
L82.55 21.2396
L82.9512 21.4106
L83.3525 20.508
L83.7537 21.3433
L84.155 21.6334
L84.5562 21.4217
L84.9575 21.3725
L85.3587 21.4739
L85.76 20.3059
L86.1612 20.8799
L86.1612 20.8799" style="fill:none;stroke:#4daf4a;stroke-linecap:square;"/>
   </g>
   <g id="line2d_4">
    <path clip-path="url(#p142c0f8661)" d="
M6.3123 26.3069
L6.71355 26.3069
L7.1148 26.3069
L7.51605 27.0022
L7.9173 26.2521
L8.7198 26.306
L9.12105 25.7846
L9.52231 26.4171
L9.92356 25.8822
L10.3248 25.7432
L10.7261 25.8662
L11.1273 25.6966
L11.5286 25.9792
L11.9298 25.3918
L12.3311 25.8228
L12.7323 25.6883
L13.1336 25.827
L13.5348 25.5688
L13.9361 25.8365
L14.7386 25.0297
L15.5411 25.2498
L15.9423 24.7862
L16.3436 25.1881
L17.5473 24.4563
L17.9486 25.1114
L18.3498 25.0458
L18.7511 24.5534
L19.1523 24.8934
L19.5536 24.9846
L19.9548 24.5708
L20.7573 24.8953
L21.1586 24.2191
L21.9611 25.123
L22.3623 24.7807
L23.1648 23.4619
L23.5661 23.7436
L23.9673 25.2179
L24.3686 24.272
L24.7698 24.4585
L25.1711 24.1644
L25.5723 24.4108
L26.3748 24.3777
L26.7761 23.907
L27.1773 24.1157
L27.5786 24.6355
L28.3811 23.9347
L28.7824 24.2154
L30.3874 24.1319
L30.7886 23.7357
L31.1899 24.2747
L31.5911 24.362
L31.9924 24.6057
L32.3936 24.0479
L33.1961 23.7254
L33.5974 24.2216
L33.9986 24.0004
L34.3999 24.894
L34.8011 24.1363
L35.2024 23.7224
L36.0049 23.6727
L36.4061 24.1478
L37.2086 24.0465
L37.6099 23.9182
L38.4124 24.2295
L38.8136 24.1271
L39.2149 24.7246
L39.6161 23.3867
L40.0174 24.1121
L40.4186 23.4637
L40.8199 23.9451
L41.2211 23.8194
L41.6224 23.878
L42.0236 24.5251
L42.4249 24.1075
L42.8261 23.8669
L43.2274 23.3366
L43.6286 24.4585
L44.0299 24.491
L44.4311 23.671
L44.8324 23.9746
L45.2336 24.5032
L45.6349 24.1322
L46.0361 23.4247
L46.4374 23.9825
L46.8386 24.346
L47.2399 23.9716
L47.6412 24.0242
L48.0424 23.7982
L48.4437 23.7395
L48.8449 24.041
L49.2462 24.0162
L50.0487 23.6555
L51.2524 24.2768
L51.6537 24.0855
L52.0549 23.6734
L52.4562 23.9165
L52.8574 23.5353
L53.2587 23.7227
L54.0612 24.6116
L54.4624 23.935
L54.8637 24.1865
L55.2649 23.542
L56.0674 23.5901
L56.4687 24.138
L56.8699 23.7851
L57.2712 23.8612
L57.6724 24.3405
L58.0737 24.5867
L58.4749 23.9346
L58.8762 23.6589
L59.6787 24.2293
L60.0799 24.293
L60.4812 23.6264
L60.8824 23.7922
L61.2837 23.7119
L61.6849 24.1624
L62.0862 23.4361
L62.4874 23.9068
L62.8887 23.0535
L63.6912 24.2915
L64.0924 24.4811
L64.4937 23.8196
L64.8949 24.1257
L65.6974 23.5854
L66.0987 23.9185
L66.9012 24.1306
L67.3024 24.1285
L67.7037 24.5141
L68.5062 23.0343
L68.9075 23.324
L69.71 24.5478
L70.1112 23.9659
L70.9137 24.3818
L71.315 23.763
L71.7162 23.512
L72.1175 24.3852
L72.5187 23.7667
L72.92 23.7797
L73.3212 24.2497
L73.7225 24.5463
L74.1237 23.91
L74.525 23.5429
L74.9262 23.913
L75.3275 23.9214
L75.7287 23.3921
L76.13 23.8745
L76.5312 23.9775
L76.9325 23.6679
L77.3337 24.1544
L77.735 24.1177
L78.1362 24.2383
L78.5375 23.5481
L78.9387 23.4055
L79.7412 24.2505
L80.1425 24.4701
L80.5437 23.8415
L81.7475 23.7863
L82.1487 24.0566
L82.55 24.1798
L82.9512 23.8624
L83.7537 23.7073
L84.155 24.3596
L85.3587 23.7219
L85.76 23.7327
L86.1612 24.3252
L86.1612 24.3252" style="fill:none;stroke:#984ea3;stroke-linecap:square;"/>
   </g>
   <g id="line2d_5">
    <path clip-path="url(#p142c0f8661)" d="
M5.91105 34.3686
L86.1612 34.3686" style="fill:none;stroke:#377eb8;stroke-linecap:square;"/>
   </g>
   <g id="line2d_6">
    <path clip-path="url(#p142c0f8661)" d="
M5.91105 7.11232
L86.1612 7.11232" style="fill:none;stroke:#e41a1c;stroke-linecap:square;"/>
   </g>
   <g id="line2d_7">
    <path clip-path="url(#p142c0f8661)" d="
M5.91105 21.7002
L86.1612 21.7002" style="fill:none;stroke:#4daf4a;stroke-linecap:square;"/>
   </g>
   <g id="line2d_8">
    <path clip-path="url(#p142c0f8661)" d="
M5.91105 24.0035
L86.1612 24.0035" style="fill:none;stroke:#984ea3;stroke-linecap:square;"/>
   </g>
   <g id="matplotlib.axis_1"/>
   <g id="matplotlib.axis_2">
    <g id="ytick_1">
     <g id="line2d_9">
      <defs>
       <path d="
M0 0
L-4 0" id="mcb0005524f" style="stroke:#000000;stroke-width:0.5;"/>
      </defs>
      <g>
       <use style="stroke:#000000;stroke-width:0.5;" x="86.1612455459" xlink:href="#mcb0005524f" y="33.9846791647"/>
      </g>
     </g>
     <g id="text_1">
      <!-- $-0.2$ -->
      <defs>
       <path d="
M65.9062 23
C67.5938 23 69.4062 23 69.4062 25
C69.4062 27 67.5938 27 65.9062 27
L11.7969 27
C10.0938 27 8.29688 27 8.29688 25
C8.29688 23 10.0938 23 11.7969 23
z
" id="CMSY10-0"/>
       <path d="
M19.2031 5.28125
C19.2031 8.15625 16.7969 10.5469 13.9062 10.5469
C11 10.5469 8.59375 8.15625 8.59375 5.28125
C8.59375 2.39062 11 0 13.9062 0
C16.7969 0 19.2031 2.39062 19.2031 5.28125" id="CMMI10-58"/>
       <path d="
M25.4062 67
C19.9062 67 15.7031 65.3594 12 61.9688
C6.20312 56.5156 2.40625 45.3438 2.40625 33.9844
C2.40625 23.4062 5.70312 12.0469 10.4062 6.60938
C14.0938 2.34375 19.2031 0 25 0
C30.0938 0 34.4062 1.65625 38 5.04688
C43.7969 10.3906 47.5938 21.6719 47.5938 33.4062
C47.5938 53.3125 38.5 67 25.4062 67
M25.0938 64.4062
C33.5 64.4062 38 53.4688 38 33.2188
C38 12.9844 33.5938 2.60938 25 2.60938
C16.4062 2.60938 12 12.9844 12 33.125
C12 53.6562 16.5 64.4062 25.0938 64.4062" id="Nimbus_Roman_No9_L_Regular-48"/>
       <path d="
M47.5 13.625
L46.2031 14.125
C42.5 8.48438 41.2031 7.59375 36.7031 7.59375
L12.7969 7.59375
L29.5938 25.0312
C38.5 34.2344 42.4062 41.75 42.4062 49.4844
C42.4062 59.3906 34.2969 67 23.9062 67
C18.4062 67 13.2031 64.8281 9.5 60.8594
C6.29688 57.4688 4.79688 54.2969 3.09375 47.25
L5.20312 46.75
C9.20312 56.4375 12.7969 59.6094 19.7031 59.6094
C28.0938 59.6094 33.7969 53.9688 33.7969 45.6406
C33.7969 37.9219 29.2031 28.7188 20.7969 19.9062
L3 1.20312
L3 0
L42 0
z
" id="Nimbus_Roman_No9_L_Regular-50"/>
      </defs>
      <g transform="translate(90.1612455459 35.363997687)scale(0.06 -0.06)">
       <use transform="scale(0.996264009963)" xlink:href="#CMSY10-0"/>
       <use transform="translate(77.4087072161 0.0)scale(0.996264009963)" xlink:href="#Nimbus_Roman_No9_L_Regular-48"/>
       <use transform="translate(127.221907714 0.0)scale(0.996264009963)" xlink:href="#CMMI10-58"/>
       <use transform="translate(154.817414432 0.0)scale(0.996264009963)" xlink:href="#Nimbus_Roman_No9_L_Regular-50"/>
      </g>
     </g>
    </g>
    <g id="ytick_2">
     <g id="line2d_10">
      <g>
       <use style="stroke:#000000;stroke-width:0.5;" x="86.1612455459" xlink:href="#mcb0005524f" y="26.3068633367"/>
      </g>
     </g>
     <g id="text_2">
      <!-- $0.0$ -->
      <g transform="translate(90.1612455459 27.686181859)scale(0.06 -0.06)">
       <use transform="scale(0.996264009963)" xlink:href="#Nimbus_Roman_No9_L_Regular-48"/>
       <use transform="translate(49.8132004981 0.0)scale(0.996264009963)" xlink:href="#CMMI10-58"/>
       <use transform="translate(77.4087072161 0.0)scale(0.996264009963)" xlink:href="#Nimbus_Roman_No9_L_Regular-48"/>
      </g>
     </g>
    </g>
    <g id="ytick_3">
     <g id="line2d_11">
      <g>
       <use style="stroke:#000000;stroke-width:0.5;" x="86.1612455459" xlink:href="#mcb0005524f" y="18.6290475087"/>
      </g>
     </g>
     <g id="text_3">
      <!-- $0.2$ -->
      <g transform="translate(90.1612455459 20.008366031)scale(0.06 -0.06)">
       <use transform="scale(0.996264009963)" xlink:href="#Nimbus_Roman_No9_L_Regular-48"/>
       <use transform="translate(49.8132004981 0.0)scale(0.996264009963)" xlink:href="#CMMI10-58"/>
       <use transform="translate(77.4087072161 0.0)scale(0.996264009963)" xlink:href="#Nimbus_Roman_No9_L_Regular-50"/>
      </g>
     </g>
    </g>
    <g id="ytick_4">
     <g id="line2d_12">
      <g>
       <use style="stroke:#000000;stroke-width:0.5;" x="86.1612455459" xlink:href="#mcb0005524f" y="10.9512316807"/>
      </g>
     </g>
     <g id="text_4">
      <!-- $0.4$ -->
      <defs>
       <path d="
M47.2031 23
L37 23
L37 67.5938
L32.5938 67.5938
L1.20312 23
L1.20312 16.6094
L29.2969 16.6094
L29.2969 0
L37 0
L37 16.6094
L47.2031 16.6094
z

M29.2031 23
L5.20312 23
L29.2031 57.375
z
" id="Nimbus_Roman_No9_L_Regular-52"/>
      </defs>
      <g transform="translate(90.1612455459 12.330550203)scale(0.06 -0.06)">
       <use transform="scale(0.996264009963)" xlink:href="#Nimbus_Roman_No9_L_Regular-48"/>
       <use transform="translate(49.8132004981 0.0)scale(0.996264009963)" xlink:href="#CMMI10-58"/>
       <use transform="translate(77.4087072161 0.0)scale(0.996264009963)" xlink:href="#Nimbus_Roman_No9_L_Regular-52"/>
      </g>
     </g>
    </g>
    <g id="ytick_5">
     <g id="line2d_13">
      <g>
       <use style="stroke:#000000;stroke-width:0.5;" x="86.1612455459" xlink:href="#mcb0005524f" y="3.27341585266"/>
      </g>
     </g>
     <g id="text_5">
      <!-- $0.6$ -->
      <defs>
       <path d="
M44.5938 69.6094
C33.2031 68.6094 27.4062 66.7188 20.0938 61.625
C9.29688 53.9531 3.40625 42.5781 3.40625 29.2344
C3.40625 20.5469 6.09375 11.7812 10.4062 6.79688
C14.2031 2.40625 19.5938 0 25.7969 0
C38.2031 0 46.7969 9.45312 46.7969 23.2031
C46.7969 35.9375 39.5 44 28 44
C23.5938 44 21.5 43.2969 15.2031 39.5
C17.9062 54.6094 29.0938 65.4062 44.7969 68
z

M24.2031 39.4062
C32.7969 39.4062 37.7969 32.25 37.7969 19.8125
C37.7969 8.875 33.9062 2.8125 26.9062 2.8125
C18.0938 2.8125 12.7031 12.1562 12.7031 27.5625
C12.7031 32.6406 13.5 35.4219 15.5 36.9219
C17.5938 38.5 20.7031 39.4062 24.2031 39.4062" id="Nimbus_Roman_No9_L_Regular-54"/>
      </defs>
      <g transform="translate(90.1612455459 4.652734375)scale(0.06 -0.06)">
       <use transform="scale(0.996264009963)" xlink:href="#Nimbus_Roman_No9_L_Regular-48"/>
       <use transform="translate(49.8132004981 0.0)scale(0.996264009963)" xlink:href="#CMMI10-58"/>
       <use transform="translate(77.4087072161 0.0)scale(0.996264009963)" xlink:href="#Nimbus_Roman_No9_L_Regular-54"/>
      </g>
     </g>
    </g>
    <g id="text_6">
     <!-- A -->
     <defs>
      <path d="
M70.5938 2
C66.0938 2 65.0938 3 61.5938 10.4219
L36.7031 67.5
L34.7031 67.5
L13.9062 18.25
C7.5 3.60938 6.29688 2 1.5 2
L1.5 0
L21.2969 0
L21.2969 2
C16.5 2 14.5 3.3125 14.5 6.14062
C14.5 7.34375 14.7969 8.75 15.2969 10.0781
L19.9062 21.8906
L46.0938 21.8906
L50.2031 12.1562
C51.4062 9.40625 52.0938 6.78125 52.0938 5.34375
C52.0938 2.8125 50.4062 2 45.0938 2
L45.0938 0
L70.5938 0
z

M21.5938 26
L33.0938 53.375
L44.7031 26
z
" id="Nimbus_Roman_No9_L_Regular-65"/>
     </defs>
     <g transform="translate(111.49179067 22.7063944743)rotate(-90.0)scale(0.06 -0.06)">
      <use transform="scale(0.996264009963)" xlink:href="#Nimbus_Roman_No9_L_Regular-65"/>
     </g>
    </g>
   </g>
   <g id="patch_3">
    <path d="
M86.1612 37.8236
L86.1612 3.27342" style="fill:none;stroke:#000000;"/>
   </g>
  </g>
  <g id="axes_2">
   <g id="patch_4">
    <path d="
M5.91105 78.4406
L86.1612 78.4406
L86.1612 43.8904
L5.91105 43.8904
z
" style="fill:#ffffff;"/>
   </g>
   <g id="line2d_14">
    <path clip-path="url(#pd205ddd705)" d="
M6.3123 57.7105
L6.71355 57.7105
L7.1148 57.7105
L7.51605 57.2817
L7.9173 57.315
L8.31855 58.1553
L8.7198 58.5478
L9.52231 58.1929
L10.3248 58.8212
L10.7261 58.4912
L11.5286 59.9128
L12.3311 59.8111
L12.7323 59.7194
L13.1336 59.816
L13.5348 59.5273
L13.9361 60.2158
L14.7386 60.9079
L15.5411 60.2995
L15.9423 60.4753
L16.3436 61.0875
L16.7448 61.2049
L17.1461 61.5561
L17.5473 61.1342
L18.3498 61.9651
L18.7511 61.5445
L19.1523 61.5665
L19.5536 61.3793
L20.3561 61.9547
L21.1586 62.1874
L21.5598 61.8632
L21.9611 62.3583
L23.1648 61.5666
L23.5661 62.1612
L24.3686 62.4108
L24.7698 62.2607
L25.5723 62.4643
L25.9736 63.0863
L26.3748 62.5603
L26.7761 62.4696
L27.1773 62.8748
L27.5786 62.4375
L27.9799 62.4126
L28.3811 62.5198
L28.7824 63.1276
L29.5849 62.8199
L29.9861 62.8089
L30.3874 63.0336
L30.7886 63.0722
L31.1899 62.5234
L31.5911 62.438
L31.9924 62.5324
L32.3936 62.9561
L32.7949 62.7197
L33.1961 62.95
L33.5974 62.9182
L33.9986 63.1098
L34.3999 62.8907
L34.8011 63.0728
L35.2024 62.8198
L36.0049 63.0022
L36.4061 63.4202
L36.8074 62.9546
L37.6099 63.4437
L38.0111 62.9605
L38.4124 62.7612
L38.8136 63.4399
L39.2149 62.9017
L39.6161 62.7643
L40.0174 63.298
L40.4186 63.133
L40.8199 63.2393
L41.2211 63.2053
L41.6224 63.5254
L42.4249 62.7104
L42.8261 62.9244
L43.2274 63.3726
L43.6286 63.4631
L44.0299 63.0279
L44.4311 63.0613
L44.8324 63.3755
L45.2336 63.3726
L46.4374 62.6785
L46.8386 63.083
L47.2399 62.9448
L47.6412 62.6072
L48.0424 63.3014
L49.2462 63.121
L49.6474 63.2375
L50.4499 63.2729
L50.8512 62.9512
L51.2524 62.9611
L52.0549 63.3717
L52.4562 63.8577
L52.8574 63.8326
L53.6599 62.8757
L54.0612 62.9064
L54.8637 63.528
L55.2649 63.078
L56.0674 63.6527
L56.4687 62.9912
L56.8699 63.1263
L57.2712 62.9563
L57.6724 63.1422
L58.0737 62.8121
L58.4749 63.3784
L58.8762 63.5081
L59.6787 62.812
L60.0799 63.3953
L60.4812 62.8535
L60.8824 63.1523
L61.2837 62.7948
L62.0862 62.7844
L62.8887 63.4911
L63.2899 63.1201
L63.6912 62.5102
L64.4937 63.5054
L65.2962 62.7718
L66.0987 63.334
L66.4999 63.3303
L67.3024 63.6359
L67.7037 63.5778
L68.105 63.1445
L68.5062 62.9445
L68.9075 63.2322
L69.3087 63.7893
L70.1112 62.4315
L70.5125 63.3233
L70.9137 63.1363
L71.315 63.6873
L71.7162 63.4727
L72.1175 63.0782
L72.5187 62.8477
L73.3212 63.3497
L73.7225 63.0104
L74.1237 63.436
L74.525 63.3025
L75.3275 63.3228
L75.7287 62.9868
L76.13 63.0352
L76.5312 62.7629
L76.9325 63.0523
L77.735 63.3158
L78.1362 63.6893
L78.5375 62.6861
L78.9387 62.8799
L79.34 63.5137
L79.7412 63.2002
L80.1425 63.183
L80.5437 63.339
L80.945 62.4331
L81.3462 62.6337
L81.7475 63.3535
L82.1487 63.3914
L82.55 62.9626
L82.9512 63.6041
L83.3525 63.5911
L83.7537 62.9111
L84.5562 62.9664
L84.9575 63.3576
L85.3587 63.2964
L85.76 63.4736
L86.1612 63.0897
L86.1612 63.0897" style="fill:none;stroke:#377eb8;stroke-linecap:square;"/>
   </g>
   <g id="line2d_15">
    <path clip-path="url(#pd205ddd705)" d="
M6.3123 57.7105
L6.71355 57.7105
L7.1148 57.7105
L7.51605 57.292
L7.9173 57.2211
L8.31855 56.6777
L8.7198 56.3501
L9.12105 56.6092
L9.52231 56.2631
L9.92356 56.1749
L10.3248 55.7792
L10.7261 55.1828
L11.1273 55.2449
L11.5286 54.689
L11.9298 54.5978
L12.3311 54.2412
L12.7323 53.4326
L13.1336 53.7808
L13.5348 53.5138
L13.9361 52.8836
L14.3373 52.9472
L14.7386 52.7024
L15.1398 52.1219
L15.5411 51.9078
L15.9423 51.9041
L16.3436 51.6073
L17.1461 51.8551
L17.5473 51.0111
L17.9486 50.5742
L18.3498 50.8893
L19.1523 50.8548
L19.9548 50.0615
L20.3561 50.5479
L20.7573 50.5433
L21.1586 49.6414
L21.5598 49.6653
L21.9611 49.36
L22.3623 49.6817
L22.7636 49.544
L23.1648 49.9222
L23.5661 49.6303
L23.9673 49.1422
L24.3686 49.1919
L24.7698 49.7131
L25.1711 48.7045
L25.9736 49.1199
L26.3748 48.7314
L26.7761 48.6278
L27.5786 48.8862
L27.9799 48.8371
L28.3811 48.6529
L29.1836 48.956
L29.5849 48.486
L29.9861 48.6923
L30.3874 48.6129
L30.7886 48.1509
L31.1899 48.6561
L31.5911 48.3427
L32.3936 48.2717
L32.7949 48.245
L33.1961 47.8921
L33.5974 48.3457
L33.9986 48.3935
L34.3999 48.047
L34.8011 48.4311
L35.2024 48.0723
L35.6036 48.0366
L36.8074 48.3406
L37.2086 47.9899
L37.6099 47.7912
L38.0111 47.9283
L38.4124 48.6794
L39.2149 47.7451
L39.6161 48.5075
L40.0174 48.2069
L40.4186 47.6931
L40.8199 48.2066
L41.6224 47.6978
L42.0236 48.147
L42.4249 48.285
L42.8261 47.4037
L43.2274 47.5382
L43.6286 48.3201
L44.0299 47.7651
L44.8324 47.9145
L45.2336 48.4366
L45.6349 47.6218
L46.0361 47.552
L46.4374 47.8685
L46.8386 47.6342
L47.2399 47.7727
L47.6412 48.1349
L48.0424 47.7353
L48.4437 48.2323
L48.8449 47.915
L49.6474 48.1726
L50.0487 48.0226
L50.4499 47.6846
L50.8512 47.743
L51.2524 48.16
L51.6537 47.7639
L52.0549 47.9808
L52.4562 48.0159
L52.8574 47.7684
L53.2587 47.9691
L53.6599 48.4679
L54.0612 48.1582
L54.4624 47.3473
L54.8637 47.6308
L55.2649 48.1852
L55.6662 48.1586
L56.0674 47.3909
L56.4687 47.9247
L56.8699 47.7494
L57.6724 47.7175
L58.0737 47.3185
L58.8762 47.5255
L59.2774 47.9457
L59.6787 47.8067
L60.0799 48.0521
L60.4812 47.6745
L60.8824 48.3472
L61.2837 48.0203
L61.6849 48.0237
L62.0862 47.3372
L62.4874 47.838
L62.8887 48.1097
L63.2899 47.4068
L64.0924 48.1716
L64.4937 47.8161
L64.8949 47.6522
L65.2962 47.8697
L65.6974 47.468
L66.0987 47.6923
L66.4999 48.0882
L66.9012 47.8107
L67.3024 47.9162
L67.7037 47.87
L68.105 48.0004
L68.9075 47.6054
L69.3087 47.7145
L69.71 47.949
L70.1112 48.3336
L70.5125 48.008
L70.9137 47.4096
L71.7162 47.707
L72.1175 47.5421
L72.92 47.9869
L73.3212 47.2541
L73.7225 47.9922
L74.1237 47.8993
L74.525 47.9413
L74.9262 48.2623
L75.3275 47.9695
L75.7287 47.4204
L76.13 47.9239
L76.9325 48.2407
L77.3337 47.9358
L77.735 48.1811
L78.1362 48.0486
L78.5375 48.0616
L78.9387 47.5894
L79.34 48.3203
L79.7412 47.7942
L80.1425 47.6958
L80.5437 47.9026
L81.3462 47.6319
L81.7475 47.7891
L82.1487 48.0697
L82.55 47.6617
L82.9512 47.4131
L83.3525 47.9332
L83.7537 47.6826
L84.155 47.8675
L84.5562 47.7957
L84.9575 48.1698
L85.3587 47.7782
L86.1612 47.5089
L86.1612 47.5089" style="fill:none;stroke:#e41a1c;stroke-linecap:square;"/>
   </g>
   <g id="line2d_16">
    <path clip-path="url(#pd205ddd705)" d="
M6.3123 57.7105
L6.71355 57.7105
L7.1148 57.7105
L7.51605 57.8651
L7.9173 58.2592
L8.31855 57.7119
L8.7198 57.3996
L9.12105 57.2377
L9.52231 56.879
L9.92356 56.69
L10.3248 56.0959
L10.7261 56.3481
L11.1273 56.35
L11.9298 55.3192
L12.3311 55.5175
L12.7323 55.0605
L13.1336 54.8782
L13.5348 54.3985
L13.9361 54.7542
L14.3373 54.1021
L15.1398 53.9898
L15.5411 54.0093
L15.9423 53.8863
L16.3436 53.578
L16.7448 53.8092
L17.1461 53.4743
L17.5473 53.8011
L17.9486 53.536
L18.3498 52.9847
L18.7511 52.7888
L19.1523 53.335
L19.5536 52.6859
L20.7573 52.9848
L21.5598 52.8465
L21.9611 52.478
L22.3623 51.8958
L22.7636 51.6479
L23.1648 52.3107
L23.9673 52.6436
L24.3686 52.2636
L24.7698 52.0623
L25.1711 52.4279
L25.5723 52.0174
L26.3748 51.5671
L26.7761 51.6528
L27.1773 52.2223
L28.3811 51.5274
L28.7824 51.7201
L29.1836 51.6191
L29.9861 52.1388
L30.7886 50.8644
L31.1899 50.9944
L31.5911 51.9356
L31.9924 51.3944
L32.3936 51.0931
L33.5974 51.9936
L33.9986 51.5778
L34.3999 51.6269
L34.8011 51.3566
L35.2024 51.3226
L35.6036 51.1151
L36.0049 51.8001
L36.4061 51.386
L36.8074 51.6003
L37.2086 51.1683
L37.6099 51.6279
L38.0111 51.2928
L38.8136 51.2164
L39.2149 51.3893
L40.8199 51.2579
L41.2211 51.504
L41.6224 51.2255
L42.0236 51.783
L42.4249 51.7812
L42.8261 51.4754
L43.2274 51.5474
L43.6286 51.3541
L44.0299 51.0199
L44.4311 51.3491
L45.2336 50.7656
L45.6349 51.3656
L46.0361 51.6582
L46.8386 51.3072
L47.2399 51.3454
L47.6412 50.9325
L48.0424 51.0745
L48.4437 50.7657
L49.2462 51.5607
L49.6474 51.2247
L50.0487 51.4158
L50.4499 51.4145
L50.8512 51.0838
L52.0549 51.4335
L52.4562 50.8162
L53.2587 51.1531
L53.6599 51.3796
L54.0612 51.8134
L54.8637 50.8442
L55.2649 51.071
L55.6662 51.1485
L56.0674 51.3902
L56.4687 51.0105
L57.2712 51.3593
L57.6724 51.127
L58.4749 51.5631
L59.2774 50.8509
L59.6787 51.2405
L60.4812 51.5903
L60.8824 51.2244
L61.2837 51.2132
L61.6849 51.0469
L62.4874 51.3611
L62.8887 51.2346
L63.2899 51.2905
L63.6912 50.7685
L64.0924 51.0474
L64.4937 51.0762
L64.8949 51.3243
L65.2962 51.4173
L66.0987 50.9502
L66.4999 51.2434
L66.9012 51.1687
L67.3024 51.3484
L67.7037 51.057
L68.5062 51.5178
L68.9075 51.4869
L69.3087 50.829
L69.71 51.5867
L70.1112 51.492
L70.5125 51.0817
L70.9137 51.1527
L71.315 51.4701
L71.7162 51.2969
L72.1175 50.8426
L72.92 51.5386
L73.3212 51.14
L74.1237 51.0865
L74.525 50.9377
L74.9262 51.0356
L75.3275 50.9374
L75.7287 51.2868
L76.13 51.0416
L76.5312 51.2485
L78.1362 51.0622
L78.5375 51.4327
L78.9387 51.5926
L79.34 51.3017
L79.7412 51.3012
L80.1425 50.7322
L80.5437 50.5927
L80.945 51.1682
L81.3462 51.4592
L81.7475 51.2496
L82.1487 51.4159
L82.55 51.3514
L82.9512 51.5494
L83.3525 51.111
L84.155 51.2473
L84.5562 51.6084
L84.9575 51.2037
L85.3587 51.1596
L85.76 51.2971
L86.1612 51.5856
L86.1612 51.5856" style="fill:none;stroke:#4daf4a;stroke-linecap:square;"/>
   </g>
   <g id="line2d_17">
    <path clip-path="url(#pd205ddd705)" d="
M6.3123 57.7105
L6.71355 57.7105
L7.1148 57.7105
L7.51605 58.6113
L7.9173 58.3177
L8.31855 58.617
L9.12105 59.7449
L9.52231 59.9762
L9.92356 60.9259
L10.7261 61.7221
L11.5286 63.2899
L11.9298 63.3662
L12.7323 65.1645
L13.5348 65.6264
L13.9361 66.6141
L14.3373 66.2409
L16.3436 69.1421
L16.7448 69.0631
L17.1461 69.177
L17.5473 69.4343
L17.9486 69.8719
L18.3498 69.5218
L18.7511 70.1563
L19.1523 71.0832
L19.5536 70.6621
L20.3561 71.6296
L20.7573 71.3538
L21.1586 71.9019
L21.5598 72.0306
L21.9611 71.9409
L22.7636 72.7118
L23.1648 72.5874
L23.5661 72.8039
L23.9673 73.2582
L24.3686 73.2267
L24.7698 73.5872
L25.1711 73.763
L25.5723 73.5467
L25.9736 73.5193
L26.3748 73.7954
L26.7761 74.2959
L27.1773 74.4111
L27.5786 73.9362
L27.9799 73.7107
L28.3811 74.0372
L28.7824 74.0563
L29.1836 74.4307
L29.5849 74.6088
L30.3874 74.5416
L30.7886 74.6019
L31.1899 74.468
L31.5911 74.7257
L31.9924 74.6239
L32.3936 74.8038
L32.7949 74.6466
L33.1961 74.8851
L33.9986 74.7059
L34.3999 75.1411
L36.0049 74.9385
L36.4061 75.5392
L36.8074 75.1422
L37.2086 75.1722
L38.0111 75.5149
L38.4124 75.2509
L38.8136 75.3372
L39.2149 75.1397
L39.6161 75.7739
L40.0174 75.2902
L40.4186 75.4892
L40.8199 75.9464
L41.2211 75.0959
L41.6224 75.6816
L42.0236 75.5399
L42.8261 75.0934
L43.6286 75.582
L44.0299 75.3924
L44.4311 75.6307
L44.8324 75.355
L45.2336 75.3562
L45.6349 75.7234
L46.0361 75.1878
L46.4374 75.867
L47.2399 75.3071
L47.6412 75.8698
L48.4437 75.8309
L48.8449 75.3365
L49.6474 75.7198
L50.0487 75.7726
L50.4499 75.6808
L50.8512 75.3099
L51.2524 75.438
L51.6537 76.2857
L52.0549 76.1204
L52.4562 75.3754
L52.8574 74.9793
L53.2587 75.6449
L53.6599 75.8187
L54.0612 75.4583
L54.4624 76.0123
L54.8637 75.8957
L55.2649 75.5952
L55.6662 75.8677
L56.0674 75.6233
L56.4687 75.989
L57.2712 75.2834
L57.6724 75.9352
L58.0737 75.9549
L58.4749 76.0873
L59.2774 75.1854
L59.6787 76.0179
L60.8824 75.4121
L61.2837 75.2104
L61.6849 76.059
L62.0862 76.0215
L62.4874 75.6905
L62.8887 75.1953
L63.2899 76.128
L64.0924 75.6024
L64.4937 75.7027
L64.8949 75.981
L65.2962 75.6608
L65.6974 75.9883
L66.0987 76.0039
L66.9012 75.6933
L67.3024 75.7728
L67.7037 75.513
L68.105 76.1925
L68.5062 75.4433
L68.9075 75.6985
L69.3087 75.8064
L70.1112 75.1235
L70.5125 76.1231
L70.9137 75.8994
L71.315 75.2937
L72.1175 75.8132
L72.5187 75.9781
L73.3212 75.9842
L73.7225 75.3896
L74.525 75.8807
L74.9262 75.8334
L75.3275 75.5544
L75.7287 75.6523
L76.13 75.8839
L76.5312 75.7828
L76.9325 76.0287
L77.3337 75.7424
L77.735 75.8666
L78.1362 75.7258
L78.5375 75.7573
L78.9387 75.5579
L79.34 76.0271
L79.7412 75.5397
L80.1425 75.5928
L80.5437 76.2445
L81.7475 75.7423
L82.1487 76.1526
L82.55 75.9515
L82.9512 75.3855
L83.3525 75.0905
L83.7537 75.6979
L84.9575 76.0592
L85.3587 75.3035
L86.1612 75.6525
L86.1612 75.6525" style="fill:none;stroke:#984ea3;stroke-linecap:square;"/>
   </g>
   <g id="line2d_18">
    <path clip-path="url(#pd205ddd705)" d="
M5.91105 63.9295
L86.1612 63.9295" style="fill:none;stroke:#377eb8;stroke-linecap:square;"/>
   </g>
   <g id="line2d_19">
    <path clip-path="url(#pd205ddd705)" d="
M5.91105 48.0364
L86.1612 48.0364" style="fill:none;stroke:#e41a1c;stroke-linecap:square;"/>
   </g>
   <g id="line2d_20">
    <path clip-path="url(#pd205ddd705)" d="
M5.91105 51.4915
L86.1612 51.4915" style="fill:none;stroke:#4daf4a;stroke-linecap:square;"/>
   </g>
   <g id="line2d_21">
    <path clip-path="url(#pd205ddd705)" d="
M5.91105 75.6766
L86.1612 75.6766" style="fill:none;stroke:#984ea3;stroke-linecap:square;"/>
   </g>
   <g id="matplotlib.axis_3"/>
   <g id="matplotlib.axis_4">
    <g id="ytick_6">
     <g id="line2d_22">
      <g>
       <use style="stroke:#000000;stroke-width:0.5;" x="86.1612455459" xlink:href="#mcb0005524f" y="78.44059001"/>
      </g>
     </g>
     <g id="text_7">
      <!-- $-0.6$ -->
      <g transform="translate(90.1612455459 79.8199085324)scale(0.06 -0.06)">
       <use transform="scale(0.996264009963)" xlink:href="#CMSY10-0"/>
       <use transform="translate(77.4087072161 0.0)scale(0.996264009963)" xlink:href="#Nimbus_Roman_No9_L_Regular-48"/>
       <use transform="translate(127.221907714 0.0)scale(0.996264009963)" xlink:href="#CMMI10-58"/>
       <use transform="translate(154.817414432 0.0)scale(0.996264009963)" xlink:href="#Nimbus_Roman_No9_L_Regular-54"/>
      </g>
     </g>
    </g>
    <g id="ytick_7">
     <g id="line2d_23">
      <g>
       <use style="stroke:#000000;stroke-width:0.5;" x="86.1612455459" xlink:href="#mcb0005524f" y="71.5305557648"/>
      </g>
     </g>
     <g id="text_8">
      <!-- $-0.4$ -->
      <g transform="translate(90.1612455459 72.9098742871)scale(0.06 -0.06)">
       <use transform="scale(0.996264009963)" xlink:href="#CMSY10-0"/>
       <use transform="translate(77.4087072161 0.0)scale(0.996264009963)" xlink:href="#Nimbus_Roman_No9_L_Regular-48"/>
       <use transform="translate(127.221907714 0.0)scale(0.996264009963)" xlink:href="#CMMI10-58"/>
       <use transform="translate(154.817414432 0.0)scale(0.996264009963)" xlink:href="#Nimbus_Roman_No9_L_Regular-52"/>
      </g>
     </g>
    </g>
    <g id="ytick_8">
     <g id="line2d_24">
      <g>
       <use style="stroke:#000000;stroke-width:0.5;" x="86.1612455459" xlink:href="#mcb0005524f" y="64.6205215196"/>
      </g>
     </g>
     <g id="text_9">
      <!-- $-0.2$ -->
      <g transform="translate(90.1612455459 65.9998400419)scale(0.06 -0.06)">
       <use transform="scale(0.996264009963)" xlink:href="#CMSY10-0"/>
       <use transform="translate(77.4087072161 0.0)scale(0.996264009963)" xlink:href="#Nimbus_Roman_No9_L_Regular-48"/>
       <use transform="translate(127.221907714 0.0)scale(0.996264009963)" xlink:href="#CMMI10-58"/>
       <use transform="translate(154.817414432 0.0)scale(0.996264009963)" xlink:href="#Nimbus_Roman_No9_L_Regular-50"/>
      </g>
     </g>
    </g>
    <g id="ytick_9">
     <g id="line2d_25">
      <g>
       <use style="stroke:#000000;stroke-width:0.5;" x="86.1612455459" xlink:href="#mcb0005524f" y="57.7104872744"/>
      </g>
     </g>
     <g id="text_10">
      <!-- $0.0$ -->
      <g transform="translate(90.1612455459 59.0898057967)scale(0.06 -0.06)">
       <use transform="scale(0.996264009963)" xlink:href="#Nimbus_Roman_No9_L_Regular-48"/>
       <use transform="translate(49.8132004981 0.0)scale(0.996264009963)" xlink:href="#CMMI10-58"/>
       <use transform="translate(77.4087072161 0.0)scale(0.996264009963)" xlink:href="#Nimbus_Roman_No9_L_Regular-48"/>
      </g>
     </g>
    </g>
    <g id="ytick_10">
     <g id="line2d_26">
      <g>
       <use style="stroke:#000000;stroke-width:0.5;" x="86.1612455459" xlink:href="#mcb0005524f" y="50.8004530292"/>
      </g>
     </g>
     <g id="text_11">
      <!-- $0.2$ -->
      <g transform="translate(90.1612455459 52.1797715515)scale(0.06 -0.06)">
       <use transform="scale(0.996264009963)" xlink:href="#Nimbus_Roman_No9_L_Regular-48"/>
       <use transform="translate(49.8132004981 0.0)scale(0.996264009963)" xlink:href="#CMMI10-58"/>
       <use transform="translate(77.4087072161 0.0)scale(0.996264009963)" xlink:href="#Nimbus_Roman_No9_L_Regular-50"/>
      </g>
     </g>
    </g>
    <g id="ytick_11">
     <g id="text_12">
      <!-- $0.4$ -->
      <g transform="translate(90.1612455459 45.2697373063)scale(0.06 -0.06)">
       <use transform="scale(0.996264009963)" xlink:href="#Nimbus_Roman_No9_L_Regular-48"/>
       <use transform="translate(49.8132004981 0.0)scale(0.996264009963)" xlink:href="#CMMI10-58"/>
       <use transform="translate(77.4087072161 0.0)scale(0.996264009963)" xlink:href="#Nimbus_Roman_No9_L_Regular-52"/>
      </g>
     </g>
    </g>
    <g id="text_13">
     <!-- B -->
     <defs>
      <path d="
M1.70312 66
L1.70312 63.7969
C10.0938 63.7969 11.2969 62.7031 11.2969 55.2656
L11.2969 10.7344
C11.2969 3.29688 10 2 1.70312 2
L1.70312 0
L35.0938 0
C42.9062 0 50 2.125 53.7031 5.5625
C57.2969 8.8125 59.2969 13.3594 59.2969 18.2031
C59.2969 22.6719 57.5 26.7188 54.4062 29.6406
C51.4062 32.375 48.7031 33.5938 42.2031 35.2031
C47.4062 36.4688 49.5 37.4531 51.9062 39.5312
C54.4062 41.6875 55.9062 45.2969 55.9062 49.3281
C55.9062 60.3125 47 66 29.7031 66
z

M21.5 33
C31.2031 33 35.7969 32.5 39.4062 30.9688
C45.0938 28.5469 47.7969 24.5 47.7969 18.1094
C47.7969 12.6406 45.7031 8.67188 41.7031 6.34375
C38.5 4.53125 34.4062 3.71875 27.7969 3.71875
C22.9062 3.71875 21.5 4.625 21.5 7.875
z

M21.5 37
L21.5 59.375
C21.5 61.4062 22.2031 62.2969 23.7031 62.2969
L28.0938 62.2969
C39.5938 62.2969 45.7031 57.6094 45.7031 48.9219
C45.7031 41.2969 40.4062 37 31 37
z
" id="Nimbus_Roman_No9_L_Regular-66"/>
     </defs>
     <g transform="translate(111.49179067 63.159005331)rotate(-90.0)scale(0.06 -0.06)">
      <use transform="scale(0.996264009963)" xlink:href="#Nimbus_Roman_No9_L_Regular-66"/>
     </g>
    </g>
   </g>
   <g id="patch_5">
    <path d="
M86.1612 78.4406
L86.1612 43.8904" style="fill:none;stroke:#000000;"/>
   </g>
  </g>
  <g id="axes_3">
   <g id="patch_6">
    <path d="
M5.91105 119.058
L86.1612 119.058
L86.1612 84.5074
L5.91105 84.5074
z
" style="fill:#ffffff;"/>
   </g>
   <g id="line2d_27">
    <path clip-path="url(#pacf47f6499)" d="
M6.3123 101.783
L6.71355 101.783
L7.1148 101.783
L7.51605 102.342
L7.9173 101.254
L8.31855 100.979
L8.7198 101.313
L9.12105 101.47
L9.52231 100.733
L9.92356 100.375
L10.3248 101.396
L10.7261 101.5
L11.5286 100.882
L11.9298 100.963
L12.3311 101.417
L13.1336 101.592
L13.5348 101.628
L13.9361 101.015
L14.7386 100.764
L15.1398 101.745
L15.5411 101.046
L15.9423 101.689
L16.3436 101.847
L17.1461 100.511
L17.5473 101.371
L17.9486 101.916
L18.7511 102.105
L19.1523 102.382
L19.5536 102.938
L19.9548 102.948
L20.3561 103.818
L20.7573 103.763
L21.1586 103.019
L21.5598 103.682
L21.9611 103.913
L22.3623 103.604
L23.1648 104.944
L23.5661 104.597
L23.9673 104.425
L24.3686 105.135
L24.7698 104.028
L25.1711 104.788
L25.5723 106.059
L25.9736 106.168
L26.3748 105.753
L26.7761 106.585
L27.1773 106.321
L27.5786 106.432
L27.9799 105.746
L28.3811 106.211
L28.7824 106.266
L29.1836 105.501
L29.5849 106.014
L29.9861 106.776
L30.3874 106.273
L31.5911 106.633
L31.9924 107.606
L32.3936 107.928
L32.7949 107.844
L33.1961 107.518
L33.5974 107.571
L34.3999 106.75
L34.8011 106.721
L35.2024 106.968
L35.6036 106.98
L36.0049 107.337
L36.4061 108.648
L36.8074 107.932
L37.2086 107.853
L37.6099 107.008
L38.0111 107.439
L38.4124 106.941
L38.8136 107.414
L40.0174 108.082
L40.4186 108.111
L40.8199 108.766
L41.2211 108.57
L41.6224 108.544
L42.0236 109.365
L42.4249 108.551
L42.8261 108.494
L43.2274 108.763
L43.6286 108.298
L44.0299 108.061
L44.4311 108.872
L45.2336 108.114
L45.6349 108.102
L46.0361 108.717
L46.4374 108.655
L46.8386 108.455
L47.2399 108.731
L47.6412 108.714
L48.0424 107.746
L48.4437 108.367
L49.2462 109.009
L49.6474 108.572
L50.4499 108.339
L50.8512 108.42
L51.2524 108.203
L51.6537 109.396
L52.4562 109.315
L52.8574 109.403
L53.2587 108.065
L53.6599 107.797
L54.0612 108.459
L54.4624 109.391
L54.8637 108.534
L55.2649 108.231
L55.6662 108.736
L56.0674 108.818
L56.8699 108.033
L57.2712 108.715
L58.0737 106.713
L58.4749 107.881
L58.8762 108.062
L59.2774 107.805
L59.6787 108.377
L60.0799 108.667
L60.4812 108.506
L60.8824 108.714
L61.2837 109.161
L61.6849 108.484
L62.0862 108.878
L62.4874 108.906
L62.8887 107.354
L63.2899 107.57
L64.0924 108.95
L64.4937 108.61
L64.8949 108.62
L65.2962 108.196
L65.6974 108.255
L66.0987 108.043
L66.4999 108.414
L66.9012 109.413
L67.3024 109.333
L67.7037 108.4
L68.105 108.904
L68.5062 109.083
L68.9075 108.55
L69.3087 108.969
L70.1112 109.155
L70.5125 108.801
L70.9137 109.343
L71.315 109.373
L71.7162 108.501
L72.1175 109.451
L72.5187 109.216
L72.92 108.84
L73.3212 108.968
L73.7225 108.835
L74.1237 108.423
L74.525 109.189
L74.9262 108.776
L75.7287 107.363
L76.13 108.259
L76.5312 108.117
L78.1362 108.149
L78.5375 107.952
L78.9387 108.118
L79.34 107.344
L79.7412 108.639
L80.1425 108.942
L80.5437 108.533
L80.945 108.614
L81.3462 109.143
L81.7475 108.938
L82.1487 109.801
L82.55 109.473
L82.9512 108.874
L83.3525 107.351
L84.155 108.631
L84.5562 108.503
L84.9575 108.645
L85.3587 108.259
L85.76 108.642
L86.1612 109.717
L86.1612 109.717" style="fill:none;stroke:#377eb8;stroke-linecap:square;"/>
   </g>
   <g id="line2d_28">
    <path clip-path="url(#pacf47f6499)" d="
M6.3123 101.783
L6.71355 101.783
L7.1148 101.783
L7.51605 101.52
L8.31855 101.91
L8.7198 102.444
L9.12105 103.169
L9.92356 102.267
L10.7261 101.921
L11.1273 102.2
L11.5286 102.95
L12.3311 102.598
L12.7323 102.332
L13.1336 102.607
L13.5348 103.088
L14.3373 103.199
L15.1398 103.121
L15.5411 101.866
L15.9423 102.02
L16.3436 103.612
L16.7448 104.259
L17.5473 103.109
L17.9486 103.335
L18.3498 104.68
L18.7511 105.373
L19.1523 105.054
L19.9548 104.751
L20.7573 106.082
L21.1586 106.32
L21.5598 106.788
L21.9611 106.511
L22.3623 107.124
L22.7636 107.21
L23.1648 106.837
L23.5661 106.865
L23.9673 108.829
L24.3686 108.308
L24.7698 109.349
L25.1711 109.832
L25.5723 109.496
L25.9736 108.838
L26.7761 109.716
L27.5786 109.958
L27.9799 110.2
L28.3811 109.884
L28.7824 110.558
L29.1836 110.897
L29.5849 109.948
L29.9861 109.688
L30.7886 111.623
L31.1899 112.348
L31.5911 112.127
L31.9924 110.874
L32.3936 110.728
L32.7949 112.028
L33.1961 111.983
L33.9986 112.228
L34.3999 111.551
L34.8011 111.534
L35.2024 112.61
L35.6036 112.482
L36.0049 112.597
L36.4061 112.343
L36.8074 112.254
L37.6099 113.029
L38.0111 112.775
L38.4124 112.716
L38.8136 112.247
L39.6161 113.292
L40.0174 112.924
L40.4186 112.829
L40.8199 113.444
L41.2211 113.571
L41.6224 112.782
L42.0236 112.882
L42.4249 113.677
L42.8261 113.974
L43.2274 114.07
L43.6286 113.773
L44.0299 112.653
L44.8324 114.169
L45.2336 112.873
L45.6349 113.008
L46.0361 114.002
L46.4374 113.467
L46.8386 113.642
L47.2399 113.279
L47.6412 113.522
L48.0424 114.125
L48.4437 114.135
L48.8449 113.672
L49.2462 112.907
L49.6474 112.581
L50.0487 113.724
L50.4499 113.904
L50.8512 113.878
L51.2524 113.643
L51.6537 113.782
L52.0549 113.192
L52.4562 113.121
L52.8574 114.106
L53.2587 113.335
L53.6599 113.069
L54.0612 113.424
L54.4624 113.946
L54.8637 113.593
L55.2649 114.05
L55.6662 114.012
L56.0674 113.77
L56.8699 113.856
L57.6724 113.302
L58.0737 114.019
L58.4749 114.223
L58.8762 113.966
L59.2774 113.526
L59.6787 113.99
L60.0799 114.144
L60.4812 114.018
L60.8824 113.526
L61.2837 113.718
L61.6849 113.319
L62.0862 113.457
L62.4874 113.789
L62.8887 114.336
L63.2899 113.299
L63.6912 113.614
L64.0924 113.094
L64.4937 113.743
L64.8949 113.55
L65.2962 113.137
L65.6974 113.897
L66.4999 113.844
L66.9012 113.574
L67.3024 113.787
L67.7037 113.694
L68.105 113.769
L68.5062 114.349
L68.9075 113.891
L69.3087 113.866
L69.71 113.276
L70.1112 113.129
L70.9137 115.475
L71.315 114.847
L71.7162 113.591
L73.3212 114.963
L73.7225 114.571
L74.525 114.621
L74.9262 114.082
L75.3275 113.831
L75.7287 114.013
L76.13 113.727
L76.9325 113.709
L77.735 113.432
L78.1362 113.593
L78.5375 113.364
L78.9387 113.971
L79.34 113.789
L79.7412 113.965
L80.5437 113.938
L80.945 113.695
L81.3462 113.867
L81.7475 113.85
L82.1487 113.97
L82.55 114.783
L82.9512 113.902
L83.7537 113.639
L84.155 113.907
L84.5562 114.309
L84.9575 114.06
L85.3587 113.539
L85.76 114.079
L86.1612 113.766
L86.1612 113.766" style="fill:none;stroke:#e41a1c;stroke-linecap:square;"/>
   </g>
   <g id="line2d_29">
    <path clip-path="url(#pacf47f6499)" d="
M6.3123 101.783
L6.71355 101.783
L7.1148 101.783
L7.9173 101.534
L8.31855 102.115
L8.7198 102.921
L9.12105 102.671
L9.52231 102.703
L9.92356 103.435
L10.3248 103.355
L10.7261 102.07
L11.1273 101.835
L11.5286 102.902
L11.9298 102.336
L12.3311 102.569
L13.5348 102.152
L13.9361 102.316
L14.3373 103.063
L14.7386 103.007
L15.1398 102.438
L15.9423 103.465
L16.3436 102.629
L16.7448 102.488
L17.1461 103.001
L17.5473 102.606
L17.9486 101.374
L18.7511 102.319
L19.1523 102.205
L19.5536 101.011
L19.9548 101.816
L20.3561 101.618
L20.7573 101.552
L21.1586 100.811
L21.5598 100.978
L21.9611 100.945
L22.3623 100.432
L23.1648 100.301
L23.5661 100.587
L24.3686 100.536
L24.7698 101.356
L25.5723 100.107
L25.9736 100.104
L26.3748 100.451
L27.1773 99.8856
L27.5786 99.9461
L27.9799 99.7923
L28.3811 99.7891
L29.1836 100.861
L29.5849 98.9361
L30.3874 100.614
L30.7886 100.565
L31.1899 99.2329
L31.5911 99.5904
L31.9924 100.182
L32.3936 99.1075
L32.7949 100.09
L33.1961 99.4581
L33.5974 99.1239
L34.3999 101.535
L34.8011 101.419
L35.2024 100.119
L36.4061 99.1583
L36.8074 99.814
L37.2086 99.9143
L37.6099 99.464
L38.0111 98.8229
L39.2149 99.6093
L39.6161 99.6896
L40.0174 100.011
L40.4186 98.9468
L40.8199 99.0657
L41.2211 98.6435
L41.6224 98.8925
L42.0236 98.5983
L42.4249 98.6386
L43.2274 99.7947
L43.6286 99.8598
L44.0299 99.4787
L44.8324 99.8053
L45.2336 99.6148
L45.6349 98.2774
L46.4374 99.3442
L46.8386 98.6154
L47.2399 98.6736
L47.6412 99.8923
L48.0424 99.9888
L48.4437 99.2463
L48.8449 98.819
L49.2462 99.2976
L49.6474 99.084
L50.0487 99.4948
L50.4499 99.5777
L50.8512 98.9466
L51.2524 98.9107
L51.6537 98.718
L52.0549 99.2525
L52.4562 98.4654
L52.8574 99.0222
L53.2587 98.8744
L53.6599 99.8802
L54.0612 99.6555
L54.4624 99.0457
L54.8637 99.2712
L55.2649 100.114
L55.6662 100.605
L56.0674 99.5292
L56.8699 99.2266
L57.2712 99.6255
L57.6724 99.2135
L58.4749 100.2
L58.8762 100.286
L59.6787 99.9419
L60.4812 99.2263
L60.8824 98.2354
L61.2837 98.35
L61.6849 98.6889
L62.0862 100.187
L62.4874 99.3354
L63.6912 99.419
L64.0924 99.3087
L64.4937 99.8849
L64.8949 99.0285
L65.2962 99.4038
L65.6974 100.3
L66.0987 99.7917
L66.4999 98.6457
L66.9012 98.3462
L67.3024 99.0151
L68.105 99.3034
L68.5062 98.6667
L68.9075 98.8346
L69.3087 98.1327
L70.1112 99.4297
L70.5125 98.8806
L70.9137 98.6456
L71.315 99.0402
L71.7162 99.8115
L72.1175 99.3133
L72.5187 98.3327
L72.92 98.6155
L73.3212 99.2228
L73.7225 99.3169
L74.1237 98.9402
L74.525 99.2908
L74.9262 98.2914
L75.3275 98.6976
L75.7287 98.6643
L76.5312 99.4402
L76.9325 99.1258
L77.3337 99.4301
L77.735 100.4
L78.1362 100.781
L78.5375 100.097
L78.9387 98.9691
L79.34 99.894
L80.1425 99.8803
L80.945 99.7429
L81.3462 98.8517
L81.7475 99.266
L82.1487 98.4975
L82.55 99.2003
L82.9512 99.6234
L83.3525 99.426
L83.7537 98.6195
L84.155 98.4775
L84.5562 99.3316
L84.9575 100.482
L85.3587 98.6519
L85.76 98.9517
L86.1612 98.8699
L86.1612 98.8699" style="fill:none;stroke:#4daf4a;stroke-linecap:square;"/>
   </g>
   <g id="line2d_30">
    <path clip-path="url(#pacf47f6499)" d="
M6.3123 101.783
L6.71355 101.783
L7.1148 101.783
L7.51605 102.013
L7.9173 102.036
L8.31855 101.934
L8.7198 101.352
L9.12105 101.832
L9.92356 101.833
L10.3248 101.942
L10.7261 101.895
L11.1273 101.706
L11.5286 100.635
L11.9298 100.99
L12.3311 102.155
L12.7323 102.05
L13.1336 102.141
L13.9361 101.08
L14.7386 100.981
L15.1398 102.16
L15.5411 102.139
L16.3436 101.089
L16.7448 100.478
L17.1461 100.345
L17.5473 100.45
L17.9486 99.5613
L18.7511 98.9701
L19.1523 99.5615
L19.5536 98.4918
L19.9548 99.2946
L20.7573 97.9043
L21.1586 96.4271
L21.5598 96.6664
L22.3623 96.2344
L22.7636 95.9169
L23.1648 96.0579
L23.9673 94.7287
L24.3686 94.4429
L25.1711 93.3132
L25.5723 93.4876
L25.9736 93.4499
L26.3748 94.0573
L26.7761 92.9534
L27.1773 92.8787
L27.5786 94.378
L28.3811 92.5032
L28.7824 92.5211
L29.1836 92.2945
L29.5849 91.7273
L29.9861 92.0495
L30.3874 91.2202
L30.7886 90.1279
L31.1899 90.8722
L31.5911 91.917
L31.9924 92.0471
L32.3936 91.2467
L33.1961 92.1292
L33.5974 90.9882
L33.9986 90.6033
L34.3999 90.5215
L34.8011 90.9977
L35.2024 91.054
L35.6036 90.9553
L36.4061 89.6052
L36.8074 89.603
L37.2086 90.1175
L37.6099 90.1208
L38.0111 90.008
L38.4124 89.2999
L38.8136 89.4874
L39.2149 89.9217
L39.6161 89.7032
L40.0174 90.17
L40.4186 89.6491
L40.8199 90.0805
L41.2211 89.9866
L41.6224 89.3224
L42.0236 89.5944
L42.4249 89.3164
L42.8261 89.5915
L43.2274 89.0595
L43.6286 89.5822
L44.0299 89.3637
L44.4311 89.828
L44.8324 89.8878
L45.2336 89.2869
L45.6349 89.7674
L46.0361 90.8392
L46.4374 89.3378
L46.8386 88.9157
L47.2399 88.7745
L47.6412 89.4644
L48.0424 89.34
L48.4437 88.5851
L48.8449 88.6375
L49.2462 89.5184
L49.6474 89.1803
L50.0487 89.1224
L50.4499 88.8638
L50.8512 89.6425
L51.2524 89.4795
L52.0549 87.8873
L52.4562 89.2698
L52.8574 89.6864
L53.2587 89.756
L53.6599 88.4803
L54.0612 88.287
L54.4624 88.9984
L54.8637 88.3541
L55.6662 89.04
L56.0674 88.6579
L56.4687 88.6537
L56.8699 88.538
L57.2712 89.0202
L57.6724 89.143
L58.0737 88.9564
L58.4749 89.0876
L58.8762 88.9879
L59.2774 88.4599
L59.6787 87.6617
L60.4812 89.1702
L60.8824 88.9938
L61.2837 88.6556
L61.6849 88.5899
L62.0862 89.5236
L62.8887 88.6617
L63.2899 88.9009
L64.0924 89.6121
L64.4937 88.8209
L64.8949 88.7347
L65.2962 89.8514
L65.6974 89.6001
L66.0987 88.7376
L66.4999 88.6159
L66.9012 89.4089
L67.3024 89.2865
L67.7037 88.317
L68.105 88.2933
L68.5062 88.9313
L68.9075 89.2864
L69.71 88.6797
L70.1112 88.0689
L70.5125 88.0132
L70.9137 89.1559
L71.315 89.6765
L71.7162 89.5334
L72.1175 88.8269
L72.5187 88.8121
L72.92 89.0638
L73.3212 88.8639
L73.7225 89.0843
L74.1237 89.8166
L74.525 89.0442
L74.9262 89.0311
L75.3275 88.2275
L75.7287 87.9571
L76.5312 90.3576
L77.3337 88.5965
L77.735 88.2182
L78.1362 89.291
L78.5375 88.9337
L78.9387 89.061
L79.34 88.3369
L79.7412 88.8758
L80.1425 88.5363
L80.5437 88.6827
L80.945 89.1814
L81.3462 89.3865
L81.7475 89.0482
L82.1487 88.2719
L82.55 88.3422
L82.9512 88.2139
L83.3525 88.4302
L83.7537 88.5098
L84.5562 88.2526
L84.9575 88.9395
L85.76 88.8528
L86.1612 89.2677
L86.1612 89.2677" style="fill:none;stroke:#984ea3;stroke-linecap:square;"/>
   </g>
   <g id="line2d_31">
    <path clip-path="url(#pacf47f6499)" d="
M5.91105 109.72
L86.1612 109.72" style="fill:none;stroke:#377eb8;stroke-linecap:square;"/>
   </g>
   <g id="line2d_32">
    <path clip-path="url(#pacf47f6499)" d="
M5.91105 110.437
L86.1612 110.437" style="fill:none;stroke:#e41a1c;stroke-linecap:square;"/>
   </g>
   <g id="line2d_33">
    <path clip-path="url(#pacf47f6499)" d="
M5.91105 99.649
L86.1612 99.649" style="fill:none;stroke:#4daf4a;stroke-linecap:square;"/>
   </g>
   <g id="line2d_34">
    <path clip-path="url(#pacf47f6499)" d="
M5.91105 92.1948
L86.1612 92.1948" style="fill:none;stroke:#984ea3;stroke-linecap:square;"/>
   </g>
   <g id="matplotlib.axis_5">
    <g id="xtick_1">
     <g id="line2d_35">
      <defs>
       <path d="
M0 0
L0 -4" id="m93b0483c22" style="stroke:#000000;stroke-width:0.5;"/>
      </defs>
      <g>
       <use style="stroke:#000000;stroke-width:0.5;" x="5.9110467096" xlink:href="#m93b0483c22" y="119.057592941"/>
      </g>
     </g>
     <g id="text_14">
      <!-- $0.00$ -->
      <g transform="translate(0.6 127.110327316)scale(0.06 -0.06)">
       <use transform="scale(0.996264009963)" xlink:href="#Nimbus_Roman_No9_L_Regular-48"/>
       <use transform="translate(49.8132004981 0.0)scale(0.996264009963)" xlink:href="#CMMI10-58"/>
       <use transform="translate(77.4087072161 0.0)scale(0.996264009963)" xlink:href="#Nimbus_Roman_No9_L_Regular-48"/>
       <use transform="translate(127.221907714 0.0)scale(0.996264009963)" xlink:href="#Nimbus_Roman_No9_L_Regular-48"/>
      </g>
     </g>
    </g>
    <g id="xtick_2">
     <g id="line2d_36">
      <g>
       <use style="stroke:#000000;stroke-width:0.5;" x="25.9735964187" xlink:href="#m93b0483c22" y="119.057592941"/>
      </g>
     </g>
     <g id="text_15">
      <!-- $0.05$ -->
      <defs>
       <path d="
M18.0938 58.0938
L37.7031 58.0938
C39.2969 58.0938 39.7031 58.2969 40 59
L43.7969 67.8906
L42.9062 68.5938
C41.4062 66.5 40.4062 66 38.2969 66
L17.4062 66
L6.5 42.7656
C6.40625 42.5781 6.40625 42.4844 6.40625 42.2812
C6.40625 41.7969 6.79688 41.5 7.59375 41.5
C10.7969 41.5 14.7969 40.8125 18.9062 39.5625
C30.4062 35.9531 35.7031 29.9375 35.7031 20.3281
C35.7031 10.9844 29.5938 3.70312 21.7969 3.70312
C19.7969 3.70312 18.0938 4.39062 15.0938 6.53125
C11.9062 8.76562 9.59375 9.73438 7.5 9.73438
C4.59375 9.73438 3.20312 8.54688 3.20312 6.09375
C3.20312 2.35938 7.90625 0 15.4062 0
C23.7969 0 31 2.625 36 7.60938
C40.5938 11.9844 42.7031 17.5156 42.7031 24.9219
C42.7031 31.9375 40.7969 36.4062 35.7969 41.2812
C31.4062 45.5625 25.7031 47.8125 13.9062 49.8438
z
" id="Nimbus_Roman_No9_L_Regular-53"/>
      </defs>
      <g transform="translate(20.6625497091 127.110327316)scale(0.06 -0.06)">
       <use transform="scale(0.996264009963)" xlink:href="#Nimbus_Roman_No9_L_Regular-48"/>
       <use transform="translate(49.8132004981 0.0)scale(0.996264009963)" xlink:href="#CMMI10-58"/>
       <use transform="translate(77.4087072161 0.0)scale(0.996264009963)" xlink:href="#Nimbus_Roman_No9_L_Regular-48"/>
       <use transform="translate(127.221907714 0.0)scale(0.996264009963)" xlink:href="#Nimbus_Roman_No9_L_Regular-53"/>
      </g>
     </g>
    </g>
    <g id="xtick_3">
     <g id="line2d_37">
      <g>
       <use style="stroke:#000000;stroke-width:0.5;" x="46.0361461278" xlink:href="#m93b0483c22" y="119.057592941"/>
      </g>
     </g>
     <g id="text_16">
      <!-- $0.10$ -->
      <defs>
       <path d="
M29.0938 67.7969
L11.0938 58.7031
L11.0938 57.2969
C12.2969 57.7969 13.4062 58.2031 13.7969 58.4062
C15.5938 59.1094 17.2969 59.5 18.2969 59.5
C20.4062 59.5 21.2969 58 21.2969 54.7656
L21.2969 9.25
C21.2969 5.92188 20.5 3.625 18.9062 2.70312
C17.4062 1.8125 16 1.5 11.7969 1.5
L11.7969 0
L39.4062 0
L39.4062 1.5
C31.5 1.5 29.9062 2.5 29.9062 7.34375
L29.9062 67.6094
z
" id="Nimbus_Roman_No9_L_Regular-49"/>
      </defs>
      <g transform="translate(40.7250994182 127.110327316)scale(0.06 -0.06)">
       <use transform="scale(0.996264009963)" xlink:href="#Nimbus_Roman_No9_L_Regular-48"/>
       <use transform="translate(49.8132004981 0.0)scale(0.996264009963)" xlink:href="#CMMI10-58"/>
       <use transform="translate(77.4087072161 0.0)scale(0.996264009963)" xlink:href="#Nimbus_Roman_No9_L_Regular-49"/>
       <use transform="translate(127.221907714 0.0)scale(0.996264009963)" xlink:href="#Nimbus_Roman_No9_L_Regular-48"/>
      </g>
     </g>
    </g>
    <g id="xtick_4">
     <g id="line2d_38">
      <g>
       <use style="stroke:#000000;stroke-width:0.5;" x="66.0986958368" xlink:href="#m93b0483c22" y="119.057592941"/>
      </g>
     </g>
     <g id="text_17">
      <!-- $0.15$ -->
      <g transform="translate(60.7876491272 127.110327316)scale(0.06 -0.06)">
       <use transform="scale(0.996264009963)" xlink:href="#Nimbus_Roman_No9_L_Regular-48"/>
       <use transform="translate(49.8132004981 0.0)scale(0.996264009963)" xlink:href="#CMMI10-58"/>
       <use transform="translate(77.4087072161 0.0)scale(0.996264009963)" xlink:href="#Nimbus_Roman_No9_L_Regular-49"/>
       <use transform="translate(127.221907714 0.0)scale(0.996264009963)" xlink:href="#Nimbus_Roman_No9_L_Regular-53"/>
      </g>
     </g>
    </g>
    <g id="xtick_5">
     <g id="line2d_39">
      <g>
       <use style="stroke:#000000;stroke-width:0.5;" x="86.1612455459" xlink:href="#m93b0483c22" y="119.057592941"/>
      </g>
     </g>
     <g id="text_18">
      <!-- $0.20$ -->
      <g transform="translate(80.8501988363 127.110327316)scale(0.06 -0.06)">
       <use transform="scale(0.996264009963)" xlink:href="#Nimbus_Roman_No9_L_Regular-48"/>
       <use transform="translate(49.8132004981 0.0)scale(0.996264009963)" xlink:href="#CMMI10-58"/>
       <use transform="translate(77.4087072161 0.0)scale(0.996264009963)" xlink:href="#Nimbus_Roman_No9_L_Regular-50"/>
       <use transform="translate(127.221907714 0.0)scale(0.996264009963)" xlink:href="#Nimbus_Roman_No9_L_Regular-48"/>
      </g>
     </g>
    </g>
    <g id="text_19">
     <!-- Time (s) -->
     <defs>
      <path d="
M1.90625 39.7969
C3.20312 40.0938 4 40.2031 5.09375 40.2031
C7.70312 40.2031 8.59375 38.5938 8.59375 33.7812
L8.59375 8.42188
C8.59375 3 7.20312 1.5 1.59375 1.5
L1.59375 0
L23.7969 0
L23.7969 1.5
C18.5 1.5 17 2.59375 17 6.53125
L17 34.875
C17 35.0625 17.7969 36.0625 18.5 36.7812
C21 39.0781 25.2969 40.7969 28.7969 40.7969
C33.2031 40.7969 35.4062 37.2656 35.4062 30.1875
L35.4062 8.25
C35.4062 2.60938 34.2969 1.5 28.5938 1.5
L28.5938 0
L51 0
L51 1.5
C45.2969 1.5 43.7969 3.20312 43.7969 9.42188
L43.7969 34.7031
C46.7969 39 50.0938 40.7969 54.7031 40.7969
C60.4062 40.7969 62.2031 38.0938 62.2031 29.7969
L62.2031 8.70312
C62.2031 3 61.4062 2.20312 55.5938 1.5
L55.5938 0
L77.5 0
L77.5 1.5
L74.9062 1.79688
C71.9062 1.79688 70.5938 3.59375 70.5938 7.5
L70.5938 28.1562
C70.5938 39.9844 66.7031 46 59 46
C53.2031 46 48.0938 43.4062 42.7031 37.6094
C40.9062 43.2969 37.5 46 32.0938 46
C27.7031 46 24.9062 44.5938 16.5938 38.2969
L16.5938 45.7969
L15.9062 46
C10.7969 44.0938 7.40625 43 1.90625 41.5
z
" id="Nimbus_Roman_No9_L_Regular-109"/>
      <path d="
M31.5 31.4062
L31.0938 45
L30 45
L29.7969 44.8125
C28.9062 44.1719 28.7969 44.0781 28.4062 44.0781
C27.7969 44.0781 26.7969 44.2812 25.7031 44.7812
C23.5 45.5938 21.2969 46 18.7031 46
C10.7969 46 5.09375 41 5.09375 33.9375
C5.09375 28.4531 8.29688 24.5312 16.7969 19.8438
L22.5938 16.6094
C26.0938 14.6562 27.7969 12.2969 27.7969 9.26562
C27.7969 4.9375 24.5938 2.20312 19.5 2.20312
C16.0938 2.20312 13 3.4375 11.0938 5.5625
C9 7.95312 8.09375 10.1406 6.79688 15.6094
L5.20312 15.6094
L5.20312 0
L6.5 0
C7.20312 1.35938 7.59375 1.64062 8.79688 1.64062
C9.70312 1.64062 11.0938 1.45312 13.4062 0.90625
C16.2031 0.375 18.9062 0 20.7031 0
C28.4062 0 34.7969 5.67188 34.7969 12.5312
C34.7969 17.4375 32.4062 20.6719 26.4062 24.2031
L15.5938 30.4688
C12.7969 32.0469 11.2969 34.4844 11.2969 37.1406
C11.2969 41.0625 14.4062 43.7969 19 43.7969
C24.7031 43.7969 27.7031 40.3594 30 31.4062
z
" id="Nimbus_Roman_No9_L_Regular-115"/>
      <path d="
M40.7969 17.4531
C36 9.8125 31.7031 6.90625 25.2969 6.90625
C19.5938 6.90625 15.2969 9.8125 12.4062 15.5312
C10.5938 19.3438 9.90625 22.6562 9.70312 28.7969
L40.5 28.7969
C39.7031 34.9062 38.7031 37.625 36.2031 40.6406
C33.2031 44.0312 28.5938 46 23.4062 46
C18.4062 46 13.7031 44.2344 9.90625 40.9062
C5.20312 36.9062 2.5 29.9375 2.5 21.9219
C2.5 8.40625 9.70312 0 21.2031 0
C30.7031 0 38.2031 5.92188 42.4062 16.75
z

M9.90625 32
C11 39.0625 14.4062 42.4062 20.5 42.4062
C26.5938 42.4062 29 39.8594 30.2969 32
z
" id="Nimbus_Roman_No9_L_Regular-101"/>
      <path d="
M17.5 45.7656
L2 40.2969
L2 38.8125
L2.79688 38.9062
C4 39.0938 5.29688 39.2031 6.20312 39.2031
C8.59375 39.2031 9.5 37.5938 9.5 33.2031
L9.5 10
C9.5 2.79688 8.5 1.70312 1.59375 1.70312
L1.59375 0
L25.2969 0
L25.2969 1.5
C18.7031 2 17.9062 2.98438 17.9062 10.1562
L17.9062 45.4688
z

M12.7969 68
C10.0938 68 7.79688 65.7031 7.79688 62.9062
C7.79688 60.1094 10 57.7969 12.7969 57.7969
C15.7031 57.7969 18 60 18 62.9062
C18 65.7031 15.7031 68 12.7969 68" id="Nimbus_Roman_No9_L_Regular-105"/>
      <path d="
M3.79688 -17.7031
C11.2031 -12.9062 14.2031 -10.2969 17.9062 -5.70312
C25 3 28.5 13 28.5 24.7031
C28.5 37.5 24.7969 47.2031 16 57.4062
C11.9062 62.2031 9.29688 64.4062 4.09375 67.5938
L2.90625 66
C10.9062 59.7031 13.5938 56.2031 16.4062 48.7031
C18.7969 42 19.9062 34.4062 19.9062 24.4062
C19.9062 14 18.5938 5.70312 15.9062 -0.40625
C13.0938 -6.70312 10.0938 -10.2969 2.90625 -16.0938
z
" id="Nimbus_Roman_No9_L_Regular-41"/>
      <path d="
M25.4062 61.7969
L25.4062 11.7031
C25.4062 3.1875 24.2969 2.09375 16 2.09375
L16 0
L45.2031 0
L45.2031 2.09375
C37 2.09375 35.5938 3.39062 35.5938 10.7031
L35.5938 61.7969
L41 61.7969
C52.4062 61.7969 54.5938 60 56.9062 49.0469
L59.2969 49.0469
L58.7031 66
L2.29688 66
L1.70312 49.0469
L4.09375 49.0469
C6.5 59.8906 8.79688 61.7969 20 61.7969
z
" id="Nimbus_Roman_No9_L_Regular-84"/>
      <path d="
M29.5 67.5938
C22.0938 62.7969 19.0938 60.2031 15.4062 55.5938
C8.29688 46.9062 4.79688 36.9062 4.79688 25.2031
C4.79688 12.5 8.5 2.70312 17.2969 -7.5
C21.4062 -12.2969 24 -14.5 29.2031 -17.7031
L30.4062 -16.0938
C22.4062 -9.79688 19.5938 -6.29688 16.9062 1.20312
C14.5 7.90625 13.4062 15.5 13.4062 25.5
C13.4062 36 14.7031 44.2031 17.4062 50.4062
C20.2031 56.5938 23.2031 60.2031 30.4062 66
z
" id="Nimbus_Roman_No9_L_Regular-40"/>
     </defs>
     <g transform="translate(35.9311869415 137.457159022)scale(0.06 -0.06)">
      <use transform="scale(0.996264009963)" xlink:href="#Nimbus_Roman_No9_L_Regular-84"/>
      <use transform="translate(57.3849042653 0.0)scale(0.996264009963)" xlink:href="#Nimbus_Roman_No9_L_Regular-105"/>
      <use transform="translate(85.0800738685 0.0)scale(0.996264009963)" xlink:href="#Nimbus_Roman_No9_L_Regular-109"/>
      <use transform="translate(162.58844397 0.0)scale(0.996264009963)" xlink:href="#Nimbus_Roman_No9_L_Regular-101"/>
      <use transform="translate(231.728612916 0.0)scale(0.996264009963)" xlink:href="#Nimbus_Roman_No9_L_Regular-40"/>
      <use transform="translate(264.903842646 0.0)scale(0.996264009963)" xlink:href="#Nimbus_Roman_No9_L_Regular-115"/>
      <use transform="translate(303.65754884 0.0)scale(0.996264009963)" xlink:href="#Nimbus_Roman_No9_L_Regular-41"/>
     </g>
    </g>
   </g>
   <g id="matplotlib.axis_6">
    <g id="ytick_12">
     <g id="line2d_40">
      <g>
       <use style="stroke:#000000;stroke-width:0.5;" x="86.1612455459" xlink:href="#mcb0005524f" y="119.057592941"/>
      </g>
     </g>
     <g id="text_20">
      <!-- $-0.4$ -->
      <g transform="translate(90.1612455459 120.436911464)scale(0.06 -0.06)">
       <use transform="scale(0.996264009963)" xlink:href="#CMSY10-0"/>
       <use transform="translate(77.4087072161 0.0)scale(0.996264009963)" xlink:href="#Nimbus_Roman_No9_L_Regular-48"/>
       <use transform="translate(127.221907714 0.0)scale(0.996264009963)" xlink:href="#CMMI10-58"/>
       <use transform="translate(154.817414432 0.0)scale(0.996264009963)" xlink:href="#Nimbus_Roman_No9_L_Regular-52"/>
      </g>
     </g>
    </g>
    <g id="ytick_13">
     <g id="line2d_41">
      <g>
       <use style="stroke:#000000;stroke-width:0.5;" x="86.1612455459" xlink:href="#mcb0005524f" y="114.738821538"/>
      </g>
     </g>
     <g id="text_21">
      <!-- $-0.3$ -->
      <defs>
       <path d="
M15.2969 33.375
C21.2031 33.375 23.5 33.1719 25.9062 32.3125
C32.0938 30.1875 36 24.6719 36 18
C36 9.89062 30.2969 3.60938 22.9062 3.60938
C20.2031 3.60938 18.2031 4.28125 14.5 6.59375
C11.5 8.34375 9.79688 9.01562 8.09375 9.01562
C5.79688 9.01562 4.29688 7.65625 4.29688 5.59375
C4.29688 2.15625 8.59375 0 15.5938 0
C23.2969 0 31.2031 2.53125 35.9062 6.5
C40.5938 10.4844 43.2031 16.1094 43.2031 22.5938
C43.2031 27.5469 41.5938 32.0938 38.7031 35.0938
C36.7031 37.2344 34.7969 38.4062 30.4062 40.2344
C37.2969 44.8125 39.7969 48.4219 39.7969 53.6719
C39.7969 61.5625 33.4062 67 24.2031 67
C19.2031 67 14.7969 65.3438 11.2031 62.2031
C8.20312 59.5625 6.70312 57.0156 4.5 51.1406
L6 50.7656
C10.0938 57.8125 14.5938 61 20.9062 61
C27.4062 61 31.9062 56.75 31.9062 50.6719
C31.9062 47.1875 30.4062 43.7188 27.9062 41.2969
C24.9062 38.4062 22.0938 36.9531 15.2969 34.625
z
" id="Nimbus_Roman_No9_L_Regular-51"/>
      </defs>
      <g transform="translate(90.1612455459 116.11814006)scale(0.06 -0.06)">
       <use transform="scale(0.996264009963)" xlink:href="#CMSY10-0"/>
       <use transform="translate(77.4087072161 0.0)scale(0.996264009963)" xlink:href="#Nimbus_Roman_No9_L_Regular-48"/>
       <use transform="translate(127.221907714 0.0)scale(0.996264009963)" xlink:href="#CMMI10-58"/>
       <use transform="translate(154.817414432 0.0)scale(0.996264009963)" xlink:href="#Nimbus_Roman_No9_L_Regular-51"/>
      </g>
     </g>
    </g>
    <g id="ytick_14">
     <g id="line2d_42">
      <g>
       <use style="stroke:#000000;stroke-width:0.5;" x="86.1612455459" xlink:href="#mcb0005524f" y="110.420050135"/>
      </g>
     </g>
     <g id="text_22">
      <!-- $-0.2$ -->
      <g transform="translate(90.1612455459 111.799368657)scale(0.06 -0.06)">
       <use transform="scale(0.996264009963)" xlink:href="#CMSY10-0"/>
       <use transform="translate(77.4087072161 0.0)scale(0.996264009963)" xlink:href="#Nimbus_Roman_No9_L_Regular-48"/>
       <use transform="translate(127.221907714 0.0)scale(0.996264009963)" xlink:href="#CMMI10-58"/>
       <use transform="translate(154.817414432 0.0)scale(0.996264009963)" xlink:href="#Nimbus_Roman_No9_L_Regular-50"/>
      </g>
     </g>
    </g>
    <g id="ytick_15">
     <g id="line2d_43">
      <g>
       <use style="stroke:#000000;stroke-width:0.5;" x="86.1612455459" xlink:href="#mcb0005524f" y="106.101278732"/>
      </g>
     </g>
     <g id="text_23">
      <!-- $-0.1$ -->
      <g transform="translate(90.1612455459 107.480597254)scale(0.06 -0.06)">
       <use transform="scale(0.996264009963)" xlink:href="#CMSY10-0"/>
       <use transform="translate(77.4087072161 0.0)scale(0.996264009963)" xlink:href="#Nimbus_Roman_No9_L_Regular-48"/>
       <use transform="translate(127.221907714 0.0)scale(0.996264009963)" xlink:href="#CMMI10-58"/>
       <use transform="translate(154.817414432 0.0)scale(0.996264009963)" xlink:href="#Nimbus_Roman_No9_L_Regular-49"/>
      </g>
     </g>
    </g>
    <g id="ytick_16">
     <g id="line2d_44">
      <g>
       <use style="stroke:#000000;stroke-width:0.5;" x="86.1612455459" xlink:href="#mcb0005524f" y="101.782507328"/>
      </g>
     </g>
     <g id="text_24">
      <!-- $0.0$ -->
      <g transform="translate(90.1612455459 103.161825851)scale(0.06 -0.06)">
       <use transform="scale(0.996264009963)" xlink:href="#Nimbus_Roman_No9_L_Regular-48"/>
       <use transform="translate(49.8132004981 0.0)scale(0.996264009963)" xlink:href="#CMMI10-58"/>
       <use transform="translate(77.4087072161 0.0)scale(0.996264009963)" xlink:href="#Nimbus_Roman_No9_L_Regular-48"/>
      </g>
     </g>
    </g>
    <g id="ytick_17">
     <g id="line2d_45">
      <g>
       <use style="stroke:#000000;stroke-width:0.5;" x="86.1612455459" xlink:href="#mcb0005524f" y="97.4637359251"/>
      </g>
     </g>
     <g id="text_25">
      <!-- $0.1$ -->
      <g transform="translate(90.1612455459 98.8430544474)scale(0.06 -0.06)">
       <use transform="scale(0.996264009963)" xlink:href="#Nimbus_Roman_No9_L_Regular-48"/>
       <use transform="translate(49.8132004981 0.0)scale(0.996264009963)" xlink:href="#CMMI10-58"/>
       <use transform="translate(77.4087072161 0.0)scale(0.996264009963)" xlink:href="#Nimbus_Roman_No9_L_Regular-49"/>
      </g>
     </g>
    </g>
    <g id="ytick_18">
     <g id="line2d_46">
      <g>
       <use style="stroke:#000000;stroke-width:0.5;" x="86.1612455459" xlink:href="#mcb0005524f" y="93.1449645218"/>
      </g>
     </g>
     <g id="text_26">
      <!-- $0.2$ -->
      <g transform="translate(90.1612455459 94.5242830442)scale(0.06 -0.06)">
       <use transform="scale(0.996264009963)" xlink:href="#Nimbus_Roman_No9_L_Regular-48"/>
       <use transform="translate(49.8132004981 0.0)scale(0.996264009963)" xlink:href="#CMMI10-58"/>
       <use transform="translate(77.4087072161 0.0)scale(0.996264009963)" xlink:href="#Nimbus_Roman_No9_L_Regular-50"/>
      </g>
     </g>
    </g>
    <g id="ytick_19">
     <g id="line2d_47">
      <g>
       <use style="stroke:#000000;stroke-width:0.5;" x="86.1612455459" xlink:href="#mcb0005524f" y="88.8261931186"/>
      </g>
     </g>
     <g id="text_27">
      <!-- $0.3$ -->
      <g transform="translate(90.1612455459 90.2055116409)scale(0.06 -0.06)">
       <use transform="scale(0.996264009963)" xlink:href="#Nimbus_Roman_No9_L_Regular-48"/>
       <use transform="translate(49.8132004981 0.0)scale(0.996264009963)" xlink:href="#CMMI10-58"/>
       <use transform="translate(77.4087072161 0.0)scale(0.996264009963)" xlink:href="#Nimbus_Roman_No9_L_Regular-51"/>
      </g>
     </g>
    </g>
    <g id="ytick_20">
     <g id="line2d_48">
      <g>
       <use style="stroke:#000000;stroke-width:0.5;" x="86.1612455459" xlink:href="#mcb0005524f" y="84.5074217153"/>
      </g>
     </g>
     <g id="text_28">
      <!-- $0.4$ -->
      <g transform="translate(90.1612455459 85.8867402377)scale(0.06 -0.06)">
       <use transform="scale(0.996264009963)" xlink:href="#Nimbus_Roman_No9_L_Regular-48"/>
       <use transform="translate(49.8132004981 0.0)scale(0.996264009963)" xlink:href="#CMMI10-58"/>
       <use transform="translate(77.4087072161 0.0)scale(0.996264009963)" xlink:href="#Nimbus_Roman_No9_L_Regular-52"/>
      </g>
     </g>
    </g>
    <g id="text_29">
     <!-- Result -->
     <defs>
      <path d="
M47.9062 6
L47.4062 6
C42.7969 6 41.7031 7.0625 41.7031 11.5625
L41.7031 45
L25.9062 45
L25.9062 43.0938
C32.0938 43.0938 33.2969 42.125 33.2969 37.2656
L33.2969 14.4531
C33.2969 11.7344 32.7969 10.375 31.4062 9.3125
C28.7031 7.17188 25.5938 6 22.5938 6
C18.7031 6 15.5 9.29688 15.5 13.375
L15.5 45
L0.90625 45
L0.90625 43.4062
C5.70312 43.4062 7.09375 41.9375 7.09375 37.4375
L7.09375 12.7344
C7.09375 4.98438 11.9062 0 19.2031 0
C22.9062 0 26.7969 1.57812 29.5 4.26562
L33.7969 8.53125
L33.7969 0.296875
L34.2031 0.09375
C39.2031 2.09375 42.7969 3.20312 47.9062 4.59375
z
" id="Nimbus_Roman_No9_L_Regular-117"/>
      <path d="
M25.5 45
L15.4062 45
L15.4062 57.5781
C15.4062 58.6562 15.2969 59 14.7031 59
C14 58.0312 13.4062 57.0625 12.7031 56
C8.90625 50.125 4.59375 45 3 44.5781
C1.90625 43.8281 1.29688 43.0781 1.29688 42.5469
C1.29688 42.2344 1.40625 42.0156 1.70312 41.7969
L7 41.7969
L7 12.4062
C7 4.20312 10 0 15.9062 0
C20.7969 0 24.5938 2.39062 27.9062 7.53125
L26.5938 8.60938
C24.5 6.17188 22.7969 5.20312 20.5938 5.20312
C16.9062 5.20312 15.4062 7.82812 15.4062 13.9688
L15.4062 41.7969
L25.5 41.7969
z
" id="Nimbus_Roman_No9_L_Regular-116"/>
      <path d="
M65.9062 1.89062
C62.0938 2.1875 60.0938 3.20312 57.2031 6.625
L36.5938 32.2031
C43.2969 33.4844 46.2969 34.6719 49.5938 37.3125
C52.7969 39.8906 54.7031 44.0312 54.7031 48.6406
C54.7031 52.8906 53.4062 56.5312 50.7969 59.3906
C47 63.4219 38.7031 66 29.2969 66
L1.70312 66
L1.70312 64.0938
C9.20312 63.2969 10.2031 62.2031 10.2031 55.125
L10.2031 11.9531
C10.2031 3.6875 9.20312 2.48438 1.70312 1.89062
L1.70312 0
L29.4062 0
L29.4062 2.09375
C21.7031 2.09375 20.4062 3.42188 20.4062 10.8125
L20.4062 31
L26 31
L49.7969 0
L65.9062 0
z

M20.4062 58.7812
C20.4062 61.5156 21.5 62.2969 25.5 62.2969
C38 62.2969 43.7969 58.0625 43.7969 48.7969
C43.7969 43.8594 41.7031 39.7188 38.0938 37.8594
C33.5 35.2812 30 34.7031 20.4062 34.7031
z
" id="Nimbus_Roman_No9_L_Regular-82"/>
      <path d="
M1.90625 62.5
L2.5 62.5
C3.59375 62.5 4.79688 62.5 5.59375 62.5
C8.79688 62.5 9.79688 61.0938 9.79688 56.4062
L9.79688 8.70312
C9.79688 3.29688 8.40625 2 2.09375 1.5
L2.09375 0
L25.7031 0
L25.7031 1.70312
C19.4062 1.70312 18.2031 2.70312 18.2031 8.25
L18.2031 68.2969
L17.7969 68.5
C12.5938 66.7969 8.79688 65.7969 1.90625 64.1094
z
" id="Nimbus_Roman_No9_L_Regular-108"/>
     </defs>
     <g transform="translate(111.49179067 109.421722211)rotate(-90.0)scale(0.06 -0.06)">
      <use transform="scale(0.996264009963)" xlink:href="#Nimbus_Roman_No9_L_Regular-82"/>
      <use transform="translate(66.4500311333 0.0)scale(0.996264009963)" xlink:href="#Nimbus_Roman_No9_L_Regular-101"/>
      <use transform="translate(110.683599831 0.0)scale(0.996264009963)" xlink:href="#Nimbus_Roman_No9_L_Regular-115"/>
      <use transform="translate(149.437306025 0.0)scale(0.996264009963)" xlink:href="#Nimbus_Roman_No9_L_Regular-117"/>
      <use transform="translate(199.250506523 0.0)scale(0.996264009963)" xlink:href="#Nimbus_Roman_No9_L_Regular-108"/>
      <use transform="translate(226.945676127 0.0)scale(0.996264009963)" xlink:href="#Nimbus_Roman_No9_L_Regular-116"/>
     </g>
    </g>
   </g>
   <g id="patch_7">
    <path d="
M86.1612 119.058
L86.1612 84.5074" style="fill:none;stroke:#000000;"/>
   </g>
   <g id="patch_8">
    <path d="
M5.91105 119.058
L86.1612 119.058" style="fill:none;stroke:#000000;"/>
   </g>
  </g>
 </g>
 <defs>
  <clipPath id="pd205ddd705">
   <rect height="34.550171226" width="80.2501988363" x="5.9110467096" y="43.890418784"/>
  </clipPath>
  <clipPath id="p142c0f8661">
   <rect height="34.550171226" width="80.2501988363" x="5.9110467096" y="3.27341585266"/>
  </clipPath>
  <clipPath id="pacf47f6499">
   <rect height="34.550171226" width="80.2501988363" x="5.9110467096" y="84.5074217153"/>
  </clipPath>
 </defs>
</svg>
